NobotoFlex-Scale-max.ufo
<glyph name="exclam" format="1">
  <advance width="1110"/>
  <unicode hex="0021"/>
  <outline>
    <contour>
      <point x="862" y="2912" type="line"/>
      <point x="274" y="2912" type="line"/>
      <point x="334" y="890" type="line"/>
      <point x="800" y="890" type="line"/>
    </contour>
    <component base="period" xOffset="-1"/>
  </outline>
</glyph>
<glyph name="quotedbl" format="1">
  <advance width="1318"/>
  <unicode hex="0022"/>
  <outline>
    <contour>
      <point x="536" y="3074" type="line"/>
      <point x="146" y="3074" type="line"/>
      <point x="146" y="2772" type="line"/>
      <point x="146" y="1980" type="line"/>
      <point x="460" y="1980" type="line"/>
      <point x="536" y="2798" type="line"/>
    </contour>
    <contour>
      <point x="1176" y="3074" type="line"/>
      <point x="786" y="3074" type="line"/>
      <point x="786" y="2790" type="line"/>
      <point x="786" y="1980" type="line"/>
      <point x="1098" y="1980" type="line"/>
      <point x="1176" y="2798" type="line"/>
    </contour>
  </outline>
</glyph>
<glyph name="numbersign" format="1">
  <advance width="2456"/>
  <unicode hex="0023"/>
  <outline>
    <contour>
      <point x="454" y="0" type="line"/>
      <point x="812" y="0" type="line"/>
      <point x="1332" y="2912" type="line"/>
      <point x="974" y="2912" type="line"/>
    </contour>
    <contour>
      <point x="1214" y="0" type="line"/>
      <point x="1572" y="0" type="line"/>
      <point x="2092" y="2912" type="line"/>
      <point x="1734" y="2912" type="line"/>
    </contour>
    <contour>
      <point x="2376" y="1738" type="line"/>
      <point x="2376" y="2080" type="line"/>
      <point x="296" y="2080" type="line"/>
      <point x="296" y="1738" type="line"/>
    </contour>
    <contour>
      <point x="2226" y="820" type="line"/>
      <point x="2226" y="1162" type="line"/>
      <point x="144" y="1162" type="line"/>
      <point x="144" y="820" type="line"/>
    </contour>
  </outline>
</glyph>
<glyph name="dollar" format="1">
  <advance width="2344"/>
  <unicode hex="0024"/>
  <outline>
    <contour>
      <point x="1398" y="3376" type="line"/>
      <point x="1080" y="3376" type="line"/>
      <point x="1080" y="2780" type="line"/>
      <point x="1398" y="2780" type="line"/>
    </contour>
    <contour>
      <point x="1358" y="110" type="line"/>
      <point x="1040" y="110" type="line"/>
      <point x="1040" y="-430" type="line"/>
      <point x="1358" y="-430" type="line"/>
    </contour>
    <contour>
      <point x="1596" y="766" type="curve"/>
      <point x="1596" y="562"/>
      <point x="1458" y="414"/>
      <point x="1194" y="414" type="curve" smooth="yes"/>
      <point x="970" y="414"/>
      <point x="744" y="528"/>
      <point x="744" y="910" type="curve"/>
      <point x="188" y="910" type="line"/>
      <point x="188" y="196"/>
      <point x="706" y="-42"/>
      <point x="1194" y="-42" type="curve" smooth="yes"/>
      <point x="1766" y="-42"/>
      <point x="2150" y="250"/>
      <point x="2150" y="770" type="curve"/>
      <point x="2150" y="1288"/>
      <point x="1810" y="1498"/>
      <point x="1292" y="1700" type="curve" smooth="yes"/>
      <point x="958" y="1828"/>
      <point x="854" y="1938"/>
      <point x="854" y="2140" type="curve"/>
      <point x="854" y="2344"/>
      <point x="964" y="2498"/>
      <point x="1214" y="2498" type="curve" smooth="yes"/>
      <point x="1446" y="2498"/>
      <point x="1594" y="2332"/>
      <point x="1594" y="2012" type="curve"/>
      <point x="2148" y="2012" type="line"/>
      <point x="2148" y="2610"/>
      <point x="1782" y="2954"/>
      <point x="1220" y="2954" type="curve" smooth="yes"/>
      <point x="670" y="2954"/>
      <point x="298" y="2638"/>
      <point x="298" y="2142" type="curve"/>
      <point x="298" y="1620"/>
      <point x="644" y="1412"/>
      <point x="1164" y="1218" type="curve" smooth="yes"/>
      <point x="1478" y="1102"/>
      <point x="1596" y="988"/>
    </contour>
  </outline>
</glyph>
<glyph name="percent" format="1">
  <advance width="3020"/>
  <unicode hex="0025"/>
  <outline>
    <contour>
      <point x="192" y="2198" type="line"/>
      <point x="192" y="1872"/>
      <point x="416" y="1600"/>
      <point x="824" y="1600" type="curve" smooth="yes"/>
      <point x="1234" y="1600"/>
      <point x="1450" y="1872"/>
      <point x="1450" y="2198" type="curve" smooth="yes"/>
      <point x="1450" y="2352" type="line" smooth="yes"/>
      <point x="1450" y="2682"/>
      <point x="1234" y="2954"/>
      <point x="820" y="2954" type="curve" smooth="yes"/>
      <point x="416" y="2954"/>
      <point x="192" y="2682"/>
      <point x="192" y="2352" type="curve" smooth="yes"/>
    </contour>
    <contour>
      <point x="566" y="2352" type="line"/>
      <point x="566" y="2496"/>
      <point x="650" y="2626"/>
      <point x="820" y="2626" type="curve" smooth="yes"/>
      <point x="994" y="2626"/>
      <point x="1076" y="2496"/>
      <point x="1076" y="2352" type="curve" smooth="yes"/>
      <point x="1076" y="2198" type="line" smooth="yes"/>
      <point x="1076" y="2058"/>
      <point x="996" y="1928"/>
      <point x="824" y="1928" type="curve" smooth="yes"/>
      <point x="650" y="1928"/>
      <point x="566" y="2058"/>
      <point x="566" y="2198" type="curve" smooth="yes"/>
    </contour>
    <contour>
      <point x="1586" y="560" type="line"/>
      <point x="1586" y="232"/>
      <point x="1810" y="-40"/>
      <point x="2220" y="-40" type="curve" smooth="yes"/>
      <point x="2628" y="-40"/>
      <point x="2844" y="232"/>
      <point x="2844" y="560" type="curve" smooth="yes"/>
      <point x="2844" y="714" type="line" smooth="yes"/>
      <point x="2844" y="1042"/>
      <point x="2628" y="1314"/>
      <point x="2216" y="1314" type="curve" smooth="yes"/>
      <point x="1810" y="1314"/>
      <point x="1586" y="1042"/>
      <point x="1586" y="714" type="curve" smooth="yes"/>
    </contour>
    <contour>
      <point x="1960" y="714" type="line"/>
      <point x="1960" y="856"/>
      <point x="2044" y="986"/>
      <point x="2216" y="986" type="curve" smooth="yes"/>
      <point x="2388" y="986"/>
      <point x="2472" y="856"/>
      <point x="2472" y="714" type="curve" smooth="yes"/>
      <point x="2472" y="560" type="line" smooth="yes"/>
      <point x="2472" y="416"/>
      <point x="2412" y="288"/>
      <point x="2220" y="288" type="curve" smooth="yes"/>
      <point x="2060" y="288"/>
      <point x="1960" y="418"/>
      <point x="1960" y="560" type="curve" smooth="yes"/>
    </contour>
    <contour>
      <point x="2356" y="2494" type="line"/>
      <point x="2082" y="2646" type="line"/>
      <point x="660" y="370" type="line"/>
      <point x="934" y="218" type="line"/>
    </contour>
  </outline>
</glyph>
<glyph name="quotesingle" format="1">
  <advance width="670"/>
  <unicode hex="0027"/>
  <outline>
    <contour>
      <point x="546" y="3072" type="line"/>
      <point x="136" y="3072" type="line"/>
      <point x="136" y="2756" type="line"/>
      <point x="136" y="1980" type="line"/>
      <point x="490" y="1980" type="line"/>
      <point x="546" y="2784" type="line"/>
    </contour>
  </outline>
</glyph>
<glyph name="period" format="1">
  <advance width="1180"/>
  <unicode hex="002E"/>
  <outline>
    <contour>
      <point x="250" y="286" type="curve" smooth="yes"/>
      <point x="250" y="110"/>
      <point x="374" y="-24"/>
      <point x="572" y="-24" type="curve" smooth="yes"/>
      <point x="772" y="-24"/>
      <point x="896" y="110"/>
      <point x="896" y="286" type="curve" smooth="yes"/>
      <point x="896" y="462"/>
      <point x="772" y="598"/>
      <point x="572" y="598" type="curve" smooth="yes"/>
      <point x="374" y="598"/>
      <point x="250" y="462"/>
    </contour>
  </outline>
</glyph>
<glyph name="zero" format="1">
  <advance width="2344"/>
  <unicode hex="0030"/>
  <outline>
    <contour>
      <point x="2148" y="1710" type="line"/>
      <point x="2148" y="2592"/>
      <point x="1754" y="2952"/>
      <point x="1172" y="2952" type="curve" smooth="yes"/>
      <point x="588" y="2952"/>
      <point x="196" y="2592"/>
      <point x="196" y="1710" type="curve"/>
      <point x="196" y="1208" type="line"/>
      <point x="196" y="326"/>
      <point x="592" y="-40"/>
      <point x="1176" y="-40" type="curve" smooth="yes"/>
      <point x="1758" y="-40"/>
      <point x="2148" y="326"/>
      <point x="2148" y="1208" type="curve"/>
    </contour>
    <contour>
      <point x="1592" y="1132" type="line"/>
      <point x="1592" y="602"/>
      <point x="1442" y="416"/>
      <point x="1176" y="416" type="curve" smooth="yes"/>
      <point x="908" y="416"/>
      <point x="752" y="602"/>
      <point x="752" y="1132" type="curve" smooth="yes"/>
      <point x="752" y="1790" type="line" smooth="yes"/>
      <point x="752" y="2316"/>
      <point x="904" y="2496"/>
      <point x="1172" y="2496" type="curve" smooth="yes"/>
      <point x="1440" y="2496"/>
      <point x="1592" y="2316"/>
      <point x="1592" y="1790" type="curve"/>
    </contour>
  </outline>
</glyph>
<glyph name="two" format="1">
  <advance width="2344"/>
  <unicode hex="0032"/>
  <outline>
    <contour>
      <point x="2190" y="456" type="line"/>
      <point x="912" y="456" type="line"/>
      <point x="1462" y="1018" type="line" smooth="yes"/>
      <point x="1838" y="1416"/>
      <point x="2090" y="1744"/>
      <point x="2090" y="2130" type="curve" smooth="yes"/>
      <point x="2090" y="2640"/>
      <point x="1758" y="2954"/>
      <point x="1152" y="2954" type="curve" smooth="yes"/>
      <point x="526" y="2954"/>
      <point x="146" y="2522"/>
      <point x="146" y="2000" type="curve"/>
      <point x="702" y="2000" type="line"/>
      <point x="702" y="2286"/>
      <point x="856" y="2498"/>
      <point x="1144" y="2498" type="curve" smooth="yes"/>
      <point x="1394" y="2498"/>
      <point x="1534" y="2332"/>
      <point x="1534" y="2074" type="curve" smooth="yes"/>
      <point x="1534" y="1900"/>
      <point x="1440" y="1714"/>
      <point x="1148" y="1396" type="curve" smooth="yes"/>
      <point x="204" y="388" type="line"/>
      <point x="204" y="0" type="line"/>
      <point x="2190" y="0" type="line"/>
    </contour>
  </outline>
</glyph>
<glyph name="four" format="1">
  <advance width="2344"/>
  <unicode hex="0034"/>
  <outline>
    <contour>
      <point x="2236" y="1090" type="line"/>
      <point x="668" y="1090" type="line"/>
      <point x="1352" y="2138" type="line"/>
      <point x="1776" y="2912" type="line"/>
      <point x="1334" y="2912" type="line"/>
      <point x="110" y="988" type="line"/>
      <point x="134" y="634" type="line"/>
      <point x="2236" y="634" type="line"/>
    </contour>
    <contour>
      <point x="1898" y="2912" type="line"/>
      <point x="1344" y="2912" type="line"/>
      <point x="1344" y="0" type="line"/>
      <point x="1898" y="0" type="line"/>
    </contour>
  </outline>
</glyph>
<glyph name="six" format="1">
  <advance width="2344"/>
  <unicode hex="0036"/>
  <outline>
    <contour>
      <point x="1684" y="2940" type="line"/>
      <point x="716" y="2940"/>
      <point x="210" y="2266"/>
      <point x="210" y="1336" type="curve"/>
      <point x="210" y="1118" type="line"/>
      <point x="210" y="444"/>
      <point x="598" y="-40"/>
      <point x="1224" y="-40" type="curve" smooth="yes"/>
      <point x="1822" y="-40"/>
      <point x="2196" y="396"/>
      <point x="2196" y="960" type="curve"/>
      <point x="2196" y="1494"/>
      <point x="1922" y="1946"/>
      <point x="1366" y="1946" type="curve"/>
      <point x="890" y="1946"/>
      <point x="578" y="1592"/>
      <point x="548" y="1180" type="curve"/>
      <point x="730" y="1068" type="line"/>
      <point x="740" y="1278"/>
      <point x="930" y="1492"/>
      <point x="1206" y="1492" type="curve"/>
      <point x="1482" y="1492"/>
      <point x="1642" y="1264"/>
      <point x="1642" y="954" type="curve" smooth="yes"/>
      <point x="1642" y="644"/>
      <point x="1476" y="418"/>
      <point x="1214" y="418" type="curve" smooth="yes"/>
      <point x="954" y="418"/>
      <point x="766" y="626"/>
      <point x="766" y="1046" type="curve" smooth="yes"/>
      <point x="766" y="1530" type="line" smooth="yes"/>
      <point x="766" y="2096"/>
      <point x="1084" y="2474"/>
      <point x="1724" y="2474" type="curve"/>
      <point x="1758" y="2474" type="line"/>
      <point x="1758" y="2940" type="line"/>
    </contour>
  </outline>
</glyph>
<glyph name="less" format="1">
  <advance width="2086"/>
  <unicode hex="003C"/>
  <outline>
    <contour>
      <point x="544" y="1288" type="line"/>
      <point x="114" y="1402" type="line"/>
      <point x="114" y="1014" type="line"/>
      <point x="1824" y="282" type="line"/>
      <point x="1824" y="832" type="line"/>
    </contour>
    <contour>
      <point x="1824" y="1656" type="line"/>
      <point x="1824" y="2206" type="line"/>
      <point x="114" y="1474" type="line"/>
      <point x="114" y="1086" type="line"/>
      <point x="544" y="1194" type="line"/>
    </contour>
  </outline>
</glyph>
<glyph name="equal" format="1">
  <advance width="2332"/>
  <unicode hex="003D"/>
  <outline>
    <contour>
      <point x="2050" y="1964" type="line"/>
      <point x="278" y="1964" type="line"/>
      <point x="278" y="1502" type="line"/>
      <point x="2050" y="1502" type="line"/>
    </contour>
    <contour>
      <point x="2050" y="1100" type="line"/>
      <point x="278" y="1100" type="line"/>
      <point x="278" y="638" type="line"/>
      <point x="2050" y="638" type="line"/>
    </contour>
  </outline>
</glyph>
<glyph name="greater" format="1">
  <advance width="2120"/>
  <unicode hex="003E"/>
  <outline>
    <contour>
      <point x="1542" y="1206" type="line"/>
      <point x="1984" y="1084" type="line"/>
      <point x="1984" y="1474" type="line"/>
      <point x="244" y="2206" type="line"/>
      <point x="244" y="1660" type="line"/>
    </contour>
    <contour>
      <point x="244" y="828" type="line"/>
      <point x="244" y="282" type="line"/>
      <point x="1984" y="1014" type="line"/>
      <point x="1984" y="1402" type="line"/>
      <point x="1542" y="1292" type="line"/>
    </contour>
  </outline>
</glyph>
<glyph name="question" format="1">
  <advance width="2028"/>
  <unicode hex="003F"/>
  <outline>
    <contour>
      <point x="1194" y="890" type="line"/>
      <point x="1198" y="1094"/>
      <point x="1238" y="1234"/>
      <point x="1386" y="1368" type="curve" smooth="yes"/>
      <point x="1648" y="1612"/>
      <point x="1880" y="1820"/>
      <point x="1880" y="2170" type="curve" smooth="yes"/>
      <point x="1880" y="2672"/>
      <point x="1552" y="2952"/>
      <point x="998" y="2952" type="curve" smooth="yes"/>
      <point x="494" y="2952"/>
      <point x="106" y="2696"/>
      <point x="98" y="2146" type="curve"/>
      <point x="656" y="2146" type="line"/>
      <point x="660" y="2388"/>
      <point x="824" y="2488"/>
      <point x="998" y="2488" type="curve" smooth="yes"/>
      <point x="1210" y="2488"/>
      <point x="1324" y="2372"/>
      <point x="1324" y="2146" type="curve" smooth="yes"/>
      <point x="1324" y="1946"/>
      <point x="1188" y="1816"/>
      <point x="1006" y="1652" type="curve" smooth="yes"/>
      <point x="772" y="1442"/>
      <point x="698" y="1254"/>
      <point x="696" y="890" type="curve"/>
    </contour>
    <component base="period" xOffset="192"/>
  </outline>
</glyph>
<glyph name="at" format="1">
  <advance width="3666"/>
  <unicode hex="0040"/>
  <outline>
    <contour>
      <point x="3490" y="1068" type="curve"/>
      <point x="3534" y="2128"/>
      <point x="2968" y="2834"/>
      <point x="1928" y="2834" type="curve" smooth="yes"/>
      <point x="892" y="2834"/>
      <point x="224" y="2022"/>
      <point x="176" y="928" type="curve" smooth="yes"/>
      <point x="132" y="-254"/>
      <point x="732" y="-906"/>
      <point x="1782" y="-906" type="curve" smooth="yes"/>
      <point x="2030" y="-906"/>
      <point x="2342" y="-848"/>
      <point x="2528" y="-728" type="curve"/>
      <point x="2452" y="-426" type="line"/>
      <point x="2284" y="-506"/>
      <point x="2024" y="-564"/>
      <point x="1790" y="-564" type="curve" smooth="yes"/>
      <point x="968" y="-564"/>
      <point x="514" y="-44"/>
      <point x="558" y="928" type="curve" smooth="yes"/>
      <point x="600" y="1842"/>
      <point x="1100" y="2512"/>
      <point x="1920" y="2512" type="curve" smooth="yes"/>
      <point x="2800" y="2512"/>
      <point x="3186" y="1940"/>
      <point x="3142" y="1056" type="curve" smooth="yes"/>
      <point x="3128" y="616"/>
      <point x="2958" y="276"/>
      <point x="2690" y="276" type="curve" smooth="yes"/>
      <point x="2574" y="276"/>
      <point x="2446" y="338"/>
      <point x="2476" y="612" type="curve"/>
      <point x="2578" y="1762" type="line"/>
      <point x="2186" y="1762" type="line"/>
      <point x="2084" y="612" type="line" smooth="yes"/>
      <point x="2054" y="210"/>
      <point x="2268" y="-42"/>
      <point x="2622" y="-42" type="curve"/>
      <point x="3228" y="-42"/>
      <point x="3470" y="526"/>
    </contour>
    <contour>
      <point x="1476" y="860" type="curve" smooth="yes"/>
      <point x="1526" y="1364"/>
      <point x="1702" y="1634"/>
      <point x="2004" y="1634" type="curve" smooth="yes"/>
      <point x="2174" y="1634"/>
      <point x="2298" y="1554"/>
      <point x="2376" y="1484" type="curve"/>
      <point x="2578" y="1762" type="line"/>
      <point x="2418" y="1878"/>
      <point x="2274" y="1980"/>
      <point x="1966" y="1980" type="curve" smooth="yes"/>
      <point x="1506" y="1980"/>
      <point x="1118" y="1544"/>
      <point x="1046" y="860" type="curve" smooth="yes"/>
      <point x="996" y="318"/>
      <point x="1224" y="-36"/>
      <point x="1614" y="-36" type="curve" smooth="yes"/>
      <point x="1914" y="-36"/>
      <point x="2166" y="168"/>
      <point x="2288" y="566" type="curve"/>
      <point x="2120" y="770" type="line"/>
      <point x="2032" y="412"/>
      <point x="1862" y="320"/>
      <point x="1746" y="320" type="curve" smooth="yes"/>
      <point x="1542" y="320"/>
      <point x="1446" y="506"/>
    </contour>
  </outline>
</glyph>
<glyph name="A" format="1">
  <advance width="2750"/>
  <unicode hex="0041"/>
  <outline>
    <contour>
      <point x="1606" y="2906" type="line"/>
      <point x="1496" y="2912" type="line"/>
      <point x="1110" y="2912" type="line"/>
      <point x="20" y="0" type="line"/>
      <point x="630" y="0" type="line"/>
    </contour>
    <contour>
      <point x="2120" y="0" type="line"/>
      <point x="2732" y="0" type="line"/>
      <point x="1640" y="2912" type="line"/>
      <point x="1248" y="2912" type="line"/>
      <point x="1144" y="2906" type="line"/>
    </contour>
    <contour>
      <point x="2096" y="1086" type="line"/>
      <point x="530" y="1086" type="line"/>
      <point x="530" y="610" type="line"/>
      <point x="2096" y="610" type="line"/>
    </contour>
    <contour>
      <point x="2574" y="0" type="move" name="ogonek"/>
    </contour>
    <contour>
      <point x="2750" y="3200" type="move" name="top_dd"/>
    </contour>
    <contour>
      <point x="1394" y="12" type="move" name="bottom"/>
    </contour>
    <contour>
      <point x="2750" y="-814" type="move" name="bottom_dd"/>
    </contour>
    <contour>
      <point x="2750" y="3200" type="move" name="top0315"/>
    </contour>
    <contour>
      <point x="1380" y="3200" type="move" name="top"/>
    </contour>
    <contour>
      <point x="682" y="2908" type="move" name="tonos"/>
    </contour>
    <contour>
      <point x="2730" y="0" type="move" name="right"/>
    </contour>
  </outline>
</glyph>
<glyph name="B" format="1">
  <advance width="2608"/>
  <unicode hex="0042"/>
  <outline>
    <contour>
      <point x="1396" y="1276" type="line"/>
      <point x="1564" y="1430" type="line"/>
      <point x="2100" y="1450"/>
      <point x="2346" y="1758"/>
      <point x="2346" y="2116" type="curve"/>
      <point x="2346" y="2660"/>
      <point x="1950" y="2912"/>
      <point x="1284" y="2912" type="curve"/>
      <point x="270" y="2912" type="line"/>
      <point x="270" y="0" type="line"/>
      <point x="848" y="0" type="line"/>
      <point x="848" y="2436" type="line"/>
      <point x="1284" y="2436" type="line"/>
      <point x="1618" y="2436"/>
      <point x="1768" y="2326"/>
      <point x="1768" y="2060" type="curve"/>
      <point x="1768" y="1822"/>
      <point x="1604" y="1692"/>
      <point x="1286" y="1692" type="curve"/>
      <point x="656" y="1692" type="line"/>
      <point x="660" y="1276" type="line"/>
    </contour>
    <contour>
      <point x="1372" y="0" type="line"/>
      <point x="2034" y="0"/>
      <point x="2412" y="292"/>
      <point x="2412" y="856" type="curve" smooth="yes"/>
      <point x="2412" y="1204"/>
      <point x="2198" y="1534"/>
      <point x="1684" y="1530" type="curve"/>
      <point x="1552" y="1692" type="line"/>
      <point x="824" y="1692" type="line"/>
      <point x="820" y="1276" type="line"/>
      <point x="1396" y="1276" type="line" smooth="yes"/>
      <point x="1710" y="1276"/>
      <point x="1836" y="1118"/>
      <point x="1836" y="862" type="curve" smooth="yes"/>
      <point x="1836" y="638"/>
      <point x="1686" y="474"/>
      <point x="1372" y="474" type="curve" smooth="yes"/>
      <point x="730" y="474" type="line"/>
      <point x="490" y="0" type="line"/>
    </contour>
    <contour>
      <point x="2608" y="3224" type="move" name="top0315"/>
    </contour>
    <contour>
      <point x="2608" y="3200" type="move" name="top_dd"/>
    </contour>
    <contour>
      <point x="1202" y="3224" type="move" name="top"/>
    </contour>
    <contour>
      <point x="2608" y="-814" type="move" name="bottom_dd"/>
    </contour>
    <contour>
      <point x="1208" y="20" type="move" name="bottom"/>
    </contour>
  </outline>
</glyph>
<glyph name="D" format="1">
  <advance width="2666"/>
  <unicode hex="0044"/>
  <outline>
    <contour>
      <point x="1146" y="0" type="line"/>
      <point x="1944" y="0"/>
      <point x="2484" y="556"/>
      <point x="2484" y="1388" type="curve"/>
      <point x="2484" y="1522" type="line"/>
      <point x="2484" y="2354"/>
      <point x="1940" y="2912"/>
      <point x="1158" y="2912" type="curve"/>
      <point x="510" y="2912" type="line"/>
      <point x="510" y="2436" type="line"/>
      <point x="1158" y="2436" type="line"/>
      <point x="1638" y="2436"/>
      <point x="1900" y="2118"/>
      <point x="1900" y="1526" type="curve"/>
      <point x="1900" y="1388" type="line" smooth="yes"/>
      <point x="1900" y="804"/>
      <point x="1642" y="474"/>
      <point x="1146" y="474" type="curve"/>
      <point x="526" y="474" type="line"/>
      <point x="522" y="0" type="line"/>
    </contour>
    <contour>
      <point x="848" y="2912" type="line"/>
      <point x="270" y="2912" type="line"/>
      <point x="270" y="0" type="line"/>
      <point x="848" y="0" type="line"/>
    </contour>
    <contour>
      <point x="2666" y="3208" type="move" name="top0315"/>
    </contour>
    <contour>
      <point x="2666" y="3200" type="move" name="top_dd"/>
    </contour>
    <contour>
      <point x="648" y="1460" type="move" name="cross"/>
    </contour>
    <contour>
      <point x="1076" y="3208" type="move" name="top"/>
    </contour>
    <contour>
      <point x="2666" y="-814" type="move" name="bottom_dd"/>
    </contour>
    <contour>
      <point x="1078" y="20" type="move" name="bottom"/>
    </contour>
  </outline>
</glyph>
<glyph name="E" format="1">
  <advance width="2308"/>
  <unicode hex="0045"/>
  <outline>
    <contour>
      <point x="2210" y="474" type="line"/>
      <point x="672" y="474" type="line"/>
      <point x="672" y="0" type="line"/>
      <point x="2210" y="0" type="line"/>
    </contour>
    <contour>
      <point x="848" y="2912" type="line"/>
      <point x="270" y="2912" type="line"/>
      <point x="270" y="0" type="line"/>
      <point x="848" y="0" type="line"/>
    </contour>
    <contour>
      <point x="2008" y="1728" type="line"/>
      <point x="672" y="1728" type="line"/>
      <point x="672" y="1268" type="line"/>
      <point x="2008" y="1268" type="line"/>
    </contour>
    <contour>
      <point x="2204" y="2912" type="line"/>
      <point x="672" y="2912" type="line"/>
      <point x="672" y="2436" type="line"/>
      <point x="2204" y="2436" type="line"/>
    </contour>
    <contour>
      <point x="1926" y="0" type="move" name="ogonek"/>
    </contour>
    <contour>
      <point x="2308" y="3200" type="move" name="top_dd"/>
    </contour>
    <contour>
      <point x="1272" y="20" type="move" name="bottom"/>
    </contour>
    <contour>
      <point x="2308" y="-814" type="move" name="bottom_dd"/>
    </contour>
    <contour>
      <point x="2308" y="3208" type="move" name="top0315"/>
    </contour>
    <contour>
      <point x="1266" y="3208" type="move" name="top"/>
    </contour>
    <contour>
      <point x="-156" y="2912" type="move" name="tonos"/>
    </contour>
  </outline>
</glyph>
<glyph name="L" format="1">
  <advance width="2218"/>
  <unicode hex="004C"/>
  <outline>
    <contour>
      <point x="2132" y="474" type="line"/>
      <point x="672" y="474" type="line"/>
      <point x="672" y="0" type="line"/>
      <point x="2132" y="0" type="line"/>
    </contour>
    <contour>
      <point x="848" y="2912" type="line"/>
      <point x="270" y="2912" type="line"/>
      <point x="270" y="0" type="line"/>
      <point x="848" y="0" type="line"/>
    </contour>
    <contour>
      <point x="2218" y="3200" type="move" name="top_dd"/>
    </contour>
    <contour>
      <point x="1208" y="20" type="move" name="bottom"/>
    </contour>
    <contour>
      <point x="2218" y="-814" type="move" name="bottom_dd"/>
    </contour>
    <contour>
      <point x="2218" y="3200" type="move" name="top0315"/>
    </contour>
    <contour>
      <point x="1300" y="2912" type="move" name="caron"/>
    </contour>
    <contour>
      <point x="568" y="3200" type="move" name="top"/>
    </contour>
    <contour>
      <point x="1198" y="1662" type="move" name="dot"/>
    </contour>
  </outline>
</glyph>
<glyph name="O" format="1">
  <advance width="2828"/>
  <unicode hex="004F"/>
  <outline>
    <contour>
      <point x="2646" y="1522" type="line"/>
      <point x="2646" y="2408"/>
      <point x="2142" y="2952"/>
      <point x="1412" y="2952" type="curve" smooth="yes"/>
      <point x="686" y="2952"/>
      <point x="180" y="2408"/>
      <point x="180" y="1522" type="curve"/>
      <point x="180" y="1388" type="line"/>
      <point x="180" y="502"/>
      <point x="690" y="-40"/>
      <point x="1416" y="-40" type="curve" smooth="yes"/>
      <point x="2146" y="-40"/>
      <point x="2646" y="502"/>
      <point x="2646" y="1388" type="curve"/>
    </contour>
    <contour>
      <point x="2064" y="1388" type="line"/>
      <point x="2064" y="778"/>
      <point x="1830" y="444"/>
      <point x="1416" y="444" type="curve" smooth="yes"/>
      <point x="1006" y="444"/>
      <point x="762" y="778"/>
      <point x="762" y="1388" type="curve" smooth="yes"/>
      <point x="762" y="1526" type="line" smooth="yes"/>
      <point x="762" y="2138"/>
      <point x="1002" y="2466"/>
      <point x="1412" y="2466" type="curve" smooth="yes"/>
      <point x="1824" y="2466"/>
      <point x="2064" y="2138"/>
      <point x="2064" y="1526" type="curve"/>
    </contour>
    <contour>
      <point x="2828" y="3200" type="move" name="top0315"/>
    </contour>
    <contour>
      <point x="2828" y="3200" type="move" name="top_dd"/>
    </contour>
    <contour>
      <point x="1414" y="3200" type="move" name="top"/>
    </contour>
    <contour>
      <point x="236" y="2908" type="move" name="tonos"/>
    </contour>
    <contour>
      <point x="2828" y="-814" type="move" name="bottom_dd"/>
    </contour>
    <contour>
      <point x="1422" y="0" type="move" name="bottom"/>
    </contour>
  </outline>
</glyph>
<glyph name="P" format="1">
  <advance width="2638"/>
  <unicode hex="0050"/>
  <outline>
    <contour>
      <point x="1402" y="1034" type="line"/>
      <point x="2086" y="1034"/>
      <point x="2488" y="1390"/>
      <point x="2488" y="1954" type="curve"/>
      <point x="2488" y="2508"/>
      <point x="2086" y="2912"/>
      <point x="1402" y="2912" type="curve"/>
      <point x="270" y="2912" type="line"/>
      <point x="270" y="0" type="line"/>
      <point x="848" y="0" type="line"/>
      <point x="848" y="2436" type="line"/>
      <point x="1402" y="2436" type="line"/>
      <point x="1758" y="2436"/>
      <point x="1904" y="2206"/>
      <point x="1904" y="1950" type="curve"/>
      <point x="1904" y="1694"/>
      <point x="1758" y="1510"/>
      <point x="1402" y="1510" type="curve"/>
      <point x="660" y="1510" type="line"/>
      <point x="660" y="1034" type="line"/>
    </contour>
    <contour>
      <point x="2638" y="3224" type="move" name="top0315"/>
    </contour>
    <contour>
      <point x="2638" y="3200" type="move" name="top_dd"/>
    </contour>
    <contour>
      <point x="1202" y="3224" type="move" name="top"/>
    </contour>
    <contour>
      <point x="-46" y="2908" type="move" name="tonos"/>
    </contour>
    <contour>
      <point x="2638" y="-814" type="move" name="bottom_dd"/>
    </contour>
    <contour>
      <point x="1060" y="20" type="move" name="bottom"/>
    </contour>
  </outline>
</glyph>
<glyph name="R" format="1">
  <advance width="2600"/>
  <unicode hex="0052"/>
  <outline>
    <contour>
      <point x="270" y="2912" type="line"/>
      <point x="270" y="0" type="line"/>
      <point x="848" y="0" type="line"/>
      <point x="848" y="2436" type="line"/>
      <point x="1338" y="2436" type="line" smooth="yes"/>
      <point x="1676" y="2436"/>
      <point x="1830" y="2264"/>
      <point x="1830" y="1990" type="curve" smooth="yes"/>
      <point x="1830" y="1726"/>
      <point x="1666" y="1550"/>
      <point x="1338" y="1550" type="curve" smooth="yes"/>
      <point x="656" y="1550" type="line"/>
      <point x="660" y="1074" type="line"/>
      <point x="1586" y="1074" type="line"/>
      <point x="1766" y="1178" type="line"/>
      <point x="2158" y="1308"/>
      <point x="2408" y="1566"/>
      <point x="2408" y="2032" type="curve" smooth="yes"/>
      <point x="2408" y="2606"/>
      <point x="2008" y="2912"/>
      <point x="1338" y="2912" type="curve" smooth="yes"/>
    </contour>
    <contour>
      <point x="1902" y="0" type="line"/>
      <point x="2520" y="0" type="line"/>
      <point x="2520" y="28" type="line"/>
      <point x="1844" y="1302" type="line"/>
      <point x="1234" y="1300" type="line"/>
    </contour>
    <contour>
      <point x="2600" y="3200" type="move" name="top0315"/>
    </contour>
    <contour>
      <point x="2600" y="3200" type="move" name="top_dd"/>
    </contour>
    <contour>
      <point x="1200" y="3200" type="move" name="top"/>
    </contour>
    <contour>
      <point x="2600" y="-814" type="move" name="bottom_dd"/>
    </contour>
    <contour>
      <point x="1224" y="20" type="move" name="bottom"/>
    </contour>
  </outline>
</glyph>
<glyph name="S" format="1">
  <advance width="2506"/>
  <unicode hex="0053"/>
  <outline>
    <contour>
      <point x="1784" y="764" type="curve"/>
      <point x="1784" y="568"/>
      <point x="1630" y="426"/>
      <point x="1310" y="426" type="curve" smooth="yes"/>
      <point x="964" y="426"/>
      <point x="720" y="558"/>
      <point x="720" y="912" type="curve"/>
      <point x="142" y="912" type="line"/>
      <point x="142" y="260"/>
      <point x="736" y="-40"/>
      <point x="1310" y="-40" type="curve" smooth="yes"/>
      <point x="1948" y="-40"/>
      <point x="2362" y="260"/>
      <point x="2362" y="768" type="curve"/>
      <point x="2362" y="1244"/>
      <point x="2036" y="1516"/>
      <point x="1396" y="1710" type="curve"/>
      <point x="1010" y="1824"/>
      <point x="808" y="1942"/>
      <point x="808" y="2138" type="curve"/>
      <point x="808" y="2332"/>
      <point x="962" y="2484"/>
      <point x="1286" y="2484" type="curve" smooth="yes"/>
      <point x="1624" y="2484"/>
      <point x="1784" y="2306"/>
      <point x="1784" y="2056" type="curve"/>
      <point x="2360" y="2056" type="line"/>
      <point x="2360" y="2574"/>
      <point x="1946" y="2952"/>
      <point x="1296" y="2952" type="curve" smooth="yes"/>
      <point x="670" y="2952"/>
      <point x="230" y="2626"/>
      <point x="230" y="2140" type="curve"/>
      <point x="230" y="1640"/>
      <point x="662" y="1398"/>
      <point x="1200" y="1228" type="curve" smooth="yes"/>
      <point x="1682" y="1078"/>
      <point x="1784" y="972"/>
    </contour>
    <contour>
      <point x="2506" y="3200" type="move" name="top0315"/>
    </contour>
    <contour>
      <point x="2506" y="3200" type="move" name="top_dd"/>
    </contour>
    <contour>
      <point x="1290" y="3200" type="move" name="top"/>
    </contour>
    <contour>
      <point x="2506" y="-814" type="move" name="bottom_dd"/>
    </contour>
    <contour>
      <point x="1294" y="0" type="move" name="bottom"/>
    </contour>
  </outline>
</glyph>
<glyph name="W" format="1">
  <advance width="3590"/>
  <unicode hex="0057"/>
  <outline>
    <contour>
      <point x="986" y="468" type="line"/>
      <point x="960" y="0" type="line"/>
      <point x="1304" y="0" type="line"/>
      <point x="1920" y="2498" type="line"/>
      <point x="1884" y="2912" type="line"/>
      <point x="1558" y="2912" type="line"/>
    </contour>
    <contour>
      <point x="652" y="2912" type="line"/>
      <point x="78" y="2912" type="line"/>
      <point x="730" y="0" type="line"/>
      <point x="1106" y="0" type="line"/>
      <point x="1122" y="468" type="line"/>
    </contour>
    <contour>
      <point x="2484" y="478" type="line"/>
      <point x="2494" y="0" type="line"/>
      <point x="2870" y="0" type="line"/>
      <point x="3522" y="2912" type="line"/>
      <point x="2948" y="2912" type="line"/>
    </contour>
    <contour>
      <point x="2046" y="2912" type="line"/>
      <point x="1724" y="2912" type="line"/>
      <point x="1684" y="2500" type="line"/>
      <point x="2296" y="0" type="line"/>
      <point x="2640" y="0" type="line"/>
      <point x="2620" y="456" type="line"/>
    </contour>
    <contour>
      <point x="3590" y="3200" type="move" name="top0315"/>
    </contour>
    <contour>
      <point x="3590" y="3200" type="move" name="top_dd"/>
    </contour>
    <contour>
      <point x="1812" y="3200" type="move" name="top"/>
    </contour>
    <contour>
      <point x="3590" y="-814" type="move" name="bottom_dd"/>
    </contour>
    <contour>
      <point x="1804" y="20" type="move" name="bottom"/>
    </contour>
  </outline>
</glyph>
<glyph name="X" format="1">
  <advance width="2602"/>
  <unicode hex="0058"/>
  <outline>
    <contour>
      <point x="740" y="2912" type="line"/>
      <point x="76" y="2912" type="line"/>
      <point x="932" y="1468" type="line"/>
      <point x="56" y="0" type="line"/>
      <point x="726" y="0" type="line"/>
      <point x="1302" y="1026" type="line"/>
      <point x="1878" y="0" type="line"/>
      <point x="2548" y="0" type="line"/>
      <point x="1672" y="1468" type="line"/>
      <point x="2528" y="2912" type="line"/>
      <point x="1864" y="2912" type="line"/>
      <point x="1302" y="1904" type="line"/>
    </contour>
    <contour>
      <point x="2602" y="3200" type="move" name="top_dd"/>
    </contour>
    <contour>
      <point x="1298" y="1484" type="move" name="cross"/>
    </contour>
    <contour>
      <point x="1300" y="32" type="move" name="bottom"/>
    </contour>
    <contour>
      <point x="2602" y="-814" type="move" name="bottom_dd"/>
    </contour>
    <contour>
      <point x="2602" y="3224" type="move" name="top0315"/>
    </contour>
    <contour>
      <point x="1286" y="3224" type="move" name="top"/>
    </contour>
    <contour>
      <point x="2252" y="0" type="move" name="right"/>
    </contour>
  </outline>
</glyph>
<glyph name="backslash" format="1">
  <advance width="1726"/>
  <unicode hex="005C"/>
  <outline>
    <contour>
      <point x="1226" y="-250" type="line"/>
      <point x="1788" y="-250" type="line"/>
      <point x="572" y="2912" type="line"/>
      <point x="10" y="2912" type="line"/>
    </contour>
  </outline>
</glyph>
<glyph name="bracketright" format="1">
  <advance width="1136"/>
  <unicode hex="005D"/>
  <outline>
    <contour>
      <point x="26" y="2948" type="line"/>
      <point x="326" y="2948" type="line"/>
      <point x="326" y="-238" type="line"/>
      <point x="26" y="-238" type="line"/>
      <point x="26" y="-674" type="line"/>
      <point x="880" y="-674" type="line"/>
      <point x="880" y="3386" type="line"/>
      <point x="26" y="3386" type="line"/>
    </contour>
  </outline>
</glyph>
<glyph name="underscore" format="1">
  <advance width="1834"/>
  <unicode hex="005F"/>
  <outline>
    <contour>
      <point x="1828" y="0" type="line"/>
      <point x="4" y="0" type="line"/>
      <point x="4" y="-444" type="line"/>
      <point x="1828" y="-444" type="line"/>
    </contour>
    <contour>
      <point x="890" y="280" type="move" name="_bottom"/>
    </contour>
  </outline>
</glyph>
<glyph name="b" format="1">
  <advance width="2306"/>
  <unicode hex="0062"/>
  <outline>
    <contour>
      <point x="230" y="3072" type="line"/>
      <point x="230" y="0" type="line"/>
      <point x="730" y="0" type="line"/>
      <point x="784" y="496" type="line"/>
      <point x="784" y="3072" type="line"/>
    </contour>
    <contour>
      <point x="2166" y="1104" type="line"/>
      <point x="2166" y="1746"/>
      <point x="1886" y="2204"/>
      <point x="1322" y="2204" type="curve" smooth="yes"/>
      <point x="788" y="2204"/>
      <point x="556" y="1740"/>
      <point x="482" y="1120" type="curve"/>
      <point x="482" y="1046" type="line"/>
      <point x="556" y="422"/>
      <point x="788" y="-40"/>
      <point x="1326" y="-40" type="curve" smooth="yes"/>
      <point x="1884" y="-40"/>
      <point x="2166" y="416"/>
      <point x="2166" y="1062" type="curve" smooth="yes"/>
    </contour>
    <contour>
      <point x="1612" y="1062" type="line"/>
      <point x="1612" y="692"/>
      <point x="1520" y="418"/>
      <point x="1186" y="418" type="curve" smooth="yes"/>
      <point x="866" y="418"/>
      <point x="740" y="640"/>
      <point x="716" y="956" type="curve"/>
      <point x="716" y="1210" type="line"/>
      <point x="738" y="1526"/>
      <point x="866" y="1744"/>
      <point x="1182" y="1744" type="curve" smooth="yes"/>
      <point x="1520" y="1744"/>
      <point x="1612" y="1452"/>
      <point x="1612" y="1104" type="curve" smooth="yes"/>
    </contour>
    <contour>
      <point x="2306" y="3208" type="move" name="top0315"/>
    </contour>
    <contour>
      <point x="2306" y="3200" type="move" name="top_dd"/>
    </contour>
    <contour>
      <point x="1326" y="3208" type="move" name="top"/>
    </contour>
    <contour>
      <point x="2306" y="-814" type="move" name="bottom_dd"/>
    </contour>
    <contour>
      <point x="1302" y="-20" type="move" name="bottom"/>
    </contour>
  </outline>
</glyph>
<glyph name="c" format="1">
  <advance width="2140"/>
  <unicode hex="0063"/>
  <outline>
    <contour>
      <point x="1126" y="416" type="curve" smooth="yes"/>
      <point x="770" y="416"/>
      <point x="694" y="718"/>
      <point x="694" y="1052" type="curve" smooth="yes"/>
      <point x="694" y="1110" type="line" smooth="yes"/>
      <point x="694" y="1438"/>
      <point x="772" y="1748"/>
      <point x="1124" y="1748" type="curve"/>
      <point x="1368" y="1748"/>
      <point x="1500" y="1574"/>
      <point x="1508" y="1362" type="curve"/>
      <point x="2030" y="1362" type="line"/>
      <point x="2022" y="1878"/>
      <point x="1664" y="2204"/>
      <point x="1134" y="2204" type="curve" smooth="yes"/>
      <point x="466" y="2204"/>
      <point x="140" y="1720"/>
      <point x="140" y="1110" type="curve" smooth="yes"/>
      <point x="140" y="1052" type="line" smooth="yes"/>
      <point x="140" y="442"/>
      <point x="466" y="-40"/>
      <point x="1136" y="-40" type="curve"/>
      <point x="1630" y="-40"/>
      <point x="2022" y="292"/>
      <point x="2030" y="744" type="curve"/>
      <point x="1508" y="744" type="line"/>
      <point x="1500" y="546"/>
      <point x="1344" y="416"/>
    </contour>
    <contour>
      <point x="1068" y="2580" type="move" name="marktop"/>
    </contour>
    <contour>
      <point x="2140" y="2580" type="move" name="top0315"/>
    </contour>
    <contour>
      <point x="1068" y="2580" type="move" name="top"/>
    </contour>
    <contour>
      <point x="2140" y="3200" type="move" name="top_dd"/>
    </contour>
    <contour>
      <point x="2140" y="-814" type="move" name="bottom_dd"/>
    </contour>
    <contour>
      <point x="1102" y="-6" type="move" name="bottom"/>
    </contour>
  </outline>
</glyph>
<glyph name="d" format="1">
  <advance width="2310"/>
  <unicode hex="0064"/>
  <outline>
    <contour>
      <point x="1520" y="472" type="line"/>
      <point x="1574" y="0" type="line"/>
      <point x="2076" y="0" type="line"/>
      <point x="2076" y="3072" type="line"/>
      <point x="1520" y="3072" type="line"/>
    </contour>
    <contour>
      <point x="140" y="1056" type="line"/>
      <point x="140" y="426"/>
      <point x="454" y="-40"/>
      <point x="986" y="-40" type="curve" smooth="yes"/>
      <point x="1508" y="-40"/>
      <point x="1756" y="424"/>
      <point x="1830" y="1034" type="curve"/>
      <point x="1830" y="1108" type="line"/>
      <point x="1756" y="1744"/>
      <point x="1508" y="2204"/>
      <point x="990" y="2204" type="curve" smooth="yes"/>
      <point x="454" y="2204"/>
      <point x="140" y="1756"/>
      <point x="140" y="1098" type="curve" smooth="yes"/>
    </contour>
    <contour>
      <point x="694" y="1098" type="line"/>
      <point x="694" y="1460"/>
      <point x="816" y="1744"/>
      <point x="1130" y="1744" type="curve" smooth="yes"/>
      <point x="1430" y="1744"/>
      <point x="1572" y="1532"/>
      <point x="1596" y="1198" type="curve"/>
      <point x="1596" y="944" type="line"/>
      <point x="1566" y="638"/>
      <point x="1428" y="420"/>
      <point x="1126" y="420" type="curve" smooth="yes"/>
      <point x="810" y="420"/>
      <point x="694" y="702"/>
      <point x="694" y="1056" type="curve" smooth="yes"/>
    </contour>
    <contour>
      <point x="2310" y="3200" type="move" name="top_dd"/>
    </contour>
    <contour>
      <point x="1698" y="2612" type="move" name="cross"/>
    </contour>
    <contour>
      <point x="1188" y="0" type="move" name="bottom"/>
    </contour>
    <contour>
      <point x="2310" y="-814" type="move" name="bottom_dd"/>
    </contour>
    <contour>
      <point x="2310" y="3208" type="move" name="top0315"/>
    </contour>
    <contour>
      <point x="2300" y="3072" type="move" name="caron"/>
    </contour>
    <contour>
      <point x="1010" y="3208" type="move" name="top"/>
    </contour>
  </outline>
</glyph>
<glyph name="e" format="1">
  <advance width="2210"/>
  <unicode hex="0065"/>
  <outline>
    <contour>
      <point x="1216" y="-40" type="curve"/>
      <point x="1640" y="-40"/>
      <point x="1920" y="156"/>
      <point x="2056" y="354" type="curve"/>
      <point x="1778" y="662" type="line"/>
      <point x="1648" y="498"/>
      <point x="1468" y="416"/>
      <point x="1250" y="416" type="curve" smooth="yes"/>
      <point x="908" y="416"/>
      <point x="706" y="662"/>
      <point x="706" y="1008" type="curve" smooth="yes"/>
      <point x="706" y="1086" type="line" smooth="yes"/>
      <point x="706" y="1472"/>
      <point x="844" y="1748"/>
      <point x="1150" y="1748" type="curve"/>
      <point x="1432" y="1748"/>
      <point x="1546" y="1566"/>
      <point x="1554" y="1334" type="curve"/>
      <point x="1554" y="1288" type="line"/>
      <point x="398" y="1288" type="line"/>
      <point x="398" y="900" type="line"/>
      <point x="2100" y="900" type="line"/>
      <point x="2100" y="1140" type="line" smooth="yes"/>
      <point x="2100" y="1778"/>
      <point x="1778" y="2204"/>
      <point x="1154" y="2204" type="curve" smooth="yes"/>
      <point x="550" y="2204"/>
      <point x="152" y="1744"/>
      <point x="152" y="1086" type="curve" smooth="yes"/>
      <point x="152" y="1008" type="line" smooth="yes"/>
      <point x="152" y="428"/>
      <point x="550" y="-40"/>
    </contour>
    <contour>
      <point x="1700" y="62" type="move" name="ogonek"/>
    </contour>
    <contour>
      <point x="2210" y="3200" type="move" name="top_dd"/>
    </contour>
    <contour>
      <point x="1138" y="0" type="move" name="bottom"/>
    </contour>
    <contour>
      <point x="2210" y="-814" type="move" name="bottom_dd"/>
    </contour>
    <contour>
      <point x="2210" y="2582" type="move" name="top0315"/>
    </contour>
    <contour>
      <point x="1832" y="1308" type="move" name="rhotichook"/>
    </contour>
    <contour>
      <point x="1094" y="2582" type="move" name="top"/>
    </contour>
  </outline>
</glyph>
<glyph name="f" format="1">
  <advance width="1464"/>
  <unicode hex="0066"/>
  <outline>
    <contour>
      <point x="946" y="0" type="line"/>
      <point x="946" y="2354" type="line"/>
      <point x="946" y="2548"/>
      <point x="1066" y="2654"/>
      <point x="1278" y="2654" type="curve" smooth="yes"/>
      <point x="1348" y="2654"/>
      <point x="1408" y="2648"/>
      <point x="1458" y="2636" type="curve"/>
      <point x="1466" y="3076" type="line"/>
      <point x="1374" y="3098"/>
      <point x="1278" y="3114"/>
      <point x="1176" y="3114" type="curve" smooth="yes"/>
      <point x="692" y="3114"/>
      <point x="390" y="2846"/>
      <point x="390" y="2354" type="curve"/>
      <point x="390" y="0" type="line"/>
    </contour>
    <contour>
      <point x="1380" y="2164" type="line"/>
      <point x="66" y="2164" type="line"/>
      <point x="66" y="1750" type="line"/>
      <point x="1380" y="1750" type="line"/>
    </contour>
    <contour>
      <point x="1464" y="3386" type="move" name="top0315"/>
    </contour>
    <contour>
      <point x="1464" y="3200" type="move" name="top_dd"/>
    </contour>
    <contour>
      <point x="928" y="3386" type="move" name="top"/>
    </contour>
    <contour>
      <point x="1464" y="-814" type="move" name="bottom_dd"/>
    </contour>
    <contour>
      <point x="660" y="20" type="move" name="bottom"/>
    </contour>
  </outline>
</glyph>
<glyph name="g" format="1">
  <advance width="2336"/>
  <unicode hex="0067"/>
  <outline>
    <contour>
      <point x="1604" y="2164" type="line"/>
      <point x="1550" y="1664" type="line"/>
      <point x="1550" y="38" type="line" smooth="yes"/>
      <point x="1550" y="-254"/>
      <point x="1364" y="-416"/>
      <point x="1054" y="-416" type="curve" smooth="yes"/>
      <point x="846" y="-416"/>
      <point x="662" y="-328"/>
      <point x="522" y="-172" type="curve"/>
      <point x="274" y="-516" type="line"/>
      <point x="460" y="-752"/>
      <point x="824" y="-856"/>
      <point x="1080" y="-856" type="curve" smooth="yes"/>
      <point x="1690" y="-856"/>
      <point x="2106" y="-534"/>
      <point x="2106" y="42" type="curve" smooth="yes"/>
      <point x="2106" y="2164" type="line"/>
    </contour>
    <contour>
      <point x="144" y="1056" type="line"/>
      <point x="144" y="496"/>
      <point x="478" y="80"/>
      <point x="1016" y="80" type="curve" smooth="yes"/>
      <point x="1552" y="80"/>
      <point x="1784" y="540"/>
      <point x="1860" y="1052" type="curve"/>
      <point x="1860" y="1108" type="line"/>
      <point x="1784" y="1744"/>
      <point x="1592" y="2204"/>
      <point x="1020" y="2204" type="curve" smooth="yes"/>
      <point x="478" y="2204"/>
      <point x="144" y="1756"/>
      <point x="144" y="1098" type="curve" smooth="yes"/>
    </contour>
    <contour>
      <point x="700" y="1098" type="line"/>
      <point x="700" y="1460"/>
      <point x="846" y="1744"/>
      <point x="1160" y="1744" type="curve" smooth="yes"/>
      <point x="1476" y="1744"/>
      <point x="1616" y="1532"/>
      <point x="1638" y="1198" type="curve"/>
      <point x="1638" y="976" type="line"/>
      <point x="1608" y="682"/>
      <point x="1476" y="472"/>
      <point x="1156" y="472" type="curve" smooth="yes"/>
      <point x="840" y="472"/>
      <point x="700" y="732"/>
      <point x="700" y="1056" type="curve" smooth="yes"/>
    </contour>
    <contour>
      <point x="2336" y="2580" type="move" name="top0315"/>
    </contour>
    <contour>
      <point x="2336" y="3200" type="move" name="top_dd"/>
    </contour>
    <contour>
      <point x="1108" y="2580" type="move" name="top"/>
    </contour>
    <contour>
      <point x="2336" y="-814" type="move" name="bottom_dd"/>
    </contour>
    <contour>
      <point x="1108" y="-894" type="move" name="bottom"/>
    </contour>
  </outline>
</glyph>
<glyph name="h" format="1">
  <advance width="2288"/>
  <unicode hex="0068"/>
  <outline>
    <contour>
      <point x="2068" y="0" type="line" smooth="yes"/>
      <point x="2068" y="0"/>
      <point x="2068" y="0"/>
      <point x="2068" y="0" type="curve" smooth="yes"/>
      <point x="2068" y="1380" type="line" smooth="yes"/>
      <point x="2068" y="1988"/>
      <point x="1794" y="2204"/>
      <point x="1384" y="2204" type="curve" smooth="yes"/>
      <point x="870" y="2204"/>
      <point x="528" y="1796"/>
      <point x="528" y="1152" type="curve"/>
      <point x="688" y="1156" type="line"/>
      <point x="688" y="1490"/>
      <point x="850" y="1744"/>
      <point x="1158" y="1744" type="curve" smooth="yes"/>
      <point x="1386" y="1744"/>
      <point x="1512" y="1662"/>
      <point x="1512" y="1382" type="curve" smooth="yes"/>
      <point x="1512" y="0" type="line" smooth="yes"/>
      <point x="1512" y="0"/>
      <point x="1512" y="0"/>
      <point x="1512" y="0" type="curve" smooth="yes"/>
    </contour>
    <contour>
      <point x="774" y="0" type="line" smooth="yes"/>
      <point x="774" y="0"/>
      <point x="774" y="0"/>
      <point x="774" y="0" type="curve" smooth="yes"/>
      <point x="774" y="1702" type="line"/>
      <point x="774" y="3072" type="line" smooth="yes"/>
      <point x="774" y="3072"/>
      <point x="774" y="3072"/>
      <point x="774" y="3072" type="curve" smooth="yes"/>
      <point x="220" y="3072" type="line" smooth="yes"/>
      <point x="220" y="3072"/>
      <point x="220" y="3072"/>
      <point x="220" y="3072" type="curve" smooth="yes"/>
      <point x="220" y="0" type="line" smooth="yes"/>
      <point x="220" y="0"/>
      <point x="214" y="0"/>
      <point x="220" y="0" type="curve" smooth="yes"/>
    </contour>
    <contour>
      <point x="2288" y="3200" type="move" name="top_dd"/>
    </contour>
    <contour>
      <point x="582" y="2606" type="move" name="cross"/>
    </contour>
    <contour>
      <point x="1168" y="20" type="move" name="bottom"/>
    </contour>
    <contour>
      <point x="2288" y="-814" type="move" name="bottom_dd"/>
    </contour>
    <contour>
      <point x="2288" y="3334" type="move" name="top0315"/>
    </contour>
    <contour>
      <point x="1044" y="3334" type="move" name="top"/>
    </contour>
    <contour>
      <point x="2068" y="0" type="move" name="right"/>
    </contour>
  </outline>
</glyph>
<glyph name="i" format="1">
  <advance width="1110"/>
  <unicode hex="0069"/>
  <outline>
    <component base="idotless"/>
    <component base="dotaccentcomb" xOffset="130" yOffset="4"/>
    <contour>
      <point x="738" y="0" type="move" name="ogonek"/>
    </contour>
    <contour>
      <point x="1076" y="3200" type="move" name="top_dd"/>
    </contour>
    <contour>
      <point x="538" y="20" type="move" name="bottom"/>
    </contour>
    <contour>
      <point x="1076" y="-814" type="move" name="bottom_dd"/>
    </contour>
    <contour>
      <point x="1076" y="3200" type="move" name="top0315"/>
    </contour>
    <contour>
      <point x="654" y="1308" type="move" name="rhotichook"/>
    </contour>
    <contour>
      <point x="538" y="3200" type="move" name="top"/>
    </contour>
  </outline>
</glyph>
<glyph name="k" format="1">
  <advance width="2176"/>
  <unicode hex="006B"/>
  <outline>
    <contour>
      <point x="786" y="3074" type="line"/>
      <point x="230" y="3074" type="line"/>
      <point x="230" y="0" type="line"/>
      <point x="786" y="0" type="line"/>
    </contour>
    <contour>
      <point x="2138" y="2164" type="line"/>
      <point x="1472" y="2164" type="line"/>
      <point x="908" y="1512" type="line"/>
      <point x="508" y="1000" type="line"/>
      <point x="688" y="574" type="line"/>
      <point x="1204" y="1092" type="line"/>
    </contour>
    <contour>
      <point x="1572" y="0" type="line"/>
      <point x="2212" y="0" type="line"/>
      <point x="1294" y="1348" type="line"/>
      <point x="922" y="996" type="line"/>
    </contour>
    <contour>
      <point x="2176" y="3200" type="move" name="top_dd"/>
    </contour>
    <contour>
      <point x="510" y="2590" type="move" name="cross"/>
    </contour>
    <contour>
      <point x="1276" y="3208" type="move" name="marktop"/>
    </contour>
    <contour>
      <point x="1118" y="86" type="move" name="bottom"/>
    </contour>
    <contour>
      <point x="2176" y="-814" type="move" name="bottom_dd"/>
    </contour>
    <contour>
      <point x="1916" y="3208" type="move" name="top0315"/>
    </contour>
    <contour>
      <point x="1276" y="3208" type="move" name="top"/>
    </contour>
  </outline>
</glyph>
<glyph name="l" format="1">
  <advance width="1076"/>
  <unicode hex="006C"/>
  <outline>
    <contour>
      <point x="816" y="3072" type="line"/>
      <point x="260" y="3072" type="line"/>
      <point x="260" y="0" type="line"/>
      <point x="816" y="0" type="line"/>
    </contour>
    <contour>
      <point x="260" y="0" type="line"/>
      <point x="816" y="0" type="line"/>
      <point x="816" y="462" type="line"/>
      <point x="260" y="462" type="line"/>
    </contour>
    <contour>
      <point x="260" y="2610" type="line"/>
      <point x="816" y="2610" type="line"/>
      <point x="816" y="3072" type="line"/>
      <point x="260" y="3072" type="line"/>
    </contour>
    <contour>
      <point x="1076" y="3200" type="move" name="top_dd"/>
    </contour>
    <contour>
      <point x="538" y="20" type="move" name="bottom"/>
    </contour>
    <contour>
      <point x="1292" y="3008" type="move" name="marktop"/>
    </contour>
    <contour>
      <point x="1076" y="-814" type="move" name="bottom_dd"/>
    </contour>
    <contour>
      <point x="1076" y="3368" type="move" name="top0315"/>
    </contour>
    <contour>
      <point x="1050" y="3072" type="move" name="caron"/>
    </contour>
    <contour>
      <point x="538" y="3368" type="move" name="top"/>
    </contour>
    <contour>
      <point x="1028" y="1554" type="move" name="dot"/>
    </contour>
  </outline>
</glyph>
<glyph name="m" format="1">
  <advance width="3552"/>
  <unicode hex="006D"/>
  <outline>
    <contour>
      <point x="784" y="1716" type="line"/>
      <point x="752" y="2164" type="line"/>
      <point x="230" y="2164" type="line"/>
      <point x="230" y="0" type="line"/>
      <point x="784" y="0" type="line"/>
    </contour>
    <contour>
      <point x="702" y="1156" type="line"/>
      <point x="702" y="1490"/>
      <point x="836" y="1744"/>
      <point x="1154" y="1744" type="curve" smooth="yes"/>
      <point x="1368" y="1744"/>
      <point x="1498" y="1668"/>
      <point x="1498" y="1378" type="curve" smooth="yes"/>
      <point x="1498" y="0" type="line"/>
      <point x="2052" y="0" type="line"/>
      <point x="2052" y="1444" type="line" smooth="yes"/>
      <point x="2052" y="1984"/>
      <point x="1778" y="2204"/>
      <point x="1390" y="2204" type="curve" smooth="yes"/>
      <point x="828" y="2204"/>
      <point x="534" y="1760"/>
      <point x="534" y="1152" type="curve"/>
    </contour>
    <contour>
      <point x="2008" y="1222" type="line"/>
      <point x="2008" y="1518"/>
      <point x="2148" y="1744"/>
      <point x="2424" y="1744" type="curve" smooth="yes"/>
      <point x="2634" y="1744"/>
      <point x="2766" y="1676"/>
      <point x="2766" y="1384" type="curve" smooth="yes"/>
      <point x="2766" y="0" type="line"/>
      <point x="3322" y="0" type="line"/>
      <point x="3322" y="1382" type="line" smooth="yes"/>
      <point x="3322" y="1982"/>
      <point x="3050" y="2204"/>
      <point x="2624" y="2204" type="curve" smooth="yes"/>
      <point x="2070" y="2204"/>
      <point x="1784" y="1758"/>
      <point x="1784" y="1192" type="curve"/>
    </contour>
    <contour>
      <point x="1812" y="2580" type="move" name="marktop"/>
    </contour>
    <contour>
      <point x="3552" y="2580" type="move" name="top0315"/>
    </contour>
    <contour>
      <point x="1812" y="2580" type="move" name="top"/>
    </contour>
    <contour>
      <point x="3552" y="3200" type="move" name="top_dd"/>
    </contour>
    <contour>
      <point x="3552" y="-814" type="move" name="bottom_dd"/>
    </contour>
    <contour>
      <point x="1802" y="20" type="move" name="bottom"/>
    </contour>
  </outline>
</glyph>
<glyph name="o" format="1">
  <advance width="2320"/>
  <unicode hex="006F"/>
  <outline>
    <contour>
      <point x="140" y="1060" type="line"/>
      <point x="140" y="430"/>
      <point x="512" y="-40"/>
      <point x="1162" y="-40" type="curve" smooth="yes"/>
      <point x="1810" y="-40"/>
      <point x="2180" y="430"/>
      <point x="2180" y="1060" type="curve"/>
      <point x="2180" y="1102" type="line"/>
      <point x="2180" y="1732"/>
      <point x="1810" y="2204"/>
      <point x="1158" y="2204" type="curve" smooth="yes"/>
      <point x="512" y="2204"/>
      <point x="140" y="1732"/>
      <point x="140" y="1102" type="curve"/>
    </contour>
    <contour>
      <point x="694" y="1102" type="line"/>
      <point x="694" y="1450"/>
      <point x="826" y="1748"/>
      <point x="1158" y="1748" type="curve" smooth="yes"/>
      <point x="1494" y="1748"/>
      <point x="1624" y="1450"/>
      <point x="1624" y="1102" type="curve"/>
      <point x="1624" y="1060" type="line"/>
      <point x="1624" y="704"/>
      <point x="1494" y="416"/>
      <point x="1162" y="416" type="curve" smooth="yes"/>
      <point x="824" y="416"/>
      <point x="694" y="704"/>
      <point x="694" y="1060" type="curve"/>
    </contour>
    <contour>
      <point x="2320" y="2580" type="move" name="top0315"/>
    </contour>
    <contour>
      <point x="2320" y="3200" type="move" name="top_dd"/>
    </contour>
    <contour>
      <point x="1152" y="2580" type="move" name="top"/>
    </contour>
    <contour>
      <point x="1160" y="-14" type="move" name="bottom"/>
    </contour>
    <contour>
      <point x="2320" y="-814" type="move" name="bottom_dd"/>
    </contour>
    <contour>
      <point x="1946" y="1308" type="move" name="rhotichook"/>
    </contour>
  </outline>
</glyph>
<glyph name="q" format="1">
  <advance width="2318"/>
  <unicode hex="0071"/>
  <outline>
    <contour>
      <point x="1518" y="-836" type="line"/>
      <point x="2076" y="-836" type="line"/>
      <point x="2076" y="2164" type="line"/>
      <point x="1586" y="2164" type="line"/>
      <point x="1518" y="1722" type="line"/>
    </contour>
    <contour>
      <point x="140" y="1060" type="line"/>
      <point x="140" y="430"/>
      <point x="446" y="-40"/>
      <point x="988" y="-40" type="curve" smooth="yes"/>
      <point x="1526" y="-40"/>
      <point x="1762" y="428"/>
      <point x="1838" y="1038" type="curve"/>
      <point x="1838" y="1112" type="line"/>
      <point x="1762" y="1748"/>
      <point x="1526" y="2204"/>
      <point x="992" y="2204" type="curve" smooth="yes"/>
      <point x="446" y="2204"/>
      <point x="140" y="1760"/>
      <point x="140" y="1102" type="curve" smooth="yes"/>
    </contour>
    <contour>
      <point x="694" y="1102" type="line"/>
      <point x="694" y="1464"/>
      <point x="818" y="1748"/>
      <point x="1134" y="1748" type="curve" smooth="yes"/>
      <point x="1450" y="1748"/>
      <point x="1580" y="1536"/>
      <point x="1602" y="1202" type="curve"/>
      <point x="1602" y="948" type="line"/>
      <point x="1572" y="642"/>
      <point x="1450" y="416"/>
      <point x="1130" y="416" type="curve" smooth="yes"/>
      <point x="814" y="416"/>
      <point x="694" y="706"/>
      <point x="694" y="1060" type="curve" smooth="yes"/>
    </contour>
    <contour>
      <point x="1074" y="2580" type="move" name="marktop"/>
    </contour>
    <contour>
      <point x="2318" y="2580" type="move" name="top0315"/>
    </contour>
    <contour>
      <point x="1074" y="2580" type="move" name="top"/>
    </contour>
    <contour>
      <point x="2318" y="3200" type="move" name="top_dd"/>
    </contour>
    <contour>
      <point x="2318" y="-814" type="move" name="bottom_dd"/>
    </contour>
    <contour>
      <point x="1804" y="-814" type="move" name="bottom"/>
    </contour>
  </outline>
</glyph>
<glyph name="r" format="1">
  <advance width="1482"/>
  <unicode hex="0072"/>
  <outline>
    <contour>
      <point x="784" y="1692" type="line"/>
      <point x="754" y="2164" type="line"/>
      <point x="230" y="2164" type="line"/>
      <point x="230" y="0" type="line"/>
      <point x="784" y="0" type="line"/>
    </contour>
    <contour>
      <point x="1432" y="2178" type="line"/>
      <point x="1392" y="2194"/>
      <point x="1314" y="2204"/>
      <point x="1254" y="2204" type="curve"/>
      <point x="840" y="2204"/>
      <point x="620" y="1792"/>
      <point x="620" y="1234" type="curve"/>
      <point x="736" y="1200" type="line"/>
      <point x="750" y="1488"/>
      <point x="898" y="1652"/>
      <point x="1218" y="1652" type="curve"/>
      <point x="1284" y="1652"/>
      <point x="1366" y="1644"/>
      <point x="1426" y="1636" type="curve"/>
    </contour>
    <contour>
      <point x="1482" y="2580" type="move" name="top0315"/>
    </contour>
    <contour>
      <point x="1482" y="3200" type="move" name="top_dd"/>
    </contour>
    <contour>
      <point x="820" y="2580" type="move" name="top"/>
    </contour>
    <contour>
      <point x="1482" y="-814" type="move" name="bottom_dd"/>
    </contour>
    <contour>
      <point x="518" y="20" type="move" name="bottom"/>
    </contour>
  </outline>
</glyph>
<glyph name="s" format="1">
  <advance width="2110"/>
  <unicode hex="0073"/>
  <outline>
    <contour>
      <point x="1412" y="598" type="curve" smooth="yes"/>
      <point x="1412" y="462"/>
      <point x="1290" y="366"/>
      <point x="1062" y="366" type="curve" smooth="yes"/>
      <point x="852" y="366"/>
      <point x="662" y="456"/>
      <point x="652" y="688" type="curve"/>
      <point x="122" y="688" type="line"/>
      <point x="122" y="336"/>
      <point x="448" y="-40"/>
      <point x="1052" y="-40" type="curve" smooth="yes"/>
      <point x="1600" y="-40"/>
      <point x="1952" y="238"/>
      <point x="1952" y="622" type="curve"/>
      <point x="1952" y="1046"/>
      <point x="1618" y="1204"/>
      <point x="1140" y="1298" type="curve" smooth="yes"/>
      <point x="826" y="1358"/>
      <point x="726" y="1432"/>
      <point x="726" y="1562" type="curve"/>
      <point x="726" y="1694"/>
      <point x="840" y="1800"/>
      <point x="1046" y="1800" type="curve" smooth="yes"/>
      <point x="1280" y="1800"/>
      <point x="1388" y="1674"/>
      <point x="1388" y="1508" type="curve"/>
      <point x="1944" y="1508" type="line"/>
      <point x="1944" y="1910"/>
      <point x="1604" y="2204"/>
      <point x="1048" y="2204" type="curve" smooth="yes"/>
      <point x="514" y="2204"/>
      <point x="192" y="1894"/>
      <point x="192" y="1534" type="curve"/>
      <point x="192" y="1162"/>
      <point x="516" y="974"/>
      <point x="964" y="880" type="curve" smooth="yes"/>
      <point x="1332" y="802"/>
      <point x="1412" y="724"/>
    </contour>
    <contour>
      <point x="2110" y="2580" type="move" name="top0315"/>
    </contour>
    <contour>
      <point x="2110" y="3200" type="move" name="top_dd"/>
    </contour>
    <contour>
      <point x="1068" y="2580" type="move" name="top"/>
    </contour>
    <contour>
      <point x="2110" y="-814" type="move" name="bottom_dd"/>
    </contour>
    <contour>
      <point x="1068" y="-20" type="move" name="bottom"/>
    </contour>
  </outline>
</glyph>
<glyph name="t" format="1">
  <advance width="1394"/>
  <unicode hex="0074"/>
  <outline>
    <contour>
      <point x="1296" y="2164" type="line"/>
      <point x="20" y="2164" type="line"/>
      <point x="20" y="1750" type="line"/>
      <point x="1296" y="1750" type="line"/>
    </contour>
    <contour>
      <point x="346" y="2634" type="line"/>
      <point x="346" y="596" type="line"/>
      <point x="346" y="138"/>
      <point x="588" y="-40"/>
      <point x="952" y="-40" type="curve" smooth="yes"/>
      <point x="1096" y="-40"/>
      <point x="1208" y="-18"/>
      <point x="1314" y="12" type="curve"/>
      <point x="1314" y="442" type="line"/>
      <point x="1260" y="434"/>
      <point x="1196" y="426"/>
      <point x="1124" y="426" type="curve" smooth="yes"/>
      <point x="980" y="426"/>
      <point x="902" y="468"/>
      <point x="902" y="652" type="curve"/>
      <point x="902" y="2634" type="line"/>
    </contour>
    <contour>
      <point x="1380" y="3200" type="move" name="top_dd"/>
    </contour>
    <contour>
      <point x="624" y="1246" type="move" name="cross"/>
    </contour>
    <contour>
      <point x="1312" y="2608" type="move" name="marktop"/>
    </contour>
    <contour>
      <point x="874" y="0" type="move" name="bottom"/>
    </contour>
    <contour>
      <point x="1380" y="-814" type="move" name="bottom_dd"/>
    </contour>
    <contour>
      <point x="1380" y="2952" type="move" name="top0315"/>
    </contour>
    <contour>
      <point x="1182" y="3334" type="move" name="caron"/>
    </contour>
    <contour>
      <point x="666" y="2952" type="move" name="top"/>
    </contour>
  </outline>
</glyph>
<glyph name="v" format="1">
  <advance width="2060"/>
  <unicode hex="0076"/>
  <outline>
    <contour>
      <point x="956" y="426" type="line"/>
      <point x="934" y="0" type="line"/>
      <point x="1288" y="0" type="line"/>
      <point x="2022" y="2164" type="line"/>
      <point x="1444" y="2164" type="line"/>
    </contour>
    <contour>
      <point x="610" y="2164" type="line"/>
      <point x="30" y="2164" type="line"/>
      <point x="768" y="0" type="line"/>
      <point x="1122" y="0" type="line"/>
      <point x="1106" y="424" type="line"/>
    </contour>
    <contour>
      <point x="2060" y="2560" type="move" name="top0315"/>
    </contour>
    <contour>
      <point x="2060" y="3200" type="move" name="top_dd"/>
    </contour>
    <contour>
      <point x="1038" y="2560" type="move" name="top"/>
    </contour>
    <contour>
      <point x="2060" y="-814" type="move" name="bottom_dd"/>
    </contour>
    <contour>
      <point x="1036" y="20" type="move" name="bottom"/>
    </contour>
  </outline>
</glyph>
<glyph name="y" format="1">
  <advance width="2042"/>
  <unicode hex="0079"/>
  <outline>
    <contour>
      <point x="864" y="246" type="line"/>
      <point x="702" y="-176" type="line" smooth="yes"/>
      <point x="636" y="-342"/>
      <point x="542" y="-414"/>
      <point x="312" y="-414" type="curve" smooth="yes"/>
      <point x="286" y="-414"/>
      <point x="250" y="-414"/>
      <point x="222" y="-412" type="curve"/>
      <point x="222" y="-842" type="line"/>
      <point x="308" y="-866"/>
      <point x="372" y="-878"/>
      <point x="472" y="-878" type="curve" smooth="yes"/>
      <point x="922" y="-878"/>
      <point x="1084" y="-546"/>
      <point x="1160" y="-330" type="curve" smooth="yes"/>
      <point x="2030" y="2164" type="line"/>
      <point x="1436" y="2164" type="line"/>
    </contour>
    <contour>
      <point x="610" y="2164" type="line"/>
      <point x="12" y="2164" type="line"/>
      <point x="790" y="-56" type="line"/>
      <point x="1168" y="-12" type="line"/>
      <point x="1082" y="608" type="line"/>
    </contour>
    <contour>
      <point x="2042" y="3200" type="move" name="top_dd"/>
    </contour>
    <contour>
      <point x="1570" y="-226" type="move" name="bottom"/>
    </contour>
    <contour>
      <point x="1038" y="2580" type="move" name="marktop"/>
    </contour>
    <contour>
      <point x="2042" y="-814" type="move" name="bottom_dd"/>
    </contour>
    <contour>
      <point x="2042" y="2580" type="move" name="top0315"/>
    </contour>
    <contour>
      <point x="1576" y="1308" type="move" name="rhotichook"/>
    </contour>
    <contour>
      <point x="1038" y="2580" type="move" name="top"/>
    </contour>
  </outline>
</glyph>
<glyph name="braceleft" format="1">
  <advance width="1358"/>
  <unicode hex="007B"/>
  <outline>
    <contour>
      <point x="1184" y="3194" type="line"/>
      <point x="634" y="3040"/>
      <point x="464" y="2684"/>
      <point x="464" y="2264" type="curve"/>
      <point x="464" y="1858" type="line"/>
      <point x="464" y="1604"/>
      <point x="358" y="1440"/>
      <point x="100" y="1440" type="curve"/>
      <point x="100" y="1132" type="line"/>
      <point x="716" y="1132"/>
      <point x="968" y="1452"/>
      <point x="968" y="1858" type="curve"/>
      <point x="968" y="2264" type="line"/>
      <point x="968" y="2552"/>
      <point x="1042" y="2790"/>
      <point x="1292" y="2878" type="curve"/>
    </contour>
    <contour>
      <point x="1292" y="-402" type="line"/>
      <point x="1042" y="-314"/>
      <point x="968" y="-76"/>
      <point x="968" y="212" type="curve" smooth="yes"/>
      <point x="968" y="618" type="line" smooth="yes"/>
      <point x="968" y="1024"/>
      <point x="716" y="1344"/>
      <point x="100" y="1344" type="curve"/>
      <point x="100" y="1034" type="line"/>
      <point x="358" y="1034"/>
      <point x="464" y="870"/>
      <point x="464" y="618" type="curve" smooth="yes"/>
      <point x="464" y="212" type="line" smooth="yes"/>
      <point x="464" y="-208"/>
      <point x="634" y="-566"/>
      <point x="1184" y="-720" type="curve"/>
    </contour>
  </outline>
</glyph>
<glyph name="exclamdown" format="1">
  <advance width="1140"/>
  <unicode hex="00A1"/>
  <outline>
    <contour>
      <point x="280" y="-736" type="line"/>
      <point x="868" y="-736" type="line"/>
      <point x="806" y="1284" type="line"/>
      <point x="342" y="1284" type="line"/>
    </contour>
    <contour>
      <point x="884" y="1904" type="curve" smooth="yes"/>
      <point x="884" y="2074"/>
      <point x="764" y="2204"/>
      <point x="572" y="2204" type="curve" smooth="yes"/>
      <point x="380" y="2204"/>
      <point x="260" y="2074"/>
      <point x="260" y="1904" type="curve" smooth="yes"/>
      <point x="260" y="1734"/>
      <point x="380" y="1602"/>
      <point x="572" y="1602" type="curve" smooth="yes"/>
      <point x="764" y="1602"/>
      <point x="884" y="1734"/>
    </contour>
  </outline>
</glyph>
<glyph name="cent" format="1">
  <advance width="2344"/>
  <unicode hex="00A2"/>
  <outline>
    <contour>
      <point x="1392" y="2636" type="line"/>
      <point x="992" y="2636" type="line"/>
      <point x="992" y="2052" type="line"/>
      <point x="1392" y="2052" type="line"/>
    </contour>
    <contour>
      <point x="1392" y="92" type="line"/>
      <point x="992" y="92" type="line"/>
      <point x="992" y="-490" type="line"/>
      <point x="1392" y="-490" type="line"/>
    </contour>
    <component base="c" xOffset="30"/>
  </outline>
</glyph>
<glyph name="currency" format="1">
  <advance width="2846"/>
  <unicode hex="00A4"/>
  <outline>
    <contour>
      <point x="610" y="1216" type="curve"/>
      <point x="610" y="1708"/>
      <point x="974" y="2090"/>
      <point x="1430" y="2090" type="curve" smooth="yes"/>
      <point x="1882" y="2090"/>
      <point x="2248" y="1708"/>
      <point x="2248" y="1216" type="curve" smooth="yes"/>
      <point x="2248" y="724"/>
      <point x="1882" y="338"/>
      <point x="1430" y="338" type="curve" smooth="yes"/>
      <point x="974" y="338"/>
      <point x="610" y="724"/>
    </contour>
    <contour>
      <point x="238" y="1216" type="curve"/>
      <point x="238" y="508"/>
      <point x="772" y="-40"/>
      <point x="1430" y="-40" type="curve" smooth="yes"/>
      <point x="2086" y="-40"/>
      <point x="2618" y="508"/>
      <point x="2618" y="1216" type="curve" smooth="yes"/>
      <point x="2618" y="1926"/>
      <point x="2086" y="2468"/>
      <point x="1430" y="2468" type="curve" smooth="yes"/>
      <point x="772" y="2468"/>
      <point x="238" y="1926"/>
    </contour>
    <contour>
      <point x="2700" y="2240" type="line"/>
      <point x="2416" y="2530" type="line"/>
      <point x="2014" y="2118" type="line"/>
      <point x="2296" y="1828" type="line"/>
    </contour>
    <contour>
      <point x="854" y="360" type="line"/>
      <point x="572" y="646" type="line"/>
      <point x="168" y="236" type="line"/>
      <point x="450" y="-52" type="line"/>
    </contour>
    <contour>
      <point x="2416" y="-54" type="line"/>
      <point x="2700" y="236" type="line"/>
      <point x="2296" y="646" type="line"/>
      <point x="2014" y="358" type="line"/>
    </contour>
    <contour>
      <point x="572" y="1828" type="line"/>
      <point x="854" y="2116" type="line"/>
      <point x="450" y="2528" type="line"/>
      <point x="168" y="2240" type="line"/>
    </contour>
  </outline>
</glyph>
<glyph name="dieresis" format="1">
  <advance width="1884"/>
  <unicode hex="00A8"/>
  <outline>
    <contour>
      <point x="226" y="2732" type="curve" smooth="yes"/>
      <point x="226" y="2576"/>
      <point x="332" y="2454"/>
      <point x="512" y="2454" type="curve" smooth="yes"/>
      <point x="692" y="2454"/>
      <point x="798" y="2576"/>
      <point x="798" y="2732" type="curve" smooth="yes"/>
      <point x="798" y="2886"/>
      <point x="692" y="3010"/>
      <point x="512" y="3010" type="curve" smooth="yes"/>
      <point x="332" y="3010"/>
      <point x="226" y="2886"/>
    </contour>
    <contour>
      <point x="1084" y="2730" type="curve" smooth="yes"/>
      <point x="1084" y="2576"/>
      <point x="1188" y="2454"/>
      <point x="1370" y="2454" type="curve" smooth="yes"/>
      <point x="1550" y="2454"/>
      <point x="1656" y="2576"/>
      <point x="1656" y="2730" type="curve" smooth="yes"/>
      <point x="1656" y="2886"/>
      <point x="1550" y="3008"/>
      <point x="1370" y="3008" type="curve" smooth="yes"/>
      <point x="1188" y="3008"/>
      <point x="1084" y="2886"/>
    </contour>
    <contour>
      <point x="940" y="3200" type="move" name="mkmktop_acc"/>
    </contour>
    <contour>
      <point x="940" y="2580" type="move" name="_top"/>
    </contour>
  </outline>
</glyph>
<glyph name="ordfeminine" format="1">
  <advance width="1820"/>
  <unicode hex="00AA"/>
  <outline>
    <contour>
      <point x="1164" y="1722" type="line"/>
      <point x="1164" y="1612"/>
      <point x="1180" y="1504"/>
      <point x="1212" y="1410" type="curve"/>
      <point x="1566" y="1410" type="line"/>
      <point x="1528" y="1526"/>
      <point x="1514" y="1642"/>
      <point x="1514" y="1772" type="curve" smooth="yes"/>
      <point x="1514" y="2400" type="line"/>
      <point x="1514" y="2766"/>
      <point x="1280" y="2952"/>
      <point x="932" y="2952" type="curve" smooth="yes"/>
      <point x="556" y="2952"/>
      <point x="310" y="2756"/>
      <point x="310" y="2486" type="curve"/>
      <point x="656" y="2458" type="line"/>
      <point x="656" y="2586"/>
      <point x="760" y="2656"/>
      <point x="932" y="2656" type="curve" smooth="yes"/>
      <point x="1088" y="2656"/>
      <point x="1164" y="2566"/>
      <point x="1164" y="2402" type="curve"/>
    </contour>
    <contour>
      <point x="1250" y="2300" type="line"/>
      <point x="960" y="2300" type="line"/>
      <point x="500" y="2300"/>
      <point x="278" y="2132"/>
      <point x="278" y="1838" type="curve" smooth="yes"/>
      <point x="278" y="1562"/>
      <point x="456" y="1382"/>
      <point x="776" y="1382" type="curve" smooth="yes"/>
      <point x="1048" y="1382"/>
      <point x="1200" y="1538"/>
      <point x="1260" y="1666" type="curve"/>
      <point x="1224" y="1900" type="line"/>
      <point x="1224" y="1802"/>
      <point x="1024" y="1670"/>
      <point x="862" y="1670" type="curve" smooth="yes"/>
      <point x="702" y="1670"/>
      <point x="628" y="1736"/>
      <point x="628" y="1846" type="curve" smooth="yes"/>
      <point x="628" y="1962"/>
      <point x="730" y="2066"/>
      <point x="962" y="2066" type="curve"/>
      <point x="1252" y="2066" type="line"/>
    </contour>
  </outline>
</glyph>
<glyph name="logicalnot" format="1">
  <advance width="2260"/>
  <unicode hex="00AC"/>
  <outline>
    <contour>
      <point x="1924" y="1610" type="line"/>
      <point x="254" y="1610" type="line"/>
      <point x="254" y="1268" type="line"/>
      <point x="1924" y="1268" type="line"/>
    </contour>
    <contour>
      <point x="1924" y="1456" type="line"/>
      <point x="1524" y="1456" type="line"/>
      <point x="1524" y="748" type="line"/>
      <point x="1924" y="748" type="line"/>
    </contour>
  </outline>
</glyph>
<glyph name="degree" format="1">
  <advance width="1584"/>
  <unicode hex="00B0"/>
  <outline>
    <contour>
      <point x="254" y="2402" type="curve"/>
      <point x="254" y="2102"/>
      <point x="498" y="1860"/>
      <point x="794" y="1860" type="curve" smooth="yes"/>
      <point x="1086" y="1860"/>
      <point x="1326" y="2102"/>
      <point x="1326" y="2402" type="curve" smooth="yes"/>
      <point x="1326" y="2704"/>
      <point x="1086" y="2952"/>
      <point x="794" y="2952" type="curve" smooth="yes"/>
      <point x="498" y="2952"/>
      <point x="254" y="2704"/>
    </contour>
    <contour>
      <point x="542" y="2402" type="curve"/>
      <point x="542" y="2548"/>
      <point x="658" y="2658"/>
      <point x="794" y="2658" type="curve" smooth="yes"/>
      <point x="930" y="2658"/>
      <point x="1036" y="2548"/>
      <point x="1036" y="2402" type="curve" smooth="yes"/>
      <point x="1036" y="2260"/>
      <point x="930" y="2154"/>
      <point x="794" y="2154" type="curve" smooth="yes"/>
      <point x="658" y="2154"/>
      <point x="542" y="2260"/>
    </contour>
  </outline>
</glyph>
<glyph name="plusminus" format="1">
  <advance width="2200"/>
  <unicode hex="00B1"/>
  <outline>
    <contour>
      <point x="2014" y="1874" type="line"/>
      <point x="182" y="1874" type="line"/>
      <point x="182" y="1404" type="line"/>
      <point x="2014" y="1404" type="line"/>
    </contour>
    <contour>
      <point x="1352" y="2570" type="line"/>
      <point x="862" y="2570" type="line"/>
      <point x="862" y="668" type="line"/>
      <point x="1352" y="668" type="line"/>
    </contour>
    <component base="minus" xOffset="-33" yOffset="-598"/>
  </outline>
</glyph>
<glyph name="mu" format="1">
  <advance width="2498"/>
  <unicode hex="00B5"/>
  <outline>
    <contour>
      <point x="1626" y="2164" type="line"/>
      <point x="1626" y="500" type="line"/>
      <point x="1666" y="0" type="line"/>
      <point x="2182" y="0" type="line"/>
      <point x="2182" y="2164" type="line"/>
    </contour>
    <contour>
      <point x="1700" y="1006" type="line"/>
      <point x="1700" y="668"/>
      <point x="1588" y="420"/>
      <point x="1206" y="420" type="curve" smooth="yes"/>
      <point x="986" y="420"/>
      <point x="838" y="508"/>
      <point x="838" y="924" type="curve"/>
      <point x="532" y="924" type="line"/>
      <point x="594" y="392" type="line"/>
      <point x="706" y="90"/>
      <point x="906" y="-42"/>
      <point x="1196" y="-42" type="curve" smooth="yes"/>
      <point x="1686" y="-42"/>
      <point x="1920" y="404"/>
      <point x="1920" y="1010" type="curve"/>
    </contour>
    <contour>
      <point x="284" y="2164" type="line"/>
      <point x="284" y="-832" type="line"/>
      <point x="838" y="-832" type="line"/>
      <point x="838" y="2164" type="line"/>
    </contour>
  </outline>
</glyph>
<glyph name="cedilla" format="1">
  <advance width="1088"/>
  <unicode hex="00B8"/>
  <outline>
    <contour>
      <point x="264" y="14" type="line"/>
      <point x="202" y="-272" type="line"/>
      <point x="406" y="-286"/>
      <point x="492" y="-320"/>
      <point x="492" y="-430" type="curve" smooth="yes"/>
      <point x="492" y="-548"/>
      <point x="390" y="-596"/>
      <point x="254" y="-596" type="curve"/>
      <point x="268" y="-920" type="line"/>
      <point x="720" y="-920"/>
      <point x="956" y="-732"/>
      <point x="956" y="-448" type="curve" smooth="yes"/>
      <point x="956" y="-218"/>
      <point x="804" y="-128"/>
      <point x="656" y="-102" type="curve"/>
      <point x="678" y="14" type="line"/>
    </contour>
    <contour>
      <point x="464" y="0" type="move" name="_bottom"/>
    </contour>
    <contour>
      <point x="464" y="-924" type="move" name="mkmkbottom_acc"/>
    </contour>
  </outline>
</glyph>
<glyph name="ordmasculine" format="1">
  <advance width="1874"/>
  <unicode hex="00BA"/>
  <outline>
    <contour>
      <point x="238" y="2088" type="line"/>
      <point x="238" y="1674"/>
      <point x="506" y="1380"/>
      <point x="934" y="1380" type="curve" smooth="yes"/>
      <point x="1360" y="1380"/>
      <point x="1624" y="1674"/>
      <point x="1624" y="2088" type="curve"/>
      <point x="1624" y="2242" type="line"/>
      <point x="1624" y="2656"/>
      <point x="1360" y="2952"/>
      <point x="930" y="2952" type="curve" smooth="yes"/>
      <point x="506" y="2952"/>
      <point x="238" y="2656"/>
      <point x="238" y="2242" type="curve"/>
    </contour>
    <contour>
      <point x="588" y="2242" type="line"/>
      <point x="588" y="2476"/>
      <point x="700" y="2656"/>
      <point x="930" y="2656" type="curve" smooth="yes"/>
      <point x="1162" y="2656"/>
      <point x="1274" y="2476"/>
      <point x="1274" y="2242" type="curve"/>
      <point x="1274" y="2088" type="line"/>
      <point x="1274" y="1850"/>
      <point x="1162" y="1672"/>
      <point x="934" y="1672" type="curve" smooth="yes"/>
      <point x="700" y="1672"/>
      <point x="588" y="1850"/>
      <point x="588" y="2088" type="curve"/>
    </contour>
  </outline>
</glyph>
<glyph name="questiondown" format="1">
  <advance width="2028"/>
  <unicode hex="00BF"/>
  <outline>
    <contour>
      <point x="816" y="1292" type="line"/>
      <point x="814" y="1086"/>
      <point x="784" y="962"/>
      <point x="636" y="826" type="curve" smooth="yes"/>
      <point x="382" y="584"/>
      <point x="138" y="362"/>
      <point x="138" y="12" type="curve" smooth="yes"/>
      <point x="138" y="-494"/>
      <point x="468" y="-770"/>
      <point x="1028" y="-770" type="curve" smooth="yes"/>
      <point x="1530" y="-770"/>
      <point x="1918" y="-512"/>
      <point x="1926" y="38" type="curve"/>
      <point x="1370" y="38" type="line"/>
      <point x="1366" y="-204"/>
      <point x="1204" y="-308"/>
      <point x="1018" y="-308" type="curve" smooth="yes"/>
      <point x="818" y="-308"/>
      <point x="694" y="-204"/>
      <point x="694" y="16" type="curve" smooth="yes"/>
      <point x="694" y="238"/>
      <point x="836" y="364"/>
      <point x="1012" y="536" type="curve" smooth="yes"/>
      <point x="1242" y="748"/>
      <point x="1314" y="928"/>
      <point x="1314" y="1292" type="curve"/>
    </contour>
    <contour>
      <point x="1378" y="1906" type="curve" smooth="yes"/>
      <point x="1378" y="2076"/>
      <point x="1258" y="2206"/>
      <point x="1068" y="2206" type="curve" smooth="yes"/>
      <point x="876" y="2206"/>
      <point x="756" y="2076"/>
      <point x="756" y="1906" type="curve" smooth="yes"/>
      <point x="756" y="1736"/>
      <point x="876" y="1604"/>
      <point x="1068" y="1604" type="curve" smooth="yes"/>
      <point x="1258" y="1604"/>
      <point x="1378" y="1736"/>
    </contour>
  </outline>
</glyph>
<glyph name="multiply" format="1">
  <advance width="2178"/>
  <unicode hex="00D7"/>
  <outline>
    <contour>
      <point x="466" y="412" type="line"/>
      <point x="2024" y="2000" type="line"/>
      <point x="1694" y="2334" type="line"/>
      <point x="136" y="746" type="line"/>
    </contour>
    <contour>
      <point x="1694" y="412" type="line"/>
      <point x="2024" y="746" type="line"/>
      <point x="466" y="2334" type="line"/>
      <point x="136" y="2000" type="line"/>
    </contour>
  </outline>
</glyph>
<glyph name="divide" format="1">
  <advance width="2336"/>
  <unicode hex="00F7"/>
  <outline>
    <contour>
      <point x="2178" y="1602" type="line"/>
      <point x="130" y="1602" type="line"/>
      <point x="130" y="1146" type="line"/>
      <point x="2178" y="1146" type="line"/>
    </contour>
    <contour>
      <point x="840" y="2180" type="curve" smooth="yes"/>
      <point x="840" y="2010"/>
      <point x="962" y="1884"/>
      <point x="1156" y="1884" type="curve" smooth="yes"/>
      <point x="1350" y="1884"/>
      <point x="1472" y="2010"/>
      <point x="1472" y="2180" type="curve" smooth="yes"/>
      <point x="1472" y="2354"/>
      <point x="1350" y="2478"/>
      <point x="1156" y="2478" type="curve" smooth="yes"/>
      <point x="962" y="2478"/>
      <point x="840" y="2354"/>
    </contour>
    <contour>
      <point x="840" y="556" type="curve" smooth="yes"/>
      <point x="840" y="384"/>
      <point x="962" y="260"/>
      <point x="1156" y="260" type="curve" smooth="yes"/>
      <point x="1350" y="260"/>
      <point x="1472" y="384"/>
      <point x="1472" y="556" type="curve" smooth="yes"/>
      <point x="1472" y="728"/>
      <point x="1350" y="854"/>
      <point x="1156" y="854" type="curve" smooth="yes"/>
      <point x="962" y="854"/>
      <point x="840" y="728"/>
    </contour>
  </outline>
</glyph>
<glyph name="kgreenlandic" format="1">
  <advance width="2402"/>
  <unicode hex="0138"/>
  <outline>
    <contour>
      <point x="822" y="2164" type="line"/>
      <point x="266" y="2164" type="line"/>
      <point x="266" y="0" type="line"/>
      <point x="822" y="0" type="line"/>
    </contour>
    <contour>
      <point x="2282" y="2164" type="line"/>
      <point x="1584" y="2164" type="line"/>
      <point x="994" y="1344" type="line"/>
      <point x="642" y="1344" type="line"/>
      <point x="712" y="806" type="line"/>
      <point x="1278" y="806" type="line"/>
    </contour>
    <contour>
      <point x="1612" y="0" type="line"/>
      <point x="2320" y="0" type="line"/>
      <point x="1450" y="1192" type="line"/>
      <point x="984" y="910" type="line"/>
    </contour>
    <contour>
      <point x="1196" y="2580" type="move" name="top"/>
    </contour>
    <contour>
      <point x="1196" y="20" type="move" name="bottom"/>
    </contour>
    <contour>
      <point x="2402" y="2580" type="move" name="top0315"/>
    </contour>
  </outline>
</glyph>
<glyph name="lslash" format="1">
  <advance width="1234"/>
  <unicode hex="0142"/>
  <outline>
    <contour>
      <point x="1170" y="1910" type="line"/>
      <point x="62" y="1536" type="line"/>
      <point x="62" y="1210" type="line"/>
      <point x="1170" y="1584" type="line"/>
    </contour>
    <component base="l" xOffset="33"/>
    <contour>
      <point x="616" y="3368" type="move" name="top"/>
    </contour>
    <contour>
      <point x="616" y="20" type="move" name="bottom"/>
    </contour>
    <contour>
      <point x="1234" y="3368" type="move" name="top0315"/>
    </contour>
  </outline>
</glyph>
<glyph name="OE" format="1">
  <advance width="3960"/>
  <unicode hex="0152"/>
  <outline>
    <contour>
      <point x="1390" y="2952" type="curve" smooth="yes"/>
      <point x="680" y="2952"/>
      <point x="196" y="2466"/>
      <point x="196" y="1760" type="curve"/>
      <point x="196" y="1152" type="line"/>
      <point x="196" y="446"/>
      <point x="684" y="-40"/>
      <point x="1394" y="-40" type="curve" smooth="yes"/>
      <point x="1596" y="-40"/>
      <point x="1792" y="-20"/>
      <point x="1970" y="0" type="curve"/>
      <point x="1970" y="470" type="line"/>
      <point x="1798" y="438"/>
      <point x="1600" y="416"/>
      <point x="1394" y="416" type="curve" smooth="yes"/>
      <point x="1000" y="416"/>
      <point x="750" y="662"/>
      <point x="750" y="1152" type="curve"/>
      <point x="750" y="1764" type="line"/>
      <point x="750" y="2252"/>
      <point x="996" y="2496"/>
      <point x="1390" y="2496" type="curve" smooth="yes"/>
      <point x="1598" y="2496"/>
      <point x="1796" y="2472"/>
      <point x="1970" y="2442" type="curve"/>
      <point x="1970" y="2912" type="line"/>
      <point x="1792" y="2934"/>
      <point x="1592" y="2952"/>
    </contour>
    <component base="E" xOffset="762"/>
    <contour>
      <point x="3960" y="3200" type="move" name="top0315"/>
    </contour>
    <contour>
      <point x="3960" y="3200" type="move" name="top_dd"/>
    </contour>
    <contour>
      <point x="1966" y="3200" type="move" name="top"/>
    </contour>
    <contour>
      <point x="3960" y="-814" type="move" name="bottom_dd"/>
    </contour>
    <contour>
      <point x="1966" y="0" type="move" name="bottom"/>
    </contour>
  </outline>
</glyph>
<glyph name="oe" format="1">
  <advance width="3698"/>
  <unicode hex="0153"/>
  <outline>
    <contour>
      <point x="2684" y="-40" type="curve"/>
      <point x="3064" y="-40"/>
      <point x="3346" y="84"/>
      <point x="3498" y="210" type="curve"/>
      <point x="3338" y="574" type="line"/>
      <point x="3178" y="486"/>
      <point x="3022" y="416"/>
      <point x="2736" y="416" type="curve" smooth="yes"/>
      <point x="2384" y="416"/>
      <point x="2216" y="696"/>
      <point x="2216" y="1020" type="curve" smooth="yes"/>
      <point x="2216" y="1100" type="line" smooth="yes"/>
      <point x="2216" y="1452"/>
      <point x="2348" y="1748"/>
      <point x="2630" y="1748" type="curve"/>
      <point x="2892" y="1748"/>
      <point x="3002" y="1582"/>
      <point x="3002" y="1346" type="curve"/>
      <point x="3002" y="1296" type="line"/>
      <point x="1910" y="1296" type="line"/>
      <point x="1910" y="906" type="line"/>
      <point x="3548" y="906" type="line"/>
      <point x="3548" y="1226" type="line" smooth="yes"/>
      <point x="3548" y="1818"/>
      <point x="3228" y="2204"/>
      <point x="2630" y="2204" type="curve" smooth="yes"/>
      <point x="2044" y="2208"/>
      <point x="1662" y="1732"/>
      <point x="1662" y="1100" type="curve" smooth="yes"/>
      <point x="1662" y="1020" type="line" smooth="yes"/>
      <point x="1662" y="420"/>
      <point x="2050" y="-40"/>
    </contour>
    <contour>
      <point x="170" y="1060" type="line"/>
      <point x="170" y="430"/>
      <point x="534" y="-40"/>
      <point x="1186" y="-40" type="curve" smooth="yes"/>
      <point x="1834" y="-40"/>
      <point x="2196" y="430"/>
      <point x="2196" y="1060" type="curve"/>
      <point x="2196" y="1102" type="line"/>
      <point x="2196" y="1732"/>
      <point x="1834" y="2204"/>
      <point x="1182" y="2204" type="curve" smooth="yes"/>
      <point x="534" y="2204"/>
      <point x="170" y="1732"/>
      <point x="170" y="1102" type="curve"/>
    </contour>
    <contour>
      <point x="726" y="1102" type="line"/>
      <point x="726" y="1450"/>
      <point x="850" y="1748"/>
      <point x="1182" y="1748" type="curve" smooth="yes"/>
      <point x="1518" y="1748"/>
      <point x="1642" y="1450"/>
      <point x="1642" y="1102" type="curve"/>
      <point x="1642" y="1060" type="line"/>
      <point x="1642" y="704"/>
      <point x="1516" y="416"/>
      <point x="1186" y="416" type="curve" smooth="yes"/>
      <point x="848" y="416"/>
      <point x="726" y="704"/>
      <point x="726" y="1060" type="curve"/>
    </contour>
    <contour>
      <point x="3698" y="2580" type="move" name="top0315"/>
    </contour>
    <contour>
      <point x="3698" y="3200" type="move" name="top_dd"/>
    </contour>
    <contour>
      <point x="1860" y="2580" type="move" name="top"/>
    </contour>
    <contour>
      <point x="3698" y="-814" type="move" name="bottom_dd"/>
    </contour>
    <contour>
      <point x="1860" y="-14" type="move" name="bottom"/>
    </contour>
  </outline>
</glyph>
<glyph name="bbar" format="1">
  <advance width="2480"/>
  <unicode hex="0180"/>
  <outline>
    <component base="b"/>
    <component base="crossbar" xOffset="-118" yOffset="562"/>
    <contour>
      <point x="1302" y="-20" type="move" name="markbottom"/>
    </contour>
    <contour>
      <point x="2480" y="3208" type="move" name="top0315"/>
    </contour>
    <contour>
      <point x="1326" y="3208" type="move" name="top"/>
    </contour>
    <contour>
      <point x="744" y="2604" type="move" name="parenthesses.w2"/>
    </contour>
    <contour>
      <point x="1302" y="-20" type="move" name="bottom"/>
    </contour>
  </outline>
</glyph>
<glyph name="tonesix" format="1">
  <advance width="2564"/>
  <unicode hex="0185"/>
  <outline>
    <contour>
      <point x="486" y="3072" type="line"/>
      <point x="486" y="3072"/>
      <point x="124" y="2716"/>
      <point x="124" y="2716" type="curve"/>
      <point x="124" y="2448" type="line"/>
      <point x="124" y="2448"/>
      <point x="486" y="2094"/>
      <point x="486" y="2094" type="curve"/>
      <point x="582" y="2094" type="line"/>
      <point x="582" y="3072" type="line"/>
    </contour>
    <component base="b" xOffset="129"/>
  </outline>
</glyph>
<glyph name="Chook" format="1">
  <advance width="2950"/>
  <unicode hex="0187"/>
  <outline>
    <contour>
      <point x="2542" y="1928" type="line"/>
      <point x="2542" y="2346" type="line" smooth="yes"/>
      <point x="2542" y="2608"/>
      <point x="2734" y="2656"/>
      <point x="2926" y="2656" type="curve" smooth="yes"/>
      <point x="2980" y="2656"/>
      <point x="3036" y="2648"/>
      <point x="3092" y="2638" type="curve"/>
      <point x="3092" y="3108" type="line"/>
      <point x="3000" y="3132"/>
      <point x="2906" y="3142"/>
      <point x="2810" y="3142" type="curve" smooth="yes"/>
      <point x="2354" y="3142"/>
      <point x="2076" y="2862"/>
      <point x="2076" y="2346" type="curve" smooth="yes"/>
      <point x="2076" y="1928" type="line"/>
    </contour>
    <component base="C"/>
  </outline>
</glyph>
<glyph name="chook" format="1">
  <advance width="2424"/>
  <unicode hex="0188"/>
  <outline>
    <contour>
      <point x="2030" y="1362" type="line"/>
      <point x="2030" y="1718" type="line" smooth="yes"/>
      <point x="2030" y="1942"/>
      <point x="2192" y="2002"/>
      <point x="2356" y="2002" type="curve" smooth="yes"/>
      <point x="2402" y="2002"/>
      <point x="2450" y="1996"/>
      <point x="2498" y="1988" type="curve"/>
      <point x="2498" y="2368" type="line"/>
      <point x="2418" y="2390"/>
      <point x="2338" y="2398"/>
      <point x="2258" y="2398" type="curve" smooth="yes"/>
      <point x="1868" y="2398"/>
      <point x="1648" y="2158"/>
      <point x="1648" y="1718" type="curve" smooth="yes"/>
      <point x="1648" y="1362" type="line"/>
    </contour>
    <component base="c"/>
  </outline>
</glyph>
<glyph name="Dtopbar" format="1">
  <advance width="2568"/>
  <unicode hex="018B"/>
  <outline>
    <contour>
      <point x="2332" y="0" type="line"/>
      <point x="2332" y="2912" type="line"/>
      <point x="440" y="2912" type="line"/>
      <point x="440" y="2436" type="line"/>
      <point x="1754" y="2436" type="line"/>
      <point x="1754" y="1854" type="line"/>
      <point x="1246" y="1854" type="line" smooth="yes"/>
      <point x="568" y="1854"/>
      <point x="156" y="1490"/>
      <point x="156" y="938" type="curve" smooth="yes"/>
      <point x="156" y="384"/>
      <point x="568" y="0"/>
      <point x="1246" y="0" type="curve" smooth="yes"/>
    </contour>
    <contour>
      <point x="1754" y="474" type="line"/>
      <point x="1246" y="474" type="line" smooth="yes"/>
      <point x="898" y="474"/>
      <point x="732" y="686"/>
      <point x="732" y="942" type="curve" smooth="yes"/>
      <point x="732" y="1190"/>
      <point x="898" y="1380"/>
      <point x="1246" y="1380" type="curve" smooth="yes"/>
      <point x="1754" y="1380" type="line"/>
    </contour>
  </outline>
</glyph>
<glyph name="deltaturn" format="1">
  <advance width="2314"/>
  <unicode hex="018D"/>
  <outline>
    <contour>
      <point x="1914" y="-750" type="line"/>
      <point x="1914" y="-446" type="line"/>
      <point x="1768" y="-290"/>
      <point x="1472" y="-8"/>
      <point x="1284" y="156" type="curve"/>
      <point x="1312" y="156"/>
      <point x="1326" y="156"/>
      <point x="1352" y="158" type="curve" smooth="yes"/>
      <point x="1830" y="234"/>
      <point x="2168" y="620"/>
      <point x="2168" y="1154" type="curve" smooth="yes"/>
      <point x="2168" y="1196" type="line" smooth="yes"/>
      <point x="2168" y="1772"/>
      <point x="1804" y="2204"/>
      <point x="1154" y="2204" type="curve" smooth="yes"/>
      <point x="506" y="2204"/>
      <point x="144" y="1750"/>
      <point x="144" y="1142" type="curve" smooth="yes"/>
      <point x="144" y="1100" type="line" smooth="yes"/>
      <point x="144" y="654"/>
      <point x="438" y="308"/>
      <point x="830" y="-16" type="curve" smooth="yes"/>
      <point x="978" y="-138"/>
      <point x="1112" y="-232"/>
      <point x="1190" y="-298" type="curve"/>
      <point x="360" y="-298" type="line"/>
      <point x="360" y="-750" type="line"/>
    </contour>
    <contour>
      <point x="1614" y="1100" type="line"/>
      <point x="1614" y="750"/>
      <point x="1486" y="458"/>
      <point x="1144" y="458" type="curve" smooth="yes"/>
      <point x="1094" y="458"/>
      <point x="1056" y="462"/>
      <point x="1018" y="472" type="curve"/>
      <point x="850" y="576"/>
      <point x="698" y="796"/>
      <point x="698" y="1100" type="curve" smooth="yes"/>
      <point x="698" y="1142" type="line" smooth="yes"/>
      <point x="698" y="1476"/>
      <point x="822" y="1748"/>
      <point x="1154" y="1748" type="curve" smooth="yes"/>
      <point x="1492" y="1748"/>
      <point x="1614" y="1476"/>
      <point x="1614" y="1142" type="curve" smooth="yes"/>
    </contour>
  </outline>
</glyph>
<glyph name="Fhook" format="1">
  <advance width="2438"/>
  <unicode hex="0191"/>
  <outline>
    <contour>
      <point x="460" y="1750" type="line"/>
      <point x="460" y="-78" type="line" smooth="yes"/>
      <point x="460" y="-298"/>
      <point x="380" y="-386"/>
      <point x="214" y="-386" type="curve" smooth="yes"/>
      <point x="150" y="-386"/>
      <point x="88" y="-378"/>
      <point x="30" y="-362" type="curve"/>
      <point x="0" y="-840" type="line"/>
      <point x="98" y="-866"/>
      <point x="178" y="-874"/>
      <point x="278" y="-874" type="curve" smooth="yes"/>
      <point x="744" y="-874"/>
      <point x="1038" y="-592"/>
      <point x="1038" y="-78" type="curve" smooth="yes"/>
      <point x="1038" y="1750" type="line"/>
    </contour>
    <component base="F" xOffset="95"/>
  </outline>
</glyph>
<glyph name="florin" format="1">
  <advance width="1468"/>
  <unicode hex="0192"/>
  <outline>
    <contour>
      <point x="1344" y="2164" type="line"/>
      <point x="934" y="2164" type="line"/>
      <point x="934" y="2354" type="line" smooth="yes"/>
      <point x="934" y="2548"/>
      <point x="1034" y="2654"/>
      <point x="1230" y="2654" type="curve" smooth="yes"/>
      <point x="1312" y="2654"/>
      <point x="1372" y="2646"/>
      <point x="1426" y="2634" type="curve"/>
      <point x="1476" y="3072" type="line"/>
      <point x="1370" y="3096"/>
      <point x="1268" y="3114"/>
      <point x="1160" y="3114" type="curve" smooth="yes"/>
      <point x="670" y="3114"/>
      <point x="378" y="2846"/>
      <point x="378" y="2354" type="curve" smooth="yes"/>
      <point x="378" y="2164" type="line"/>
      <point x="54" y="2164" type="line"/>
      <point x="54" y="1750" type="line"/>
      <point x="378" y="1750" type="line"/>
      <point x="378" y="-104" type="line" smooth="yes"/>
      <point x="378" y="-308"/>
      <point x="316" y="-418"/>
      <point x="146" y="-418" type="curve" smooth="yes"/>
      <point x="102" y="-418"/>
      <point x="2" y="-406"/>
      <point x="-38" y="-394" type="curve"/>
      <point x="-66" y="-840" type="line"/>
      <point x="30" y="-866"/>
      <point x="112" y="-874"/>
      <point x="212" y="-874" type="curve" smooth="yes"/>
      <point x="662" y="-874"/>
      <point x="932" y="-602"/>
      <point x="932" y="-104" type="curve" smooth="yes"/>
      <point x="934" y="1750" type="line"/>
      <point x="1344" y="1750" type="line"/>
    </contour>
  </outline>
</glyph>
<glyph name="Gamma1" format="1">
  <advance width="2714"/>
  <unicode hex="0194"/>
  <outline>
    <contour>
      <point x="52" y="2912" type="curve"/>
      <point x="1284" y="238" type="line" smooth="yes"/>
      <point x="1418" y="-50"/>
      <point x="1470" y="-188"/>
      <point x="1470" y="-304" type="curve" smooth="yes"/>
      <point x="1470" y="-384"/>
      <point x="1448" y="-454"/>
      <point x="1356" y="-454" type="curve" smooth="yes"/>
      <point x="1266" y="-454"/>
      <point x="1240" y="-386"/>
      <point x="1240" y="-304" type="curve" smooth="yes"/>
      <point x="1240" y="-190"/>
      <point x="1300" y="-44"/>
      <point x="1430" y="238" type="curve" smooth="yes"/>
      <point x="2660" y="2912" type="line"/>
      <point x="2660" y="2912"/>
      <point x="1998" y="2912"/>
      <point x="1998" y="2912" type="curve"/>
      <point x="1168" y="918" type="line" smooth="yes"/>
      <point x="926" y="326"/>
      <point x="670" y="-132"/>
      <point x="670" y="-324" type="curve" smooth="yes"/>
      <point x="670" y="-706"/>
      <point x="978" y="-874"/>
      <point x="1356" y="-874" type="curve" smooth="yes"/>
      <point x="1734" y="-874"/>
      <point x="2028" y="-706"/>
      <point x="2028" y="-324" type="curve" smooth="yes"/>
      <point x="2028" y="-132"/>
      <point x="1782" y="330"/>
      <point x="1542" y="918" type="curve" smooth="yes"/>
      <point x="712" y="2912" type="line"/>
      <point x="712" y="2912"/>
      <point x="52" y="2912"/>
    </contour>
  </outline>
</glyph>
<glyph name="Ibar" format="1">
  <advance width="1464"/>
  <unicode hex="0197"/>
  <outline>
    <component base="I"/>
    <component base="crossbar" xOffset="-122"/>
    <contour>
      <point x="732" y="3208" type="move" name="top"/>
    </contour>
    <contour>
      <point x="732" y="6" type="move" name="bottom"/>
    </contour>
    <contour>
      <point x="1464" y="3208" type="move" name="top0315"/>
    </contour>
  </outline>
</glyph>
<glyph name="ohorn" format="1">
  <advance width="2378"/>
  <unicode hex="01A1"/>
  <outline>
    <contour>
      <point x="2070" y="2370" type="line"/>
      <point x="2070" y="2050"/>
      <point x="2008" y="1852"/>
      <point x="1712" y="1852" type="curve"/>
      <point x="1712" y="1604" type="line"/>
      <point x="2216" y="1604"/>
      <point x="2416" y="1888"/>
      <point x="2416" y="2370" type="curve"/>
    </contour>
    <component base="o" xOffset="-1"/>
    <contour>
      <point x="1156" y="2580" type="move" name="top"/>
    </contour>
    <contour>
      <point x="1156" y="-20" type="move" name="bottom"/>
    </contour>
    <contour>
      <point x="2378" y="2580" type="move" name="top0315"/>
    </contour>
  </outline>
</glyph>
<glyph name="OI" format="1">
  <advance width="3652"/>
  <unicode hex="01A2"/>
  <outline>
    <contour>
      <point x="2528" y="1654" type="line"/>
      <point x="1974" y="1656" type="line"/>
      <point x="1974" y="590" type="line"/>
      <point x="1906" y="524"/>
      <point x="1776" y="434"/>
      <point x="1466" y="434" type="curve" smooth="yes"/>
      <point x="992" y="434"/>
      <point x="762" y="778"/>
      <point x="762" y="1366" type="curve" smooth="yes"/>
      <point x="762" y="1516" type="line"/>
      <point x="180" y="1512" type="line"/>
      <point x="180" y="1366" type="line" smooth="yes"/>
      <point x="180" y="462"/>
      <point x="692" y="-40"/>
      <point x="1434" y="-40" type="curve" smooth="yes"/>
      <point x="2080" y="-40"/>
      <point x="2396" y="210"/>
      <point x="2528" y="372" type="curve"/>
    </contour>
    <contour>
      <point x="2528" y="2540" type="line"/>
      <point x="2396" y="2704"/>
      <point x="2080" y="2954"/>
      <point x="1434" y="2954" type="curve" smooth="yes"/>
      <point x="690" y="2954"/>
      <point x="180" y="2442"/>
      <point x="180" y="1548" type="curve" smooth="yes"/>
      <point x="180" y="1394" type="line"/>
      <point x="762" y="1390" type="line"/>
      <point x="762" y="1548" type="line" smooth="yes"/>
      <point x="762" y="2166"/>
      <point x="1002" y="2480"/>
      <point x="1458" y="2480" type="curve" smooth="yes"/>
      <point x="1756" y="2480"/>
      <point x="1892" y="2404"/>
      <point x="1974" y="2324" type="curve"/>
      <point x="1974" y="1244" type="line"/>
      <point x="2528" y="1246" type="line"/>
    </contour>
    <contour>
      <point x="3378" y="2912" type="line"/>
      <point x="2958" y="2912" type="line"/>
      <point x="2234" y="2578" type="line"/>
      <point x="2234" y="1984" type="line"/>
      <point x="2824" y="2250" type="line"/>
      <point x="2824" y="-834" type="line"/>
      <point x="3378" y="-834" type="line"/>
    </contour>
  </outline>
</glyph>
<glyph name="phook" format="1">
  <advance width="2306"/>
  <unicode hex="01A5"/>
  <outline>
    <contour>
      <point x="784" y="1780" type="line"/>
      <point x="784" y="2136" type="line" smooth="yes"/>
      <point x="784" y="2360"/>
      <point x="948" y="2420"/>
      <point x="1112" y="2420" type="curve" smooth="yes"/>
      <point x="1158" y="2420"/>
      <point x="1206" y="2414"/>
      <point x="1252" y="2406" type="curve"/>
      <point x="1252" y="2786" type="line"/>
      <point x="1174" y="2806"/>
      <point x="1078" y="2816"/>
      <point x="964" y="2816" type="curve" smooth="yes"/>
      <point x="624" y="2816"/>
      <point x="230" y="2698"/>
      <point x="230" y="2136" type="curve" smooth="yes"/>
      <point x="230" y="1780" type="line"/>
    </contour>
    <contour>
      <point x="784" y="1748" type="line"/>
      <point x="744" y="2164" type="line"/>
      <point x="230" y="2164" type="line"/>
      <point x="230" y="-832" type="line"/>
      <point x="784" y="-832" type="line"/>
    </contour>
    <contour>
      <point x="2166" y="1106" type="line"/>
      <point x="2166" y="1764"/>
      <point x="1870" y="2204"/>
      <point x="1320" y="2204" type="curve" smooth="yes"/>
      <point x="786" y="2204"/>
      <point x="548" y="1750"/>
      <point x="474" y="1114" type="curve"/>
      <point x="474" y="1024" type="line"/>
      <point x="548" y="424"/>
      <point x="786" y="-40"/>
      <point x="1324" y="-40" type="curve" smooth="yes"/>
      <point x="1868" y="-40"/>
      <point x="2166" y="434"/>
      <point x="2166" y="1064" type="curve" smooth="yes"/>
    </contour>
    <contour>
      <point x="1610" y="1064" type="line"/>
      <point x="1610" y="710"/>
      <point x="1490" y="416"/>
      <point x="1176" y="416" type="curve" smooth="yes"/>
      <point x="858" y="416"/>
      <point x="738" y="638"/>
      <point x="708" y="934" type="curve"/>
      <point x="708" y="1204" type="line"/>
      <point x="730" y="1538"/>
      <point x="858" y="1744"/>
      <point x="1172" y="1744" type="curve" smooth="yes"/>
      <point x="1486" y="1744"/>
      <point x="1610" y="1468"/>
      <point x="1610" y="1106" type="curve" smooth="yes"/>
    </contour>
  </outline>
</glyph>
<glyph name="thook" format="1">
  <advance width="1476"/>
  <unicode hex="01AD"/>
  <outline>
    <contour>
      <point x="912" y="2114" type="line"/>
      <point x="912" y="2470" type="line" smooth="yes"/>
      <point x="912" y="2694"/>
      <point x="1076" y="2754"/>
      <point x="1240" y="2754" type="curve" smooth="yes"/>
      <point x="1286" y="2754"/>
      <point x="1334" y="2748"/>
      <point x="1382" y="2740" type="curve"/>
      <point x="1382" y="3118" type="line"/>
      <point x="1302" y="3138"/>
      <point x="1208" y="3148"/>
      <point x="1094" y="3148" type="curve" smooth="yes"/>
      <point x="752" y="3148"/>
      <point x="358" y="3030"/>
      <point x="358" y="2470" type="curve" smooth="yes"/>
      <point x="358" y="2114" type="line"/>
    </contour>
    <contour>
      <point x="1286" y="2164" type="line"/>
      <point x="32" y="2164" type="line"/>
      <point x="32" y="1750" type="line"/>
      <point x="1286" y="1750" type="line"/>
    </contour>
    <contour>
      <point x="358" y="2296" type="line"/>
      <point x="358" y="614" type="line"/>
      <point x="358" y="148"/>
      <point x="598" y="-40"/>
      <point x="964" y="-40" type="curve" smooth="yes"/>
      <point x="1104" y="-40"/>
      <point x="1214" y="-18"/>
      <point x="1304" y="12" type="curve"/>
      <point x="1304" y="442" type="line"/>
      <point x="1266" y="434"/>
      <point x="1204" y="426"/>
      <point x="1136" y="426" type="curve" smooth="yes"/>
      <point x="992" y="426"/>
      <point x="912" y="478"/>
      <point x="912" y="672" type="curve"/>
      <point x="912" y="2296" type="line"/>
    </contour>
  </outline>
</glyph>
<glyph name="uhorn" format="1">
  <advance width="2506"/>
  <unicode hex="01B0"/>
  <outline>
    <contour>
      <point x="2324" y="2354" type="line"/>
      <point x="2324" y="2028"/>
      <point x="2286" y="1874"/>
      <point x="1902" y="1874" type="curve"/>
      <point x="1900" y="1604" type="line"/>
      <point x="2484" y="1604"/>
      <point x="2664" y="1858"/>
      <point x="2664" y="2354" type="curve"/>
    </contour>
    <component base="u"/>
    <contour>
      <point x="2506" y="2538" type="move" name="top0315"/>
    </contour>
    <contour>
      <point x="1154" y="2538" type="move" name="top"/>
    </contour>
    <contour>
      <point x="952" y="0" type="move" name="bottomu"/>
    </contour>
    <contour>
      <point x="2086" y="0" type="move" name="right"/>
    </contour>
    <contour>
      <point x="1142" y="0" type="move" name="bottom"/>
    </contour>
  </outline>
</glyph>
<glyph name="Upsilon2" format="1">
  <advance width="2728"/>
  <unicode hex="01B1"/>
  <outline>
    <contour>
      <point x="850" y="1366" type="line"/>
      <point x="850" y="2020"/>
      <point x="1012" y="2332"/>
      <point x="1252" y="2424" type="curve"/>
      <point x="1252" y="2716" type="line"/>
      <point x="726" y="2652"/>
      <point x="214" y="2076"/>
      <point x="214" y="1366" type="curve" smooth="yes"/>
      <point x="214" y="1192" type="line" smooth="yes"/>
      <point x="214" y="468"/>
      <point x="684" y="-40"/>
      <point x="1366" y="-40" type="curve" smooth="yes"/>
      <point x="2050" y="-40"/>
      <point x="2514" y="468"/>
      <point x="2514" y="1192" type="curve" smooth="yes"/>
      <point x="2514" y="1366" type="line" smooth="yes"/>
      <point x="2514" y="2076"/>
      <point x="1998" y="2656"/>
      <point x="1464" y="2716" type="curve"/>
      <point x="1464" y="2424" type="line"/>
      <point x="1712" y="2334"/>
      <point x="1878" y="2024"/>
      <point x="1878" y="1366" type="curve" smooth="yes"/>
      <point x="1878" y="1188" type="line" smooth="yes"/>
      <point x="1878" y="692"/>
      <point x="1682" y="438"/>
      <point x="1366" y="438" type="curve" smooth="yes"/>
      <point x="1046" y="438"/>
      <point x="850" y="692"/>
      <point x="850" y="1188" type="curve" smooth="yes"/>
    </contour>
    <contour>
      <point x="1252" y="2912" type="line"/>
      <point x="248" y="2912" type="line"/>
      <point x="248" y="2436" type="line"/>
      <point x="1252" y="2436" type="line"/>
    </contour>
    <contour>
      <point x="2484" y="2912" type="line"/>
      <point x="1464" y="2912" type="line"/>
      <point x="1464" y="2436" type="line"/>
      <point x="2484" y="2436" type="line"/>
    </contour>
  </outline>
</glyph>
<glyph name="Vcursive" format="1">
  <advance width="2696"/>
  <unicode hex="01B2"/>
  <outline>
    <contour>
      <point x="1348" y="-40" type="curve" smooth="yes"/>
      <point x="1984" y="-40"/>
      <point x="2456" y="314"/>
      <point x="2456" y="988" type="curve" smooth="yes"/>
      <point x="2456" y="2154" type="line" smooth="yes"/>
      <point x="2456" y="2670"/>
      <point x="2168" y="2950"/>
      <point x="1712" y="2950" type="curve" smooth="yes"/>
      <point x="1618" y="2950"/>
      <point x="1524" y="2940"/>
      <point x="1432" y="2916" type="curve"/>
      <point x="1432" y="2448" type="line"/>
      <point x="1488" y="2460"/>
      <point x="1544" y="2466"/>
      <point x="1598" y="2466" type="curve" smooth="yes"/>
      <point x="1790" y="2466"/>
      <point x="1880" y="2398"/>
      <point x="1880" y="2154" type="curve" smooth="yes"/>
      <point x="1880" y="988" type="line" smooth="yes"/>
      <point x="1880" y="600"/>
      <point x="1682" y="434"/>
      <point x="1348" y="434" type="curve" smooth="yes"/>
      <point x="1018" y="434"/>
      <point x="816" y="600"/>
      <point x="816" y="988" type="curve" smooth="yes"/>
      <point x="816" y="2912" type="line"/>
      <point x="238" y="2912" type="line"/>
      <point x="238" y="988" type="line" smooth="yes"/>
      <point x="238" y="314"/>
      <point x="702" y="-40"/>
    </contour>
  </outline>
</glyph>
<glyph name="Yhook" format="1">
  <advance width="2786"/>
  <unicode hex="01B3"/>
  <outline>
    <contour>
      <point x="1108" y="1252" type="line"/>
      <point x="1186" y="974" type="line"/>
      <point x="1512" y="974" type="line"/>
      <point x="2028" y="1962" type="line" smooth="yes"/>
      <point x="2196" y="2284"/>
      <point x="2272" y="2452"/>
      <point x="2432" y="2452" type="curve" smooth="yes"/>
      <point x="2506" y="2452"/>
      <point x="2542" y="2434"/>
      <point x="2604" y="2402" type="curve"/>
      <point x="2808" y="2828" type="line"/>
      <point x="2668" y="2902"/>
      <point x="2520" y="2954"/>
      <point x="2316" y="2954" type="curve" smooth="yes"/>
      <point x="1942" y="2954"/>
      <point x="1768" y="2664"/>
      <point x="1552" y="2194" type="curve" smooth="yes"/>
    </contour>
    <contour>
      <point x="644" y="2912" type="line"/>
      <point x="6" y="2912" type="line"/>
      <point x="1016" y="974" type="line"/>
      <point x="1330" y="974" type="line"/>
      <point x="1430" y="1232" type="line"/>
    </contour>
    <contour>
      <point x="1556" y="1374" type="line"/>
      <point x="972" y="1374" type="line"/>
      <point x="972" y="0" type="line"/>
      <point x="1556" y="0" type="line"/>
    </contour>
  </outline>
</glyph>
<glyph name="uni01BA" format="1">
  <advance width="2148"/>
  <unicode hex="01BA"/>
  <outline>
    <contour>
      <point x="230" y="2164" type="line" name="hr00"/>
      <point x="230" y="1708" type="line"/>
      <point x="1118" y="1708" type="line"/>
      <point x="586" y="1284" type="line"/>
      <point x="586" y="948" type="line"/>
      <point x="980" y="948" type="line"/>
      <point x="1984" y="1838" type="line"/>
      <point x="1984" y="2164" type="line"/>
    </contour>
    <contour>
      <point x="670" y="-234" type="curve" smooth="yes"/>
      <point x="670" y="-118"/>
      <point x="748" y="-32"/>
      <point x="1112" y="44" type="curve" smooth="yes"/>
      <point x="1528" y="128"/>
      <point x="1888" y="304"/>
      <point x="1888" y="702" type="curve" smooth="yes"/>
      <point x="1888" y="1062"/>
      <point x="1566" y="1352"/>
      <point x="1034" y="1352" type="curve" smooth="yes"/>
      <point x="800" y="1352" type="line"/>
      <point x="802" y="948" type="line"/>
      <point x="1034" y="948" type="line" smooth="yes"/>
      <point x="1240" y="948"/>
      <point x="1354" y="862"/>
      <point x="1354" y="728" type="curve" smooth="yes"/>
      <point x="1354" y="578"/>
      <point x="1242" y="520"/>
      <point x="922" y="458" type="curve" smooth="yes"/>
      <point x="402" y="354"/>
      <point x="128" y="166"/>
      <point x="128" y="-212" type="curve" smooth="yes"/>
      <point x="128" y="-594"/>
      <point x="480" y="-872"/>
      <point x="1030" y="-872" type="curve" smooth="yes"/>
      <point x="1634" y="-872"/>
      <point x="1960" y="-496"/>
      <point x="1960" y="-144" type="curve"/>
      <point x="1430" y="-144" type="line"/>
      <point x="1418" y="-386"/>
      <point x="1214" y="-466"/>
      <point x="1020" y="-466" type="curve" smooth="yes"/>
      <point x="806" y="-466"/>
      <point x="670" y="-382"/>
    </contour>
  </outline>
</glyph>
<glyph name="glottalstopbarinv" format="1">
  <advance width="2110"/>
  <unicode hex="01BE"/>
  <outline>
    <contour>
      <point x="1412" y="598" type="curve" smooth="yes"/>
      <point x="1412" y="454"/>
      <point x="1278" y="366"/>
      <point x="1062" y="366" type="curve" smooth="yes"/>
      <point x="868" y="366"/>
      <point x="662" y="446"/>
      <point x="652" y="688" type="curve"/>
      <point x="122" y="688" type="line"/>
      <point x="122" y="336"/>
      <point x="448" y="-40"/>
      <point x="1052" y="-40" type="curve" smooth="yes"/>
      <point x="1600" y="-40"/>
      <point x="1952" y="238"/>
      <point x="1952" y="622" type="curve" smooth="yes"/>
      <point x="1952" y="1266"/>
      <point x="1236" y="1072"/>
      <point x="1236" y="1624" type="curve" smooth="yes"/>
      <point x="1236" y="2696" type="line"/>
      <point x="682" y="2696" type="line"/>
      <point x="682" y="1628" type="line" smooth="yes"/>
      <point x="682" y="870"/>
      <point x="1412" y="938"/>
    </contour>
    <contour>
      <point x="1608" y="2164" type="line"/>
      <point x="354" y="2164" type="line"/>
      <point x="354" y="1750" type="line"/>
      <point x="1608" y="1750" type="line"/>
    </contour>
  </outline>
</glyph>
<glyph name="wynn" format="1">
  <advance width="2306"/>
  <unicode hex="01BF"/>
  <outline>
    <contour>
      <point x="784" y="1748" type="line"/>
      <point x="742" y="2164" type="line"/>
      <point x="230" y="2164" type="line"/>
      <point x="230" y="-832" type="line"/>
      <point x="784" y="-832" type="line"/>
    </contour>
    <contour>
      <point x="708" y="1204" type="line"/>
      <point x="730" y="1538"/>
      <point x="858" y="1744"/>
      <point x="1172" y="1744" type="curve" smooth="yes"/>
      <point x="1486" y="1744"/>
      <point x="1610" y="1468"/>
      <point x="1610" y="1106" type="curve" smooth="yes"/>
      <point x="1610" y="1064" type="line" smooth="yes"/>
      <point x="1610" y="460"/>
      <point x="1170" y="148"/>
      <point x="558" y="56" type="curve"/>
      <point x="598" y="-392" type="line"/>
      <point x="1532" y="-154"/>
      <point x="2166" y="178"/>
      <point x="2166" y="1064" type="curve" smooth="yes"/>
      <point x="2166" y="1106" type="line" smooth="yes"/>
      <point x="2166" y="1764"/>
      <point x="1870" y="2204"/>
      <point x="1320" y="2204" type="curve" smooth="yes"/>
      <point x="786" y="2204"/>
      <point x="548" y="1750"/>
      <point x="474" y="1114" type="curve"/>
    </contour>
  </outline>
</glyph>
<glyph name="uni01C5" format="1">
  <advance width="4560"/>
  <unicode hex="01C5"/>
  <outline>
    <contour>
      <point x="4420" y="456" type="line"/>
      <point x="2792" y="456" type="line"/>
      <point x="2792" y="0" type="line"/>
      <point x="4420" y="0" type="line"/>
    </contour>
    <contour>
      <point x="4386" y="1828" type="line"/>
      <point x="4386" y="2164" type="line"/>
      <point x="4014" y="2164" type="line"/>
      <point x="2634" y="348" type="line"/>
      <point x="2634" y="0" type="line"/>
      <point x="3002" y="0" type="line"/>
    </contour>
    <contour>
      <point x="4184" y="2164" type="line"/>
      <point x="2662" y="2164" type="line"/>
      <point x="2662" y="1708" type="line"/>
      <point x="4184" y="1708" type="line"/>
    </contour>
    <contour>
      <point x="3268" y="3050" type="line"/>
      <point x="2794" y="3050" type="line"/>
      <point x="2794" y="3018" type="line"/>
      <point x="3348" y="2504" type="line"/>
      <point x="3722" y="2504" type="line"/>
      <point x="4276" y="3016" type="line"/>
      <point x="4276" y="3050" type="line"/>
      <point x="3804" y="3050" type="line"/>
      <point x="3536" y="2772" type="line"/>
    </contour>
    <component base="D"/>
  </outline>
</glyph>
<glyph name="Gbar" format="1">
  <advance width="2880"/>
  <unicode hex="01E4"/>
  <outline>
    <contour>
      <point x="2880" y="966" type="line"/>
      <point x="1496" y="966" type="line"/>
      <point x="1496" y="652" type="line"/>
      <point x="2880" y="652" type="line"/>
    </contour>
    <component base="G"/>
    <contour>
      <point x="1384" y="3222" type="move" name="top"/>
    </contour>
    <contour>
      <point x="1410" y="-6" type="move" name="bottom"/>
    </contour>
    <contour>
      <point x="2880" y="3222" type="move" name="top0315"/>
    </contour>
  </outline>
</glyph>
<glyph name="gbar" format="1">
  <advance width="2336"/>
  <unicode hex="01E5"/>
  <outline>
    <contour>
      <point x="2316" y="-106" type="line" name="hr00"/>
      <point x="84" y="-106" type="line"/>
      <point x="84" y="-376" type="line"/>
      <point x="2316" y="-376" type="line"/>
    </contour>
    <contour>
      <point x="1614" y="2164" type="line"/>
      <point x="1560" y="1664" type="line"/>
      <point x="1560" y="-152" type="line" smooth="yes"/>
      <point x="1560" y="-452"/>
      <point x="1376" y="-618"/>
      <point x="1064" y="-618" type="curve" smooth="yes"/>
      <point x="856" y="-618"/>
      <point x="660" y="-564"/>
      <point x="506" y="-428" type="curve"/>
      <point x="282" y="-762" type="line"/>
      <point x="516" y="-1000"/>
      <point x="838" y="-1058"/>
      <point x="1090" y="-1058" type="curve" smooth="yes"/>
      <point x="1700" y="-1058"/>
      <point x="2116" y="-732"/>
      <point x="2116" y="-148" type="curve" smooth="yes"/>
      <point x="2116" y="2164" type="line"/>
    </contour>
    <contour>
      <point x="156" y="1056" type="line"/>
      <point x="156" y="426"/>
      <point x="490" y="-40"/>
      <point x="1026" y="-40" type="curve" smooth="yes"/>
      <point x="1562" y="-40"/>
      <point x="1794" y="424"/>
      <point x="1870" y="1034" type="curve"/>
      <point x="1870" y="1108" type="line"/>
      <point x="1794" y="1744"/>
      <point x="1604" y="2204"/>
      <point x="1030" y="2204" type="curve" smooth="yes"/>
      <point x="488" y="2204"/>
      <point x="156" y="1756"/>
      <point x="156" y="1098" type="curve" smooth="yes"/>
    </contour>
    <contour>
      <point x="710" y="1098" type="line"/>
      <point x="710" y="1460"/>
      <point x="856" y="1744"/>
      <point x="1170" y="1744" type="curve" smooth="yes"/>
      <point x="1486" y="1744"/>
      <point x="1626" y="1532"/>
      <point x="1648" y="1198" type="curve"/>
      <point x="1648" y="944" type="line"/>
      <point x="1618" y="638"/>
      <point x="1486" y="420"/>
      <point x="1166" y="420" type="curve" smooth="yes"/>
      <point x="852" y="420"/>
      <point x="710" y="702"/>
      <point x="710" y="1056" type="curve" smooth="yes"/>
    </contour>
    <contour>
      <point x="1118" y="-974" type="move" name="markbottom"/>
    </contour>
    <contour>
      <point x="2336" y="2580" type="move" name="top0315"/>
    </contour>
    <contour>
      <point x="1118" y="2580" type="move" name="top"/>
    </contour>
    <contour>
      <point x="1174" y="-248" type="move" name="parenthesses.w3"/>
    </contour>
    <contour>
      <point x="1118" y="-974" type="move" name="bottom"/>
    </contour>
  </outline>
</glyph>
<glyph name="uni0221" format="1">
  <advance width="3020"/>
  <unicode hex="0221"/>
  <outline>
    <contour>
      <point x="1520" y="484" type="curve"/>
      <point x="1520" y="484"/>
      <point x="1520" y="-130"/>
      <point x="1520" y="-130" type="curve"/>
      <point x="1520" y="-530"/>
      <point x="1694" y="-872"/>
      <point x="2268" y="-872" type="curve" smooth="yes"/>
      <point x="2718" y="-872"/>
      <point x="2960" y="-646"/>
      <point x="2960" y="-316" type="curve" smooth="yes"/>
      <point x="2960" y="24"/>
      <point x="2718" y="232"/>
      <point x="2314" y="232" type="curve" smooth="yes"/>
      <point x="2006" y="232"/>
      <point x="1776" y="146"/>
      <point x="1548" y="-10" type="curve"/>
      <point x="1008" y="-472" type="line"/>
      <point x="1008" y="-472"/>
      <point x="1270" y="-818"/>
      <point x="1270" y="-818" type="curve"/>
      <point x="1630" y="-496" type="line"/>
      <point x="1876" y="-282"/>
      <point x="2056" y="-166"/>
      <point x="2254" y="-166" type="curve" smooth="yes"/>
      <point x="2378" y="-166"/>
      <point x="2462" y="-224"/>
      <point x="2462" y="-328" type="curve" smooth="yes"/>
      <point x="2462" y="-442"/>
      <point x="2376" y="-496"/>
      <point x="2274" y="-496" type="curve" smooth="yes"/>
      <point x="2132" y="-496"/>
      <point x="2076" y="-408"/>
      <point x="2076" y="-272" type="curve" smooth="yes"/>
      <point x="2076" y="-194"/>
      <point x="2076" y="484"/>
      <point x="2076" y="484" type="curve"/>
      <point x="2076" y="484"/>
      <point x="1520" y="484"/>
    </contour>
    <component base="d"/>
  </outline>
</glyph>
<glyph name="uni0223" format="1">
  <advance width="2526"/>
  <unicode hex="0223"/>
  <outline>
    <contour>
      <point x="1242" y="1804" type="line"/>
      <point x="608" y="1804"/>
      <point x="146" y="1524"/>
      <point x="146" y="904" type="curve" smooth="yes"/>
      <point x="146" y="282"/>
      <point x="608" y="-40"/>
      <point x="1242" y="-40" type="curve" smooth="yes"/>
      <point x="1284" y="-40" type="line" smooth="yes"/>
      <point x="1918" y="-40"/>
      <point x="2378" y="282"/>
      <point x="2378" y="908" type="curve" smooth="yes"/>
      <point x="2378" y="1524"/>
      <point x="1918" y="1804"/>
      <point x="1284" y="1804" type="curve" smooth="yes"/>
    </contour>
    <contour>
      <point x="1284" y="1394" type="line"/>
      <point x="1622" y="1394"/>
      <point x="1822" y="1214"/>
      <point x="1822" y="908" type="curve" smooth="yes"/>
      <point x="1822" y="598"/>
      <point x="1622" y="416"/>
      <point x="1284" y="416" type="curve" smooth="yes"/>
      <point x="1242" y="416" type="line" smooth="yes"/>
      <point x="908" y="416"/>
      <point x="702" y="598"/>
      <point x="702" y="904" type="curve" smooth="yes"/>
      <point x="702" y="1216"/>
      <point x="908" y="1394"/>
      <point x="1242" y="1394" type="curve" smooth="yes"/>
    </contour>
    <contour>
      <point x="1292" y="1850" type="curve" smooth="yes"/>
      <point x="1232" y="1850" type="line" smooth="yes"/>
      <point x="898" y="1850"/>
      <point x="702" y="1968"/>
      <point x="702" y="2278" type="curve"/>
      <point x="702" y="2510"/>
      <point x="812" y="2616"/>
      <point x="978" y="2676" type="curve"/>
      <point x="978" y="3114" type="line"/>
      <point x="490" y="3108"/>
      <point x="146" y="2818"/>
      <point x="146" y="2288" type="curve" smooth="yes"/>
      <point x="146" y="1668"/>
      <point x="622" y="1444"/>
      <point x="1232" y="1444" type="curve" smooth="yes"/>
      <point x="1292" y="1444" type="line" smooth="yes"/>
      <point x="1904" y="1444"/>
      <point x="2380" y="1668"/>
      <point x="2380" y="2288" type="curve"/>
      <point x="2380" y="2818"/>
      <point x="2036" y="3108"/>
      <point x="1548" y="3114" type="curve"/>
      <point x="1548" y="2676" type="line"/>
      <point x="1714" y="2616"/>
      <point x="1824" y="2510"/>
      <point x="1824" y="2278" type="curve" smooth="yes"/>
      <point x="1824" y="1968"/>
      <point x="1626" y="1850"/>
    </contour>
  </outline>
</glyph>
<glyph name="uni0234" format="1">
  <advance width="2052"/>
  <unicode hex="0234"/>
  <outline>
    <contour>
      <point x="552" y="484" type="curve"/>
      <point x="552" y="484"/>
      <point x="552" y="-130"/>
      <point x="552" y="-130" type="curve"/>
      <point x="552" y="-530"/>
      <point x="724" y="-872"/>
      <point x="1298" y="-872" type="curve" smooth="yes"/>
      <point x="1748" y="-872"/>
      <point x="1992" y="-646"/>
      <point x="1992" y="-316" type="curve" smooth="yes"/>
      <point x="1992" y="24"/>
      <point x="1750" y="232"/>
      <point x="1344" y="232" type="curve" smooth="yes"/>
      <point x="1036" y="232"/>
      <point x="808" y="146"/>
      <point x="578" y="-10" type="curve"/>
      <point x="40" y="-472" type="line"/>
      <point x="40" y="-472"/>
      <point x="300" y="-818"/>
      <point x="300" y="-818" type="curve"/>
      <point x="660" y="-496" type="line"/>
      <point x="908" y="-282"/>
      <point x="1088" y="-166"/>
      <point x="1284" y="-166" type="curve" smooth="yes"/>
      <point x="1410" y="-166"/>
      <point x="1492" y="-224"/>
      <point x="1492" y="-328" type="curve" smooth="yes"/>
      <point x="1492" y="-442"/>
      <point x="1408" y="-496"/>
      <point x="1304" y="-496" type="curve" smooth="yes"/>
      <point x="1164" y="-496"/>
      <point x="1106" y="-408"/>
      <point x="1106" y="-272" type="curve" smooth="yes"/>
      <point x="1106" y="-194"/>
      <point x="1106" y="484"/>
      <point x="1106" y="484" type="curve"/>
      <point x="1106" y="484"/>
      <point x="552" y="484"/>
    </contour>
    <component base="l" xOffset="145"/>
  </outline>
</glyph>
<glyph name="uni0235" format="1">
  <advance width="3014"/>
  <unicode hex="0235"/>
  <outline>
    <contour>
      <point x="1512" y="484" type="curve"/>
      <point x="1512" y="484"/>
      <point x="1512" y="-130"/>
      <point x="1512" y="-130" type="curve"/>
      <point x="1512" y="-530"/>
      <point x="1686" y="-872"/>
      <point x="2260" y="-872" type="curve" smooth="yes"/>
      <point x="2710" y="-872"/>
      <point x="2954" y="-646"/>
      <point x="2954" y="-316" type="curve" smooth="yes"/>
      <point x="2954" y="24"/>
      <point x="2710" y="232"/>
      <point x="2306" y="232" type="curve" smooth="yes"/>
      <point x="1998" y="232"/>
      <point x="1768" y="146"/>
      <point x="1540" y="-10" type="curve"/>
      <point x="1002" y="-472" type="line"/>
      <point x="1002" y="-472"/>
      <point x="1262" y="-818"/>
      <point x="1262" y="-818" type="curve"/>
      <point x="1622" y="-496" type="line"/>
      <point x="1868" y="-282"/>
      <point x="2048" y="-166"/>
      <point x="2246" y="-166" type="curve" smooth="yes"/>
      <point x="2372" y="-166"/>
      <point x="2454" y="-224"/>
      <point x="2454" y="-328" type="curve" smooth="yes"/>
      <point x="2454" y="-442"/>
      <point x="2370" y="-496"/>
      <point x="2266" y="-496" type="curve" smooth="yes"/>
      <point x="2126" y="-496"/>
      <point x="2068" y="-408"/>
      <point x="2068" y="-272" type="curve" smooth="yes"/>
      <point x="2068" y="-194"/>
      <point x="2068" y="484"/>
      <point x="2068" y="484" type="curve"/>
      <point x="2068" y="484"/>
      <point x="1512" y="484"/>
    </contour>
    <contour>
      <point x="774" y="1702" type="line"/>
      <point x="740" y="2164" type="line"/>
      <point x="220" y="2164" type="line"/>
      <point x="220" y="0" type="line"/>
      <point x="774" y="0" type="line"/>
    </contour>
    <contour>
      <point x="688" y="1156" type="line"/>
      <point x="688" y="1490"/>
      <point x="850" y="1744"/>
      <point x="1158" y="1744" type="curve" smooth="yes"/>
      <point x="1386" y="1744"/>
      <point x="1512" y="1662"/>
      <point x="1512" y="1384" type="curve" smooth="yes"/>
      <point x="1512" y="0" type="line"/>
      <point x="2068" y="0" type="line"/>
      <point x="2068" y="1380" type="line" smooth="yes"/>
      <point x="2068" y="1988"/>
      <point x="1794" y="2204"/>
      <point x="1384" y="2204" type="curve" smooth="yes"/>
      <point x="870" y="2204"/>
      <point x="528" y="1796"/>
      <point x="528" y="1152" type="curve"/>
    </contour>
  </outline>
</glyph>
<glyph name="uni0237" format="1">
  <advance width="1140"/>
  <unicode hex="0237"/>
  <outline>
    <contour>
      <point x="306" y="2164" type="line"/>
      <point x="306" y="-78" type="line"/>
      <point x="306" y="-298"/>
      <point x="218" y="-418"/>
      <point x="64" y="-418" type="curve" smooth="yes"/>
      <point x="-2" y="-418"/>
      <point x="-78" y="-410"/>
      <point x="-134" y="-394" type="curve"/>
      <point x="-164" y="-840" type="line"/>
      <point x="-66" y="-866"/>
      <point x="16" y="-874"/>
      <point x="116" y="-874" type="curve" smooth="yes"/>
      <point x="580" y="-874"/>
      <point x="862" y="-592"/>
      <point x="862" y="-78" type="curve"/>
      <point x="862" y="2164" type="line"/>
    </contour>
    <contour>
      <point x="548" y="2526" type="move" name="top"/>
    </contour>
    <contour>
      <point x="862" y="0" type="move" name="_right"/>
    </contour>
    <contour>
      <point x="1140" y="2526" type="move" name="top0315"/>
    </contour>
  </outline>
</glyph>
<glyph name="uni023A" format="1">
  <advance width="2750"/>
  <unicode hex="023A"/>
  <outline>
    <contour>
      <point x="2824" y="3012" type="line"/>
      <point x="2430" y="3012" type="line"/>
      <point x="-396" y="-386" type="line"/>
      <point x="-4" y="-386" type="line"/>
    </contour>
    <component base="A"/>
  </outline>
</glyph>
<glyph name="uni023D" format="1">
  <advance width="2384"/>
  <unicode hex="023D"/>
  <outline>
    <component base="L"/>
    <component base="crossbar" xOffset="-118"/>
    <contour>
      <point x="704" y="3200" type="move" name="top"/>
    </contour>
    <contour>
      <point x="1208" y="20" type="move" name="bottom"/>
    </contour>
    <contour>
      <point x="2384" y="3200" type="move" name="top0315"/>
    </contour>
  </outline>
</glyph>
<glyph name="uni023F" format="1">
  <advance width="2098"/>
  <unicode hex="023F"/>
  <outline>
    <contour>
      <point x="1402" y="598" type="curve" smooth="yes"/>
      <point x="1402" y="458"/>
      <point x="1284" y="366"/>
      <point x="1052" y="366" type="curve" smooth="yes"/>
      <point x="838" y="366"/>
      <point x="688" y="444"/>
      <point x="592" y="676" type="curve"/>
      <point x="118" y="462" type="line"/>
      <point x="554" y="-330" type="line" smooth="yes"/>
      <point x="712" y="-620"/>
      <point x="904" y="-872"/>
      <point x="1238" y="-872" type="curve" smooth="yes"/>
      <point x="1466" y="-872"/>
      <point x="1642" y="-740"/>
      <point x="1770" y="-624" type="curve"/>
      <point x="1584" y="-296" type="line"/>
      <point x="1506" y="-368"/>
      <point x="1378" y="-444"/>
      <point x="1254" y="-444" type="curve" smooth="yes"/>
      <point x="1090" y="-444"/>
      <point x="1008" y="-254"/>
      <point x="884" y="-26" type="curve"/>
      <point x="930" y="-34"/>
      <point x="992" y="-40"/>
      <point x="1042" y="-40" type="curve" smooth="yes"/>
      <point x="1590" y="-40"/>
      <point x="1942" y="238"/>
      <point x="1942" y="622" type="curve" smooth="yes"/>
      <point x="1942" y="1002"/>
      <point x="1666" y="1188"/>
      <point x="1170" y="1290" type="curve" smooth="yes"/>
      <point x="942" y="1336"/>
      <point x="716" y="1382"/>
      <point x="716" y="1562" type="curve" smooth="yes"/>
      <point x="716" y="1694"/>
      <point x="830" y="1800"/>
      <point x="1036" y="1800" type="curve" smooth="yes"/>
      <point x="1270" y="1800"/>
      <point x="1378" y="1674"/>
      <point x="1378" y="1508" type="curve"/>
      <point x="1934" y="1508" type="line"/>
      <point x="1934" y="1910"/>
      <point x="1594" y="2204"/>
      <point x="1038" y="2204" type="curve" smooth="yes"/>
      <point x="504" y="2204"/>
      <point x="182" y="1894"/>
      <point x="182" y="1534" type="curve" smooth="yes"/>
      <point x="182" y="1146"/>
      <point x="538" y="966"/>
      <point x="958" y="878" type="curve" smooth="yes"/>
      <point x="1314" y="806"/>
      <point x="1402" y="722"/>
    </contour>
  </outline>
</glyph>
<glyph name="uni0240" format="1">
  <advance width="2396"/>
  <unicode hex="0240"/>
  <outline>
    <contour>
      <point x="310" y="456" type="line"/>
      <point x="310" y="0" type="line"/>
      <point x="808" y="0" type="line" smooth="yes"/>
      <point x="1382" y="0"/>
      <point x="1326" y="-872"/>
      <point x="1988" y="-872" type="curve" smooth="yes"/>
      <point x="2214" y="-872"/>
      <point x="2408" y="-742"/>
      <point x="2530" y="-624" type="curve"/>
      <point x="2344" y="-296" type="line"/>
      <point x="2276" y="-356"/>
      <point x="2160" y="-444"/>
      <point x="2040" y="-444" type="curve" smooth="yes"/>
      <point x="1696" y="-444"/>
      <point x="1654" y="456"/>
      <point x="968" y="456" type="curve" smooth="yes"/>
    </contour>
    <contour>
      <point x="1904" y="1828" type="line"/>
      <point x="1904" y="2164" type="line"/>
      <point x="1532" y="2164" type="line"/>
      <point x="152" y="348" type="line"/>
      <point x="152" y="0" type="line"/>
      <point x="520" y="0" type="line"/>
    </contour>
    <contour>
      <point x="1704" y="2164" type="line"/>
      <point x="182" y="2164" type="line"/>
      <point x="182" y="1708" type="line"/>
      <point x="1704" y="1708" type="line"/>
    </contour>
  </outline>
</glyph>
<glyph name="uni0241" format="1">
  <advance width="2164"/>
  <unicode hex="0241"/>
  <outline>
    <contour>
      <point x="842" y="1002" type="line"/>
      <point x="842" y="518" type="line"/>
      <point x="1016" y="518" type="line" smooth="yes"/>
      <point x="1686" y="518"/>
      <point x="2040" y="1000"/>
      <point x="2040" y="1610" type="curve" smooth="yes"/>
      <point x="2040" y="1858" type="line" smooth="yes"/>
      <point x="2040" y="2468"/>
      <point x="1686" y="2952"/>
      <point x="1020" y="2952" type="curve" smooth="yes"/>
      <point x="490" y="2952"/>
      <point x="104" y="2606"/>
      <point x="96" y="2082" type="curve"/>
      <point x="646" y="2082" type="line"/>
      <point x="652" y="2304"/>
      <point x="786" y="2468"/>
      <point x="1028" y="2468" type="curve" smooth="yes"/>
      <point x="1380" y="2468"/>
      <point x="1458" y="2168"/>
      <point x="1458" y="1858" type="curve" smooth="yes"/>
      <point x="1458" y="1610" type="line" smooth="yes"/>
      <point x="1458" y="1294"/>
      <point x="1382" y="1002"/>
      <point x="1026" y="1002" type="curve"/>
    </contour>
    <contour>
      <point x="1340" y="1002" type="line"/>
      <point x="764" y="1002" type="line"/>
      <point x="764" y="0" type="line"/>
      <point x="1340" y="0" type="line"/>
    </contour>
  </outline>
</glyph>
<glyph name="uni0242" format="1">
  <advance width="2064"/>
  <unicode hex="0242"/>
  <outline>
    <contour>
      <point x="170" y="1380" type="curve"/>
      <point x="724" y="1380" type="line"/>
      <point x="724" y="1604"/>
      <point x="848" y="1748"/>
      <point x="1034" y="1748" type="curve" smooth="yes"/>
      <point x="1304" y="1748"/>
      <point x="1376" y="1572"/>
      <point x="1376" y="1366" type="curve" smooth="yes"/>
      <point x="1376" y="1156"/>
      <point x="1298" y="962"/>
      <point x="1000" y="962" type="curve" smooth="yes"/>
      <point x="880" y="962" type="line"/>
      <point x="880" y="646" type="line"/>
      <point x="1136" y="646" type="line" smooth="yes"/>
      <point x="1642" y="646"/>
      <point x="1932" y="910"/>
      <point x="1932" y="1374" type="curve" smooth="yes"/>
      <point x="1932" y="1846"/>
      <point x="1650" y="2204"/>
      <point x="1034" y="2204" type="curve" smooth="yes"/>
      <point x="508" y="2204"/>
      <point x="170" y="1848"/>
    </contour>
    <contour>
      <point x="784" y="962" type="line"/>
      <point x="784" y="0" type="line"/>
      <point x="1338" y="0" type="line"/>
      <point x="1338" y="962" type="line"/>
    </contour>
  </outline>
</glyph>
<glyph name="uni0245" format="1">
  <advance width="2674"/>
  <unicode hex="0245"/>
  <outline>
    <contour>
      <point x="2014" y="0" type="line"/>
      <point x="2654" y="0" type="line"/>
      <point x="1630" y="2912" type="line"/>
      <point x="1204" y="2912" type="line"/>
      <point x="1302" y="2300" type="line"/>
    </contour>
    <contour>
      <point x="1364" y="2300" type="line"/>
      <point x="1468" y="2912" type="line"/>
      <point x="1038" y="2912" type="line"/>
      <point x="20" y="0" type="line"/>
      <point x="658" y="0" type="line"/>
    </contour>
  </outline>
</glyph>
<glyph name="uni0247" format="1">
  <advance width="2210"/>
  <unicode hex="0247"/>
  <outline>
    <contour>
      <point x="1930" y="2912" type="line"/>
      <point x="1596" y="2912" type="line"/>
      <point x="272" y="-834" type="line"/>
      <point x="608" y="-834" type="line"/>
    </contour>
    <contour>
      <point x="1216" y="-40" type="curve" smooth="yes"/>
      <point x="1640" y="-40"/>
      <point x="1920" y="156"/>
      <point x="2056" y="354" type="curve"/>
      <point x="1778" y="662" type="line"/>
      <point x="1646" y="498"/>
      <point x="1460" y="416"/>
      <point x="1238" y="416" type="curve" smooth="yes"/>
      <point x="886" y="416"/>
      <point x="670" y="630"/>
      <point x="670" y="926" type="curve" smooth="yes"/>
      <point x="670" y="1210" type="line" smooth="yes"/>
      <point x="670" y="1516"/>
      <point x="834" y="1748"/>
      <point x="1126" y="1748" type="curve" smooth="yes"/>
      <point x="1446" y="1748"/>
      <point x="1578" y="1558"/>
      <point x="1578" y="1334" type="curve" smooth="yes"/>
      <point x="1578" y="1288" type="line"/>
      <point x="398" y="1288" type="line"/>
      <point x="398" y="900" type="line"/>
      <point x="2100" y="900" type="line"/>
      <point x="2100" y="1140" type="line" smooth="yes"/>
      <point x="2100" y="1778"/>
      <point x="1778" y="2204"/>
      <point x="1154" y="2204" type="curve" smooth="yes"/>
      <point x="550" y="2204"/>
      <point x="152" y="1744"/>
      <point x="152" y="1086" type="curve" smooth="yes"/>
      <point x="152" y="1008" type="line" smooth="yes"/>
      <point x="152" y="428"/>
      <point x="550" y="-40"/>
    </contour>
  </outline>
</glyph>
<glyph name="uni024D" format="1">
  <advance width="1664"/>
  <unicode hex="024D"/>
  <outline>
    <component base="r"/>
    <component base="crossbar" xOffset="-118" yOffset="-208"/>
    <contour>
      <point x="884" y="2580" type="move" name="top"/>
    </contour>
    <contour>
      <point x="686" y="20" type="move" name="bottom"/>
    </contour>
    <contour>
      <point x="1664" y="2580" type="move" name="top0315"/>
    </contour>
  </outline>
</glyph>
<glyph name="ascriptturn" format="1">
  <advance width="2410"/>
  <unicode hex="0252"/>
  <outline>
    <contour>
      <point x="2256" y="1136" type="line"/>
      <point x="2256" y="1760"/>
      <point x="1956" y="2202"/>
      <point x="1412" y="2202" type="curve" smooth="yes"/>
      <point x="918" y="2202"/>
      <point x="704" y="1750"/>
      <point x="634" y="1140" type="curve"/>
      <point x="634" y="1066" type="line"/>
      <point x="704" y="430"/>
      <point x="918" y="-44"/>
      <point x="1408" y="-44" type="curve" smooth="yes"/>
      <point x="1958" y="-44"/>
      <point x="2256" y="430"/>
      <point x="2256" y="1094" type="curve" smooth="yes"/>
    </contour>
    <contour>
      <point x="1698" y="1094" type="line"/>
      <point x="1698" y="720"/>
      <point x="1582" y="412"/>
      <point x="1268" y="412" type="curve" smooth="yes"/>
      <point x="960" y="412"/>
      <point x="834" y="676"/>
      <point x="810" y="1042" type="curve"/>
      <point x="810" y="1180" type="line"/>
      <point x="842" y="1510"/>
      <point x="960" y="1746"/>
      <point x="1272" y="1746" type="curve" smooth="yes"/>
      <point x="1588" y="1746"/>
      <point x="1698" y="1484"/>
      <point x="1698" y="1136" type="curve" smooth="yes"/>
    </contour>
    <contour>
      <point x="832" y="-4" type="line"/>
      <point x="906" y="460" type="line"/>
      <point x="906" y="1466" type="line"/>
      <point x="906" y="1970"/>
      <point x="702" y="2202"/>
      <point x="366" y="2202" type="curve" smooth="yes"/>
      <point x="274" y="2202"/>
      <point x="200" y="2196"/>
      <point x="114" y="2152" type="curve"/>
      <point x="162" y="1726" type="line"/>
      <point x="172" y="1730"/>
      <point x="188" y="1734"/>
      <point x="208" y="1734" type="curve" smooth="yes"/>
      <point x="296" y="1734"/>
      <point x="352" y="1672"/>
      <point x="352" y="1466" type="curve"/>
      <point x="352" y="-4" type="line"/>
    </contour>
    <contour>
      <point x="2410" y="2580" type="move" name="top0315"/>
    </contour>
    <contour>
      <point x="1952" y="1308" type="move" name="rhotichook"/>
    </contour>
    <contour>
      <point x="1252" y="2580" type="move" name="top"/>
    </contour>
    <contour>
      <point x="1252" y="0" type="move" name="bottom"/>
    </contour>
  </outline>
</glyph>
<glyph name="ccurl" format="1">
  <advance width="2200"/>
  <unicode hex="0255"/>
  <outline>
    <contour>
      <point x="1224" y="416" type="curve" smooth="yes"/>
      <point x="828" y="416"/>
      <point x="746" y="688"/>
      <point x="746" y="1052" type="curve" smooth="yes"/>
      <point x="746" y="1110" type="line" smooth="yes"/>
      <point x="746" y="1438"/>
      <point x="824" y="1748"/>
      <point x="1176" y="1748" type="curve"/>
      <point x="1418" y="1748"/>
      <point x="1552" y="1574"/>
      <point x="1558" y="1362" type="curve"/>
      <point x="2080" y="1362" type="line"/>
      <point x="2074" y="1878"/>
      <point x="1714" y="2204"/>
      <point x="1184" y="2204" type="curve" smooth="yes"/>
      <point x="518" y="2204"/>
      <point x="190" y="1720"/>
      <point x="190" y="1110" type="curve" smooth="yes"/>
      <point x="190" y="1052" type="line" smooth="yes"/>
      <point x="190" y="442"/>
      <point x="518" y="-40"/>
      <point x="1188" y="-40" type="curve" smooth="yes"/>
      <point x="1746" y="-40"/>
      <point x="2080" y="268"/>
      <point x="2080" y="662" type="curve" smooth="yes"/>
      <point x="2080" y="936"/>
      <point x="1904" y="1186"/>
      <point x="1478" y="1186" type="curve" smooth="yes"/>
      <point x="1066" y="1186"/>
      <point x="818" y="956"/>
      <point x="390" y="378" type="curve"/>
      <point x="102" y="-12" type="line"/>
      <point x="444" y="-278" type="line"/>
      <point x="682" y="62" type="line"/>
      <point x="994" y="488"/>
      <point x="1222" y="748"/>
      <point x="1406" y="748" type="curve" smooth="yes"/>
      <point x="1484" y="748"/>
      <point x="1554" y="716"/>
      <point x="1554" y="620" type="curve" smooth="yes"/>
      <point x="1554" y="486"/>
      <point x="1396" y="416"/>
    </contour>
    <contour>
      <point x="1184" y="2580" type="move" name="top"/>
    </contour>
    <contour>
      <point x="1184" y="0" type="move" name="bottom"/>
    </contour>
    <contour>
      <point x="2200" y="2580" type="move" name="top0315"/>
    </contour>
  </outline>
</glyph>
<glyph name="schwa" format="1">
  <advance width="2168"/>
  <unicode hex="0259"/>
  <outline>
    <contour>
      <point x="1024" y="2206" type="curve"/>
      <point x="646" y="2206"/>
      <point x="364" y="2082"/>
      <point x="212" y="1956" type="curve"/>
      <point x="370" y="1592" type="line"/>
      <point x="530" y="1680"/>
      <point x="686" y="1750"/>
      <point x="972" y="1750" type="curve" smooth="yes"/>
      <point x="1326" y="1750"/>
      <point x="1492" y="1470"/>
      <point x="1492" y="1146" type="curve" smooth="yes"/>
      <point x="1492" y="1066" type="line" smooth="yes"/>
      <point x="1492" y="714"/>
      <point x="1360" y="418"/>
      <point x="1080" y="418" type="curve"/>
      <point x="818" y="418"/>
      <point x="708" y="584"/>
      <point x="708" y="820" type="curve"/>
      <point x="708" y="870" type="line"/>
      <point x="1800" y="870" type="line"/>
      <point x="1800" y="1260" type="line"/>
      <point x="162" y="1260" type="line"/>
      <point x="162" y="940" type="line" smooth="yes"/>
      <point x="162" y="348"/>
      <point x="482" y="-38"/>
      <point x="1080" y="-38" type="curve" smooth="yes"/>
      <point x="1666" y="-42"/>
      <point x="2048" y="434"/>
      <point x="2048" y="1066" type="curve" smooth="yes"/>
      <point x="2048" y="1146" type="line" smooth="yes"/>
      <point x="2048" y="1746"/>
      <point x="1658" y="2206"/>
    </contour>
    <contour>
      <point x="2168" y="2582" type="move" name="top0315"/>
    </contour>
    <contour>
      <point x="1774" y="1308" type="move" name="rhotichook"/>
    </contour>
    <contour>
      <point x="1096" y="2582" type="move" name="top"/>
    </contour>
    <contour>
      <point x="1908" y="86" type="move" name="right"/>
    </contour>
    <contour>
      <point x="1150" y="0" type="move" name="bottom"/>
    </contour>
  </outline>
</glyph>
<glyph name="epsilon1rev" format="1">
  <advance width="2270"/>
  <unicode hex="025C"/>
  <outline>
    <contour>
      <point x="734" y="1176" type="line"/>
      <point x="734" y="916" type="line"/>
      <point x="1114" y="916" type="line" smooth="yes"/>
      <point x="1368" y="916"/>
      <point x="1524" y="842"/>
      <point x="1524" y="652" type="curve" smooth="yes"/>
      <point x="1524" y="518"/>
      <point x="1384" y="388"/>
      <point x="1114" y="388" type="curve" smooth="yes"/>
      <point x="846" y="388"/>
      <point x="698" y="506"/>
      <point x="698" y="642" type="curve"/>
      <point x="144" y="642" type="line"/>
      <point x="144" y="168"/>
      <point x="624" y="-40"/>
      <point x="1086" y="-40" type="curve" smooth="yes"/>
      <point x="1650" y="-40"/>
      <point x="2078" y="202"/>
      <point x="2078" y="612" type="curve" smooth="yes"/>
      <point x="2078" y="974"/>
      <point x="1758" y="1176"/>
      <point x="1222" y="1176" type="curve"/>
    </contour>
    <contour>
      <point x="1222" y="1032" type="line"/>
      <point x="1706" y="1032"/>
      <point x="2040" y="1276"/>
      <point x="2040" y="1572" type="curve"/>
      <point x="2040" y="1982"/>
      <point x="1650" y="2202"/>
      <point x="1086" y="2202" type="curve" smooth="yes"/>
      <point x="592" y="2202"/>
      <point x="178" y="1956"/>
      <point x="178" y="1544" type="curve"/>
      <point x="732" y="1544" type="line"/>
      <point x="732" y="1688"/>
      <point x="896" y="1774"/>
      <point x="1112" y="1774" type="curve" smooth="yes"/>
      <point x="1376" y="1774"/>
      <point x="1486" y="1650"/>
      <point x="1486" y="1530" type="curve"/>
      <point x="1486" y="1388"/>
      <point x="1362" y="1296"/>
      <point x="1114" y="1296" type="curve" smooth="yes"/>
      <point x="734" y="1296" type="line"/>
      <point x="734" y="1032" type="line"/>
    </contour>
    <contour>
      <point x="2270" y="2580" type="move" name="top0315"/>
    </contour>
    <contour>
      <point x="1862" y="1558" type="move" name="rhotichook"/>
    </contour>
    <contour>
      <point x="1090" y="2580" type="move" name="top"/>
    </contour>
    <contour>
      <point x="1090" y="0" type="move" name="bottom"/>
    </contour>
  </outline>
</glyph>
<glyph name="epsilon1revclosed" format="1">
  <advance width="2208"/>
  <unicode hex="025E"/>
  <outline>
    <contour>
      <point x="1228" y="1032" type="line"/>
      <point x="1688" y="1032"/>
      <point x="1978" y="1276"/>
      <point x="1978" y="1572" type="curve"/>
      <point x="1978" y="1982"/>
      <point x="1634" y="2202"/>
      <point x="1094" y="2202" type="curve" smooth="yes"/>
      <point x="618" y="2202"/>
      <point x="142" y="1924"/>
      <point x="142" y="1092" type="curve"/>
      <point x="696" y="1092" type="line"/>
      <point x="696" y="1638"/>
      <point x="910" y="1774"/>
      <point x="1118" y="1774" type="curve" smooth="yes"/>
      <point x="1352" y="1774"/>
      <point x="1422" y="1650"/>
      <point x="1422" y="1530" type="curve"/>
      <point x="1422" y="1388"/>
      <point x="1342" y="1294"/>
      <point x="1120" y="1294" type="curve" smooth="yes"/>
      <point x="996" y="1294" type="line"/>
      <point x="996" y="1032" type="line"/>
    </contour>
    <contour>
      <point x="996" y="1176" type="line"/>
      <point x="996" y="920" type="line"/>
      <point x="1120" y="920" type="line" smooth="yes"/>
      <point x="1348" y="920"/>
      <point x="1462" y="842"/>
      <point x="1462" y="652" type="curve" smooth="yes"/>
      <point x="1462" y="518"/>
      <point x="1362" y="386"/>
      <point x="1120" y="386" type="curve" smooth="yes"/>
      <point x="864" y="386"/>
      <point x="696" y="560"/>
      <point x="696" y="1094" type="curve"/>
      <point x="142" y="1094" type="line"/>
      <point x="142" y="204"/>
      <point x="650" y="-40"/>
      <point x="1094" y="-40" type="curve" smooth="yes"/>
      <point x="1634" y="-40"/>
      <point x="2016" y="202"/>
      <point x="2016" y="612" type="curve" smooth="yes"/>
      <point x="2016" y="974"/>
      <point x="1738" y="1176"/>
      <point x="1228" y="1176" type="curve" smooth="yes"/>
    </contour>
    <contour>
      <point x="2208" y="2580" type="move" name="top0315"/>
    </contour>
    <contour>
      <point x="1618" y="1284" type="move" name="rhotichook"/>
    </contour>
    <contour>
      <point x="1094" y="2580" type="move" name="top"/>
    </contour>
    <contour>
      <point x="1094" y="0" type="move" name="bottom"/>
    </contour>
  </outline>
</glyph>
<glyph name="jdotlessbar" format="1">
  <advance width="1444"/>
  <unicode hex="025F"/>
  <outline>
    <contour>
      <point x="1424" y="364" type="line"/>
      <point x="110" y="364" type="line"/>
      <point x="110" y="2" type="line"/>
      <point x="1424" y="2" type="line"/>
    </contour>
    <contour>
      <point x="528" y="2164" type="line"/>
      <point x="528" y="-130" type="line" smooth="yes"/>
      <point x="528" y="-326"/>
      <point x="436" y="-410"/>
      <point x="268" y="-410" type="curve" smooth="yes"/>
      <point x="210" y="-410"/>
      <point x="148" y="-404"/>
      <point x="88" y="-392" type="curve"/>
      <point x="88" y="-840" type="line"/>
      <point x="180" y="-864"/>
      <point x="274" y="-874"/>
      <point x="370" y="-874" type="curve" smooth="yes"/>
      <point x="826" y="-874"/>
      <point x="1084" y="-612"/>
      <point x="1084" y="-130" type="curve" smooth="yes"/>
      <point x="1084" y="2164" type="line"/>
    </contour>
    <contour>
      <point x="814" y="2580" type="move" name="top"/>
    </contour>
    <contour>
      <point x="814" y="-894" type="move" name="bottom"/>
    </contour>
    <contour>
      <point x="1444" y="2580" type="move" name="top0315"/>
    </contour>
  </outline>
</glyph>
<glyph name="ghook" format="1">
  <advance width="2568"/>
  <unicode hex="0260"/>
  <outline>
    <contour>
      <point x="2106" y="1780" type="line"/>
      <point x="2106" y="2136" type="line" smooth="yes"/>
      <point x="2106" y="2360"/>
      <point x="2270" y="2420"/>
      <point x="2434" y="2420" type="curve" smooth="yes"/>
      <point x="2480" y="2420"/>
      <point x="2526" y="2414"/>
      <point x="2574" y="2406" type="curve"/>
      <point x="2574" y="2786" type="line"/>
      <point x="2496" y="2806"/>
      <point x="2398" y="2816"/>
      <point x="2284" y="2816" type="curve" smooth="yes"/>
      <point x="1944" y="2816"/>
      <point x="1548" y="2698"/>
      <point x="1548" y="2136" type="curve" smooth="yes"/>
      <point x="1548" y="1780" type="line"/>
    </contour>
    <contour>
      <point x="1604" y="2164" type="line"/>
      <point x="1550" y="1664" type="line"/>
      <point x="1550" y="68" type="line" smooth="yes"/>
      <point x="1550" y="-240"/>
      <point x="1364" y="-410"/>
      <point x="1054" y="-410" type="curve" smooth="yes"/>
      <point x="846" y="-410"/>
      <point x="662" y="-322"/>
      <point x="522" y="-168" type="curve"/>
      <point x="274" y="-512" type="line"/>
      <point x="460" y="-748"/>
      <point x="824" y="-852"/>
      <point x="1080" y="-852" type="curve" smooth="yes"/>
      <point x="1690" y="-852"/>
      <point x="2106" y="-520"/>
      <point x="2106" y="72" type="curve" smooth="yes"/>
      <point x="2106" y="2164" type="line"/>
    </contour>
    <contour>
      <point x="144" y="1056" type="line"/>
      <point x="144" y="426"/>
      <point x="480" y="-40"/>
      <point x="1016" y="-40" type="curve" smooth="yes"/>
      <point x="1552" y="-40"/>
      <point x="1784" y="424"/>
      <point x="1860" y="1034" type="curve"/>
      <point x="1860" y="1108" type="line"/>
      <point x="1784" y="1744"/>
      <point x="1592" y="2204"/>
      <point x="1020" y="2204" type="curve" smooth="yes"/>
      <point x="478" y="2204"/>
      <point x="144" y="1756"/>
      <point x="144" y="1098" type="curve" smooth="yes"/>
    </contour>
    <contour>
      <point x="700" y="1098" type="line"/>
      <point x="700" y="1460"/>
      <point x="846" y="1744"/>
      <point x="1160" y="1744" type="curve" smooth="yes"/>
      <point x="1476" y="1744"/>
      <point x="1616" y="1532"/>
      <point x="1638" y="1198" type="curve"/>
      <point x="1638" y="944" type="line"/>
      <point x="1608" y="638"/>
      <point x="1476" y="420"/>
      <point x="1156" y="420" type="curve" smooth="yes"/>
      <point x="840" y="420"/>
      <point x="700" y="702"/>
      <point x="700" y="1056" type="curve" smooth="yes"/>
    </contour>
    <contour>
      <point x="1108" y="2580" type="move" name="top"/>
    </contour>
    <contour>
      <point x="1108" y="-894" type="move" name="bottom"/>
    </contour>
    <contour>
      <point x="2568" y="2580" type="move" name="top0315"/>
    </contour>
  </outline>
</glyph>
<glyph name="Gsmallcap" format="1">
  <advance width="2498"/>
  <unicode hex="0262"/>
  <outline>
    <contour>
      <point x="2258" y="1158" type="line"/>
      <point x="1266" y="1158" type="line"/>
      <point x="1266" y="768" type="line"/>
      <point x="1714" y="768" type="line"/>
      <point x="1714" y="504" type="line"/>
      <point x="1650" y="462"/>
      <point x="1534" y="416"/>
      <point x="1266" y="416" type="curve" smooth="yes"/>
      <point x="940" y="416"/>
      <point x="752" y="632"/>
      <point x="752" y="922" type="curve" smooth="yes"/>
      <point x="752" y="1252" type="line" smooth="yes"/>
      <point x="752" y="1544"/>
      <point x="942" y="1754"/>
      <point x="1242" y="1754" type="curve" smooth="yes"/>
      <point x="1510" y="1754"/>
      <point x="1638" y="1660"/>
      <point x="1678" y="1442" type="curve"/>
      <point x="2232" y="1442" type="line"/>
      <point x="2178" y="1940"/>
      <point x="1846" y="2206"/>
      <point x="1242" y="2206" type="curve" smooth="yes"/>
      <point x="634" y="2206"/>
      <point x="196" y="1816"/>
      <point x="196" y="1250" type="curve" smooth="yes"/>
      <point x="196" y="922" type="line" smooth="yes"/>
      <point x="196" y="356"/>
      <point x="636" y="-36"/>
      <point x="1266" y="-36" type="curve" smooth="yes"/>
      <point x="1838" y="-36"/>
      <point x="2124" y="164"/>
      <point x="2258" y="322" type="curve"/>
    </contour>
    <contour>
      <point x="1246" y="2580" type="move" name="top"/>
    </contour>
    <contour>
      <point x="1246" y="0" type="move" name="bottom"/>
    </contour>
    <contour>
      <point x="2498" y="2580" type="move" name="top0315"/>
    </contour>
  </outline>
</glyph>
<glyph name="gamma1" format="1">
  <advance width="2290"/>
  <unicode hex="0263"/>
  <outline>
    <contour>
      <point x="1144" y="-874" type="curve" smooth="yes"/>
      <point x="1522" y="-874"/>
      <point x="1814" y="-706"/>
      <point x="1814" y="-352" type="curve" smooth="yes"/>
      <point x="1814" y="-248"/>
      <point x="1772" y="-100"/>
      <point x="1680" y="80" type="curve" smooth="yes"/>
      <point x="608" y="2164" type="line"/>
      <point x="608" y="2164"/>
      <point x="22" y="2164"/>
      <point x="22" y="2164" type="curve"/>
      <point x="1052" y="224" type="line" smooth="yes"/>
      <point x="1202" y="-56"/>
      <point x="1258" y="-194"/>
      <point x="1258" y="-310" type="curve" smooth="yes"/>
      <point x="1258" y="-390"/>
      <point x="1238" y="-460"/>
      <point x="1144" y="-460" type="curve" smooth="yes"/>
      <point x="1056" y="-460"/>
      <point x="1030" y="-392"/>
      <point x="1030" y="-310" type="curve" smooth="yes"/>
      <point x="1030" y="-196"/>
      <point x="1108" y="-54"/>
      <point x="1252" y="220" type="curve" smooth="yes"/>
      <point x="2268" y="2164" type="line"/>
      <point x="2268" y="2164"/>
      <point x="1684" y="2164"/>
      <point x="1684" y="2164" type="curve"/>
      <point x="590" y="64" type="line" smooth="yes"/>
      <point x="500" y="-108"/>
      <point x="462" y="-252"/>
      <point x="462" y="-352" type="curve" smooth="yes"/>
      <point x="462" y="-706"/>
      <point x="766" y="-874"/>
    </contour>
    <contour>
      <point x="1150" y="2580" type="move" name="top"/>
    </contour>
    <contour>
      <point x="1150" y="-894" type="move" name="bottom"/>
    </contour>
    <contour>
      <point x="2290" y="2580" type="move" name="top0315"/>
    </contour>
  </outline>
</glyph>
<glyph name="hturn" format="1">
  <advance width="2288"/>
  <unicode hex="0265"/>
  <outline>
    <contour>
      <point x="1516" y="-834" type="line"/>
      <point x="2070" y="-834" type="line"/>
      <point x="2070" y="2164" type="line"/>
      <point x="1516" y="2164" type="line"/>
    </contour>
    <contour>
      <point x="1602" y="1008" type="line"/>
      <point x="1602" y="674"/>
      <point x="1462" y="420"/>
      <point x="1132" y="420" type="curve"/>
      <point x="904" y="420"/>
      <point x="776" y="510"/>
      <point x="776" y="792" type="curve" smooth="yes"/>
      <point x="776" y="2164" type="line"/>
      <point x="220" y="2164" type="line"/>
      <point x="220" y="796" type="line" smooth="yes"/>
      <point x="220" y="188"/>
      <point x="506" y="-40"/>
      <point x="932" y="-40" type="curve" smooth="yes"/>
      <point x="1432" y="-40"/>
      <point x="1762" y="404"/>
      <point x="1762" y="1012" type="curve"/>
    </contour>
    <contour>
      <point x="1134" y="2580" type="move" name="top"/>
    </contour>
    <contour>
      <point x="1128" y="-894" type="move" name="bottom"/>
    </contour>
    <contour>
      <point x="2288" y="2580" type="move" name="top0315"/>
    </contour>
  </outline>
</glyph>
<glyph name="iota1" format="1">
  <advance width="1338"/>
  <unicode hex="0269"/>
  <outline>
    <contour>
      <point x="216" y="2164" type="line"/>
      <point x="216" y="638" type="line" smooth="yes"/>
      <point x="216" y="78"/>
      <point x="610" y="-40"/>
      <point x="952" y="-40" type="curve" smooth="yes"/>
      <point x="1068" y="-40"/>
      <point x="1162" y="-30"/>
      <point x="1240" y="-12" type="curve"/>
      <point x="1240" y="368" type="line"/>
      <point x="1194" y="360"/>
      <point x="1144" y="354"/>
      <point x="1098" y="354" type="curve" smooth="yes"/>
      <point x="934" y="354"/>
      <point x="772" y="416"/>
      <point x="772" y="638" type="curve" smooth="yes"/>
      <point x="772" y="2164" type="line"/>
    </contour>
    <contour>
      <point x="1338" y="2580" type="move" name="top0315"/>
    </contour>
    <contour>
      <point x="530" y="1294" type="move" name="rhotichook"/>
    </contour>
    <contour>
      <point x="494" y="2580" type="move" name="top"/>
    </contour>
    <contour>
      <point x="494" y="0" type="move" name="bottom"/>
    </contour>
  </outline>
</glyph>
<glyph name="Ismallcap" format="1">
  <advance width="1502"/>
  <unicode hex="026A"/>
  <outline>
    <contour>
      <point x="1328" y="2166" type="line"/>
      <point x="174" y="2166" type="line"/>
      <point x="174" y="1708" type="line"/>
      <point x="1328" y="1708" type="line"/>
    </contour>
    <contour>
      <point x="1024" y="2164" type="line"/>
      <point x="470" y="2164" type="line"/>
      <point x="470" y="0" type="line"/>
      <point x="1024" y="0" type="line"/>
    </contour>
    <contour>
      <point x="1328" y="456" type="line"/>
      <point x="174" y="456" type="line"/>
      <point x="174" y="0" type="line"/>
      <point x="1328" y="0" type="line"/>
    </contour>
    <contour>
      <point x="750" y="2580" type="move" name="top"/>
    </contour>
    <contour>
      <point x="750" y="0" type="move" name="bottom"/>
    </contour>
    <contour>
      <point x="1502" y="2580" type="move" name="top0315"/>
    </contour>
  </outline>
</glyph>
<glyph name="lmidtilde" format="1">
  <advance width="1076"/>
  <unicode hex="026B"/>
  <outline>
    <component base="l"/>
    <component base="tilde" xOffset="-448" yOffset="784"/>
    <contour>
      <point x="1612" y="3200" type="move" name="top0315"/>
    </contour>
    <contour>
      <point x="796" y="3200" type="move" name="top"/>
    </contour>
    <contour>
      <point x="804" y="1636" type="move" name="parenthesses.w2"/>
    </contour>
    <contour>
      <point x="796" y="0" type="move" name="bottom"/>
    </contour>
  </outline>
</glyph>
<glyph name="lrthook" format="1">
  <advance width="1366"/>
  <unicode hex="026D"/>
  <outline>
    <contour>
      <point x="308" y="3072" type="line"/>
      <point x="308" y="-194" type="line" smooth="yes"/>
      <point x="308" y="-754"/>
      <point x="702" y="-872"/>
      <point x="1044" y="-872" type="curve" smooth="yes"/>
      <point x="1160" y="-872"/>
      <point x="1254" y="-862"/>
      <point x="1332" y="-844" type="curve"/>
      <point x="1332" y="-466" type="line"/>
      <point x="1286" y="-474"/>
      <point x="1236" y="-478"/>
      <point x="1190" y="-478" type="curve" smooth="yes"/>
      <point x="1026" y="-478"/>
      <point x="864" y="-418"/>
      <point x="864" y="-194" type="curve" smooth="yes"/>
      <point x="864" y="3072" type="line"/>
    </contour>
    <contour>
      <point x="584" y="3200" type="move" name="top"/>
    </contour>
    <contour>
      <point x="584" y="-894" type="move" name="bottom"/>
    </contour>
    <contour>
      <point x="1366" y="3200" type="move" name="top0315"/>
    </contour>
  </outline>
</glyph>
<glyph name="mturn" format="1">
  <advance width="3552"/>
  <unicode hex="026F"/>
  <outline>
    <contour>
      <point x="928" y="-40" type="curve" smooth="yes"/>
      <point x="1482" y="-40"/>
      <point x="1768" y="406"/>
      <point x="1768" y="972" type="curve"/>
      <point x="1544" y="942" type="line"/>
      <point x="1544" y="646"/>
      <point x="1404" y="420"/>
      <point x="1128" y="420" type="curve" smooth="yes"/>
      <point x="916" y="420"/>
      <point x="786" y="488"/>
      <point x="786" y="780" type="curve" smooth="yes"/>
      <point x="786" y="2164" type="line"/>
      <point x="230" y="2164" type="line"/>
      <point x="230" y="782" type="line" smooth="yes"/>
      <point x="230" y="182"/>
      <point x="502" y="-40"/>
    </contour>
    <contour>
      <point x="2162" y="-40" type="curve" smooth="yes"/>
      <point x="2724" y="-40"/>
      <point x="3018" y="404"/>
      <point x="3018" y="1012" type="curve"/>
      <point x="2848" y="1008" type="line"/>
      <point x="2848" y="674"/>
      <point x="2714" y="420"/>
      <point x="2396" y="420" type="curve" smooth="yes"/>
      <point x="2184" y="420"/>
      <point x="2054" y="496"/>
      <point x="2054" y="786" type="curve" smooth="yes"/>
      <point x="2054" y="2164" type="line"/>
      <point x="1500" y="2164" type="line"/>
      <point x="1500" y="720" type="line" smooth="yes"/>
      <point x="1500" y="180"/>
      <point x="1774" y="-40"/>
    </contour>
    <contour>
      <point x="2766" y="448" type="line"/>
      <point x="2800" y="0" type="line"/>
      <point x="3322" y="0" type="line"/>
      <point x="3322" y="2164" type="line"/>
      <point x="2766" y="2164" type="line"/>
    </contour>
    <contour>
      <point x="1784" y="2580" type="move" name="top"/>
    </contour>
    <contour>
      <point x="1784" y="0" type="move" name="bottom"/>
    </contour>
    <contour>
      <point x="3552" y="2580" type="move" name="top0315"/>
    </contour>
  </outline>
</glyph>
<glyph name="mhook" format="1">
  <advance width="3552"/>
  <unicode hex="0271"/>
  <outline>
    <contour>
      <point x="2766" y="514" type="line"/>
      <point x="2766" y="-194" type="line" smooth="yes"/>
      <point x="2766" y="-418"/>
      <point x="2604" y="-478"/>
      <point x="2440" y="-478" type="curve" smooth="yes"/>
      <point x="2394" y="-478"/>
      <point x="2346" y="-472"/>
      <point x="2298" y="-464" type="curve"/>
      <point x="2298" y="-842" type="line"/>
      <point x="2378" y="-862"/>
      <point x="2472" y="-872"/>
      <point x="2586" y="-872" type="curve" smooth="yes"/>
      <point x="2928" y="-872"/>
      <point x="3322" y="-754"/>
      <point x="3322" y="-194" type="curve" smooth="yes"/>
      <point x="3322" y="514" type="line"/>
    </contour>
    <component base="m"/>
    <contour>
      <point x="1790" y="2580" type="move" name="top"/>
    </contour>
    <contour>
      <point x="1790" y="-894" type="move" name="bottom"/>
    </contour>
    <contour>
      <point x="3552" y="2580" type="move" name="top0315"/>
    </contour>
  </outline>
</glyph>
<glyph name="nlfthook" format="1">
  <advance width="2532"/>
  <unicode hex="0272"/>
  <outline>
    <contour>
      <point x="462" y="514" type="line"/>
      <point x="462" y="-194" type="line" smooth="yes"/>
      <point x="462" y="-418"/>
      <point x="298" y="-478"/>
      <point x="134" y="-478" type="curve" smooth="yes"/>
      <point x="88" y="-478"/>
      <point x="40" y="-472"/>
      <point x="-8" y="-464" type="curve"/>
      <point x="-8" y="-842" type="line"/>
      <point x="72" y="-862"/>
      <point x="168" y="-872"/>
      <point x="280" y="-872" type="curve" smooth="yes"/>
      <point x="622" y="-872"/>
      <point x="1016" y="-754"/>
      <point x="1016" y="-194" type="curve" smooth="yes"/>
      <point x="1016" y="514" type="line"/>
    </contour>
    <component base="n" xOffset="121"/>
    <contour>
      <point x="1408" y="2580" type="move" name="top"/>
    </contour>
    <contour>
      <point x="1408" y="-894" type="move" name="bottom"/>
    </contour>
    <contour>
      <point x="2532" y="2580" type="move" name="top0315"/>
    </contour>
  </outline>
</glyph>
<glyph name="OEsmallcap" format="1">
  <advance width="3368"/>
  <unicode hex="0276"/>
  <outline>
    <contour>
      <point x="3176" y="452" type="line"/>
      <point x="1936" y="452" type="line"/>
      <point x="1936" y="0" type="line"/>
      <point x="3176" y="0" type="line"/>
    </contour>
    <contour>
      <point x="2124" y="2164" type="line"/>
      <point x="1568" y="2164" type="line"/>
      <point x="1568" y="0" type="line"/>
      <point x="2124" y="0" type="line"/>
    </contour>
    <contour>
      <point x="3004" y="1316" type="line"/>
      <point x="1936" y="1316" type="line"/>
      <point x="1936" y="862" type="line"/>
      <point x="3004" y="862" type="line"/>
    </contour>
    <contour>
      <point x="3176" y="2164" type="line"/>
      <point x="1936" y="2164" type="line"/>
      <point x="1936" y="1712" type="line"/>
      <point x="3176" y="1712" type="line"/>
    </contour>
    <contour>
      <point x="1186" y="-40" type="curve" smooth="yes"/>
      <point x="1426" y="-40"/>
      <point x="1570" y="0"/>
      <point x="1938" y="0" type="curve"/>
      <point x="1938" y="452" type="line"/>
      <point x="1570" y="452"/>
      <point x="1404" y="416"/>
      <point x="1186" y="416" type="curve" smooth="yes"/>
      <point x="850" y="416"/>
      <point x="720" y="704"/>
      <point x="720" y="1060" type="curve"/>
      <point x="720" y="1102" type="line" smooth="yes"/>
      <point x="720" y="1450"/>
      <point x="850" y="1748"/>
      <point x="1182" y="1748" type="curve" smooth="yes"/>
      <point x="1406" y="1748"/>
      <point x="1570" y="1712"/>
      <point x="1940" y="1712" type="curve"/>
      <point x="1940" y="2164" type="line"/>
      <point x="1572" y="2164"/>
      <point x="1428" y="2204"/>
      <point x="1182" y="2204" type="curve" smooth="yes"/>
      <point x="536" y="2204"/>
      <point x="164" y="1732"/>
      <point x="164" y="1102" type="curve"/>
      <point x="164" y="1060" type="line" smooth="yes"/>
      <point x="164" y="430"/>
      <point x="536" y="-40"/>
    </contour>
    <contour>
      <point x="1762" y="2580" type="move" name="top"/>
    </contour>
    <contour>
      <point x="1762" y="0" type="move" name="bottom"/>
    </contour>
    <contour>
      <point x="3368" y="2580" type="move" name="top0315"/>
    </contour>
  </outline>
</glyph>
<glyph name="rdescend" format="1">
  <advance width="1482"/>
  <unicode hex="027C"/>
  <outline>
    <contour>
      <point x="784" y="1692" type="line"/>
      <point x="754" y="2164" type="line"/>
      <point x="230" y="2164" type="line"/>
      <point x="230" y="-834" type="line"/>
      <point x="784" y="-834" type="line"/>
    </contour>
    <contour>
      <point x="1432" y="2178" type="line"/>
      <point x="1392" y="2194"/>
      <point x="1314" y="2204"/>
      <point x="1254" y="2204" type="curve"/>
      <point x="840" y="2204"/>
      <point x="620" y="1792"/>
      <point x="620" y="1234" type="curve"/>
      <point x="736" y="1200" type="line"/>
      <point x="750" y="1488"/>
      <point x="898" y="1652"/>
      <point x="1218" y="1652" type="curve"/>
      <point x="1284" y="1652"/>
      <point x="1366" y="1644"/>
      <point x="1426" y="1636" type="curve"/>
    </contour>
    <contour>
      <point x="1026" y="2580" type="move" name="top"/>
    </contour>
    <contour>
      <point x="1026" y="-894" type="move" name="bottom"/>
    </contour>
    <contour>
      <point x="1482" y="2580" type="move" name="top0315"/>
    </contour>
  </outline>
</glyph>
<glyph name="rfishhook" format="1">
  <advance width="1306"/>
  <unicode hex="027E"/>
  <outline>
    <contour>
      <point x="786" y="0" type="line"/>
      <point x="786" y="1526" type="line" smooth="yes"/>
      <point x="786" y="1748"/>
      <point x="950" y="1808"/>
      <point x="1114" y="1808" type="curve" smooth="yes"/>
      <point x="1160" y="1808"/>
      <point x="1208" y="1804"/>
      <point x="1256" y="1794" type="curve"/>
      <point x="1256" y="2174" type="line"/>
      <point x="1176" y="2194"/>
      <point x="1078" y="2204"/>
      <point x="964" y="2204" type="curve" smooth="yes"/>
      <point x="624" y="2204"/>
      <point x="230" y="2086"/>
      <point x="230" y="1526" type="curve" smooth="yes"/>
      <point x="230" y="0" type="line"/>
    </contour>
    <contour>
      <point x="516" y="2580" type="move" name="top"/>
    </contour>
    <contour>
      <point x="516" y="0" type="move" name="bottom"/>
    </contour>
    <contour>
      <point x="1306" y="2580" type="move" name="top0315"/>
    </contour>
  </outline>
</glyph>
<glyph name="Rsmallcap" format="1">
  <advance width="2290"/>
  <unicode hex="0280"/>
  <outline>
    <contour>
      <point x="996" y="1082" type="line"/>
      <point x="1604" y="0" type="line"/>
      <point x="2170" y="0" type="line"/>
      <point x="1562" y="1082" type="line"/>
    </contour>
    <contour>
      <point x="236" y="2164" type="line"/>
      <point x="236" y="0" type="line"/>
      <point x="790" y="0" type="line"/>
      <point x="790" y="1712" type="line"/>
      <point x="1184" y="1712" type="line" smooth="yes"/>
      <point x="1428" y="1712"/>
      <point x="1540" y="1574"/>
      <point x="1540" y="1428" type="curve" smooth="yes"/>
      <point x="1540" y="1286"/>
      <point x="1432" y="1152"/>
      <point x="1198" y="1152" type="curve" smooth="yes"/>
      <point x="592" y="1152" type="line"/>
      <point x="592" y="756" type="line"/>
      <point x="1198" y="756" type="line" smooth="yes"/>
      <point x="1756" y="756"/>
      <point x="2096" y="1046"/>
      <point x="2096" y="1444" type="curve" smooth="yes"/>
      <point x="2096" y="1860"/>
      <point x="1750" y="2164"/>
      <point x="1184" y="2164" type="curve" smooth="yes"/>
    </contour>
    <contour>
      <point x="1104" y="2580" type="move" name="top"/>
    </contour>
    <contour>
      <point x="1104" y="0" type="move" name="bottom"/>
    </contour>
    <contour>
      <point x="2290" y="2580" type="move" name="top0315"/>
    </contour>
  </outline>
</glyph>
<glyph name="srthook" format="1">
  <advance width="2110"/>
  <unicode hex="0282"/>
  <outline>
    <contour>
      <point x="122" y="688" type="line"/>
      <point x="122" y="-166" type="line" smooth="yes"/>
      <point x="122" y="-604"/>
      <point x="388" y="-846"/>
      <point x="778" y="-846" type="curve" smooth="yes"/>
      <point x="858" y="-846"/>
      <point x="938" y="-838"/>
      <point x="1018" y="-816" type="curve"/>
      <point x="1018" y="-436" type="line"/>
      <point x="970" y="-444"/>
      <point x="922" y="-450"/>
      <point x="876" y="-450" type="curve" smooth="yes"/>
      <point x="712" y="-450"/>
      <point x="548" y="-390"/>
      <point x="548" y="-166" type="curve" smooth="yes"/>
      <point x="548" y="688" type="line"/>
    </contour>
    <component base="s"/>
    <contour>
      <point x="1052" y="2580" type="move" name="top"/>
    </contour>
    <contour>
      <point x="1052" y="-894" type="move" name="bottom"/>
    </contour>
    <contour>
      <point x="2110" y="2580" type="move" name="top0315"/>
    </contour>
  </outline>
</glyph>
<glyph name="eshshortrev" format="1">
  <advance width="1692"/>
  <unicode hex="0285"/>
  <outline>
    <contour>
      <point x="1124" y="0" type="line"/>
      <point x="1124" y="1444" type="line" smooth="yes"/>
      <point x="1124" y="1936"/>
      <point x="824" y="2204"/>
      <point x="340" y="2204" type="curve" smooth="yes"/>
      <point x="238" y="2204"/>
      <point x="140" y="2188"/>
      <point x="50" y="2166" type="curve"/>
      <point x="58" y="1726" type="line"/>
      <point x="108" y="1738"/>
      <point x="166" y="1744"/>
      <point x="236" y="1744" type="curve" smooth="yes"/>
      <point x="448" y="1744"/>
      <point x="568" y="1638"/>
      <point x="568" y="1444" type="curve" smooth="yes"/>
      <point x="568" y="0" type="line"/>
    </contour>
    <contour>
      <point x="568" y="1332" type="line"/>
      <point x="568" y="-114" type="line" smooth="yes"/>
      <point x="568" y="-606"/>
      <point x="870" y="-874"/>
      <point x="1354" y="-874" type="curve" smooth="yes"/>
      <point x="1456" y="-874"/>
      <point x="1552" y="-858"/>
      <point x="1644" y="-836" type="curve"/>
      <point x="1636" y="-396" type="line"/>
      <point x="1586" y="-408"/>
      <point x="1526" y="-414"/>
      <point x="1456" y="-414" type="curve" smooth="yes"/>
      <point x="1244" y="-414"/>
      <point x="1124" y="-308"/>
      <point x="1124" y="-114" type="curve" smooth="yes"/>
      <point x="1124" y="1332" type="line"/>
    </contour>
    <contour>
      <point x="428" y="2580" type="move" name="top"/>
    </contour>
    <contour>
      <point x="1240" y="-894" type="move" name="bottom"/>
    </contour>
    <contour>
      <point x="1692" y="2580" type="move" name="top0315"/>
    </contour>
  </outline>
</glyph>
<glyph name="tturn" format="1">
  <advance width="1380"/>
  <unicode hex="0287"/>
  <outline>
    <contour>
      <point x="106" y="532" type="line"/>
      <point x="1360" y="532" type="line"/>
      <point x="1360" y="946" type="line"/>
      <point x="106" y="946" type="line"/>
    </contour>
    <contour>
      <point x="1034" y="0" type="line"/>
      <point x="1034" y="2100" type="line"/>
      <point x="1034" y="2558"/>
      <point x="792" y="2736"/>
      <point x="428" y="2736" type="curve" smooth="yes"/>
      <point x="286" y="2736"/>
      <point x="178" y="2714"/>
      <point x="86" y="2684" type="curve"/>
      <point x="86" y="2254" type="line"/>
      <point x="126" y="2262"/>
      <point x="186" y="2270"/>
      <point x="256" y="2270" type="curve" smooth="yes"/>
      <point x="400" y="2270"/>
      <point x="478" y="2228"/>
      <point x="478" y="2044" type="curve"/>
      <point x="478" y="0" type="line"/>
    </contour>
    <contour>
      <point x="482" y="3200" type="move" name="top"/>
    </contour>
    <contour>
      <point x="748" y="0" type="move" name="bottom"/>
    </contour>
    <contour>
      <point x="1380" y="3200" type="move" name="top0315"/>
    </contour>
  </outline>
</glyph>
<glyph name="vturn" format="1">
  <advance width="2058"/>
  <unicode hex="028C"/>
  <outline>
    <contour>
      <point x="1100" y="1738" type="line"/>
      <point x="1122" y="2164" type="line"/>
      <point x="768" y="2164" type="line"/>
      <point x="34" y="0" type="line"/>
      <point x="612" y="0" type="line"/>
    </contour>
    <contour>
      <point x="1444" y="0" type="line"/>
      <point x="2024" y="0" type="line"/>
      <point x="1286" y="2164" type="line"/>
      <point x="934" y="2164" type="line"/>
      <point x="950" y="1740" type="line"/>
    </contour>
    <contour>
      <point x="1028" y="2580" type="move" name="top"/>
    </contour>
    <contour>
      <point x="1028" y="0" type="move" name="bottom"/>
    </contour>
    <contour>
      <point x="2058" y="2580" type="move" name="top0315"/>
    </contour>
  </outline>
</glyph>
<glyph name="Ysmallcap" format="1">
  <advance width="2178"/>
  <unicode hex="028F"/>
  <outline>
    <contour>
      <point x="964" y="928" type="line"/>
      <point x="1030" y="642" type="line"/>
      <point x="1330" y="642" type="line"/>
      <point x="2168" y="2164" type="line"/>
      <point x="1564" y="2164" type="line"/>
    </contour>
    <contour>
      <point x="614" y="2164" type="line"/>
      <point x="8" y="2164" type="line"/>
      <point x="846" y="642" type="line"/>
      <point x="1148" y="642" type="line"/>
      <point x="1220" y="916" type="line"/>
    </contour>
    <contour>
      <point x="1360" y="976" type="line"/>
      <point x="806" y="976" type="line"/>
      <point x="806" y="0" type="line"/>
      <point x="1360" y="0" type="line"/>
    </contour>
    <contour>
      <point x="1090" y="2580" type="move" name="top"/>
    </contour>
    <contour>
      <point x="1090" y="0" type="move" name="bottom"/>
    </contour>
    <contour>
      <point x="2178" y="2580" type="move" name="top0315"/>
    </contour>
  </outline>
</glyph>
<glyph name="zcurl" format="1">
  <advance width="2618"/>
  <unicode hex="0291"/>
  <outline>
    <contour>
      <point x="1120" y="0" type="line"/>
      <point x="1772" y="0" type="line"/>
      <point x="2226" y="0"/>
      <point x="2558" y="276"/>
      <point x="2558" y="696" type="curve" smooth="yes"/>
      <point x="2558" y="1030"/>
      <point x="2382" y="1226"/>
      <point x="2044" y="1226" type="curve" smooth="yes"/>
      <point x="1646" y="1226"/>
      <point x="1400" y="868"/>
      <point x="820" y="34" type="curve"/>
      <point x="616" y="-260" type="line"/>
      <point x="952" y="-504" type="line"/>
      <point x="1306" y="30" type="line"/>
      <point x="1708" y="646"/>
      <point x="1834" y="832"/>
      <point x="1982" y="832" type="curve" smooth="yes"/>
      <point x="2068" y="832"/>
      <point x="2122" y="786"/>
      <point x="2122" y="684" type="curve" smooth="yes"/>
      <point x="2122" y="558"/>
      <point x="2008" y="456"/>
      <point x="1802" y="456" type="curve" smooth="yes"/>
      <point x="1120" y="456" type="line"/>
    </contour>
    <contour>
      <point x="1716" y="456" type="line"/>
      <point x="310" y="456" type="line"/>
      <point x="310" y="0" type="line"/>
      <point x="1716" y="0" type="line"/>
    </contour>
    <contour>
      <point x="1904" y="1828" type="line"/>
      <point x="1904" y="2164" type="line"/>
      <point x="1532" y="2164" type="line"/>
      <point x="152" y="348" type="line"/>
      <point x="152" y="0" type="line"/>
      <point x="520" y="0" type="line"/>
    </contour>
    <contour>
      <point x="1704" y="2164" type="line"/>
      <point x="182" y="2164" type="line"/>
      <point x="182" y="1708" type="line"/>
      <point x="1704" y="1708" type="line"/>
    </contour>
    <contour>
      <point x="1000" y="2580" type="move" name="top"/>
    </contour>
    <contour>
      <point x="1000" y="-894" type="move" name="bottom"/>
    </contour>
    <contour>
      <point x="2618" y="2580" type="move" name="top0315"/>
    </contour>
  </outline>
</glyph>
<glyph name="uni0292" format="1">
  <advance width="2346"/>
  <unicode hex="0292"/>
  <outline>
    <contour>
      <point x="1160" y="-872" type="curve" smooth="yes"/>
      <point x="1772" y="-872"/>
      <point x="2212" y="-560"/>
      <point x="2212" y="-6" type="curve" smooth="yes"/>
      <point x="2212" y="494"/>
      <point x="1934" y="820"/>
      <point x="1440" y="894" type="curve" smooth="yes"/>
      <point x="1396" y="902" type="line"/>
      <point x="2146" y="1794" type="line"/>
      <point x="2144" y="2164" type="line"/>
      <point x="276" y="2164" type="line"/>
      <point x="276" y="1708" type="line"/>
      <point x="1506" y="1708" type="line"/>
      <point x="812" y="904" type="line"/>
      <point x="812" y="538" type="line"/>
      <point x="1084" y="538" type="line" smooth="yes"/>
      <point x="1458" y="538"/>
      <point x="1658" y="382"/>
      <point x="1658" y="30" type="curve" smooth="yes"/>
      <point x="1658" y="-238"/>
      <point x="1474" y="-416"/>
      <point x="1160" y="-416" type="curve" smooth="yes"/>
      <point x="886" y="-416"/>
      <point x="754" y="-288"/>
      <point x="712" y="-90" type="curve"/>
      <point x="156" y="-90" type="line"/>
      <point x="234" y="-668"/>
      <point x="668" y="-872"/>
    </contour>
    <contour>
      <point x="1164" y="2580" type="move" name="top"/>
    </contour>
    <contour>
      <point x="1164" y="-894" type="move" name="bottom"/>
    </contour>
    <contour>
      <point x="2346" y="2580" type="move" name="top0315"/>
    </contour>
  </outline>
</glyph>
<glyph name="glottalstoprevinv" format="1">
  <advance width="2140"/>
  <unicode hex="0295"/>
  <outline>
    <contour>
      <point x="1126" y="1120" type="line"/>
      <point x="770" y="1120"/>
      <point x="694" y="1422"/>
      <point x="694" y="1756" type="curve" smooth="yes"/>
      <point x="694" y="2020" type="line" smooth="yes"/>
      <point x="694" y="2348"/>
      <point x="772" y="2658"/>
      <point x="1124" y="2658" type="curve" smooth="yes"/>
      <point x="1368" y="2658"/>
      <point x="1500" y="2484"/>
      <point x="1508" y="2272" type="curve"/>
      <point x="2030" y="2272" type="line"/>
      <point x="2022" y="2788"/>
      <point x="1664" y="3114"/>
      <point x="1134" y="3114" type="curve" smooth="yes"/>
      <point x="466" y="3114"/>
      <point x="140" y="2630"/>
      <point x="140" y="2020" type="curve" smooth="yes"/>
      <point x="140" y="1756" type="line" smooth="yes"/>
      <point x="140" y="1146"/>
      <point x="466" y="664"/>
      <point x="1136" y="664" type="curve" smooth="yes"/>
      <point x="1310" y="664" type="line"/>
      <point x="1310" y="1120" type="line"/>
    </contour>
    <contour>
      <point x="836" y="0" type="line"/>
      <point x="1392" y="0" type="line"/>
      <point x="1392" y="1122" type="line"/>
      <point x="836" y="1122" type="line"/>
    </contour>
    <contour>
      <point x="1126" y="3266" type="move" name="top"/>
    </contour>
    <contour>
      <point x="1120" y="0" type="move" name="bottom"/>
    </contour>
    <contour>
      <point x="2140" y="3266" type="move" name="top0315"/>
    </contour>
  </outline>
</glyph>
<glyph name="cstretch" format="1">
  <advance width="2140"/>
  <unicode hex="0297"/>
  <outline>
    <contour>
      <point x="1126" y="-416" type="curve" smooth="yes"/>
      <point x="770" y="-416"/>
      <point x="694" y="-116"/>
      <point x="694" y="220" type="curve" smooth="yes"/>
      <point x="694" y="1110" type="line" smooth="yes"/>
      <point x="694" y="1438"/>
      <point x="772" y="1748"/>
      <point x="1124" y="1748" type="curve"/>
      <point x="1368" y="1748"/>
      <point x="1500" y="1574"/>
      <point x="1508" y="1362" type="curve"/>
      <point x="2030" y="1362" type="line"/>
      <point x="2022" y="1878"/>
      <point x="1664" y="2204"/>
      <point x="1134" y="2204" type="curve" smooth="yes"/>
      <point x="466" y="2204"/>
      <point x="140" y="1720"/>
      <point x="140" y="1110" type="curve" smooth="yes"/>
      <point x="140" y="220" type="line" smooth="yes"/>
      <point x="140" y="-390"/>
      <point x="466" y="-872"/>
      <point x="1136" y="-872" type="curve"/>
      <point x="1630" y="-872"/>
      <point x="2022" y="-542"/>
      <point x="2030" y="-88" type="curve"/>
      <point x="1508" y="-88" type="line"/>
      <point x="1500" y="-286"/>
      <point x="1344" y="-416"/>
    </contour>
    <contour>
      <point x="1130" y="3266" type="move" name="top"/>
    </contour>
    <contour>
      <point x="1130" y="-894" type="move" name="bottom"/>
    </contour>
    <contour>
      <point x="2140" y="3266" type="move" name="top0315"/>
    </contour>
  </outline>
</glyph>
<glyph name="bullseye" format="1">
  <advance width="2828"/>
  <unicode hex="0298"/>
  <outline>
    <contour>
      <point x="1094" y="1464" type="curve" smooth="yes"/>
      <point x="1094" y="1292"/>
      <point x="1216" y="1162"/>
      <point x="1410" y="1162" type="curve" smooth="yes"/>
      <point x="1604" y="1162"/>
      <point x="1726" y="1292"/>
      <point x="1726" y="1464" type="curve" smooth="yes"/>
      <point x="1726" y="1636"/>
      <point x="1604" y="1768"/>
      <point x="1410" y="1768" type="curve" smooth="yes"/>
      <point x="1216" y="1768"/>
      <point x="1094" y="1636"/>
    </contour>
    <component base="O"/>
    <contour>
      <point x="1410" y="3266" type="move" name="top"/>
    </contour>
    <contour>
      <point x="1410" y="0" type="move" name="bottom"/>
    </contour>
    <contour>
      <point x="2828" y="3266" type="move" name="top0315"/>
    </contour>
  </outline>
</glyph>
<glyph name="epsilonclosed" format="1">
  <advance width="2208"/>
  <unicode hex="029A"/>
  <outline>
    <contour>
      <point x="1210" y="1032" type="line"/>
      <point x="1210" y="1294" type="line"/>
      <point x="1086" y="1294" type="line" smooth="yes"/>
      <point x="866" y="1294"/>
      <point x="784" y="1388"/>
      <point x="784" y="1530" type="curve" smooth="yes"/>
      <point x="784" y="1650"/>
      <point x="854" y="1774"/>
      <point x="1088" y="1774" type="curve" smooth="yes"/>
      <point x="1298" y="1774"/>
      <point x="1512" y="1638"/>
      <point x="1512" y="1092" type="curve"/>
      <point x="2066" y="1092" type="line"/>
      <point x="2066" y="1924"/>
      <point x="1588" y="2202"/>
      <point x="1114" y="2202" type="curve" smooth="yes"/>
      <point x="574" y="2202"/>
      <point x="230" y="1982"/>
      <point x="230" y="1572" type="curve" smooth="yes"/>
      <point x="230" y="1276"/>
      <point x="518" y="1032"/>
      <point x="980" y="1032" type="curve" smooth="yes"/>
    </contour>
    <contour>
      <point x="980" y="1176" type="line"/>
      <point x="468" y="1176"/>
      <point x="190" y="974"/>
      <point x="190" y="612" type="curve" smooth="yes"/>
      <point x="190" y="202"/>
      <point x="572" y="-40"/>
      <point x="1114" y="-40" type="curve" smooth="yes"/>
      <point x="1556" y="-40"/>
      <point x="2066" y="204"/>
      <point x="2066" y="1094" type="curve"/>
      <point x="1512" y="1094" type="line"/>
      <point x="1512" y="560"/>
      <point x="1344" y="386"/>
      <point x="1088" y="386" type="curve" smooth="yes"/>
      <point x="844" y="386"/>
      <point x="746" y="518"/>
      <point x="746" y="652" type="curve" smooth="yes"/>
      <point x="746" y="842"/>
      <point x="858" y="920"/>
      <point x="1086" y="920" type="curve" smooth="yes"/>
      <point x="1210" y="920" type="line"/>
      <point x="1210" y="1176" type="line"/>
    </contour>
    <contour>
      <point x="1090" y="2580" type="move" name="top"/>
    </contour>
    <contour>
      <point x="1090" y="0" type="move" name="bottom"/>
    </contour>
    <contour>
      <point x="2208" y="2580" type="move" name="top0315"/>
    </contour>
  </outline>
</glyph>
<glyph name="jcrosstail" format="1">
  <advance width="2022"/>
  <unicode hex="029D"/>
  <outline>
    <contour>
      <point x="1982" y="232" type="curve"/>
      <point x="708" y="232" type="line" smooth="yes"/>
      <point x="302" y="232"/>
      <point x="60" y="24"/>
      <point x="60" y="-316" type="curve" smooth="yes"/>
      <point x="60" y="-646"/>
      <point x="304" y="-872"/>
      <point x="754" y="-872" type="curve" smooth="yes"/>
      <point x="1328" y="-872"/>
      <point x="1500" y="-530"/>
      <point x="1500" y="-130" type="curve" smooth="yes"/>
      <point x="1500" y="-130"/>
      <point x="1500" y="484"/>
      <point x="1500" y="484" type="curve"/>
      <point x="1500" y="484"/>
      <point x="944" y="484"/>
      <point x="944" y="484" type="curve"/>
      <point x="944" y="-272" type="line" smooth="yes"/>
      <point x="944" y="-408"/>
      <point x="888" y="-496"/>
      <point x="748" y="-496" type="curve" smooth="yes"/>
      <point x="644" y="-496"/>
      <point x="560" y="-442"/>
      <point x="560" y="-328" type="curve" smooth="yes"/>
      <point x="560" y="-224"/>
      <point x="642" y="-166"/>
      <point x="768" y="-166" type="curve" smooth="yes"/>
      <point x="1982" y="-166" type="line"/>
      <point x="1982" y="-166"/>
      <point x="1982" y="232"/>
    </contour>
    <component base="i" xOffset="342"/>
    <contour>
      <point x="1222" y="3200" type="move" name="top"/>
    </contour>
    <contour>
      <point x="1222" y="-894" type="move" name="bottom"/>
    </contour>
    <contour>
      <point x="2022" y="3200" type="move" name="top0315"/>
    </contour>
  </outline>
</glyph>
<glyph name="qhook" format="1">
  <advance width="2536"/>
  <unicode hex="02A0"/>
  <outline>
    <contour>
      <point x="2076" y="1780" type="line"/>
      <point x="2076" y="2136" type="line" smooth="yes"/>
      <point x="2076" y="2360"/>
      <point x="2238" y="2420"/>
      <point x="2402" y="2420" type="curve" smooth="yes"/>
      <point x="2448" y="2420"/>
      <point x="2496" y="2414"/>
      <point x="2544" y="2406" type="curve"/>
      <point x="2544" y="2786" type="line"/>
      <point x="2464" y="2806"/>
      <point x="2370" y="2816"/>
      <point x="2256" y="2816" type="curve" smooth="yes"/>
      <point x="1914" y="2816"/>
      <point x="1520" y="2698"/>
      <point x="1520" y="2136" type="curve" smooth="yes"/>
      <point x="1520" y="1780" type="line"/>
    </contour>
    <contour>
      <point x="1518" y="-832" type="line"/>
      <point x="2076" y="-832" type="line"/>
      <point x="2076" y="2164" type="line"/>
      <point x="1586" y="2164" type="line"/>
      <point x="1518" y="1722" type="line"/>
    </contour>
    <contour>
      <point x="140" y="1060" type="line"/>
      <point x="140" y="430"/>
      <point x="446" y="-40"/>
      <point x="988" y="-40" type="curve" smooth="yes"/>
      <point x="1526" y="-40"/>
      <point x="1762" y="428"/>
      <point x="1838" y="1038" type="curve"/>
      <point x="1838" y="1112" type="line"/>
      <point x="1762" y="1748"/>
      <point x="1526" y="2204"/>
      <point x="992" y="2204" type="curve" smooth="yes"/>
      <point x="446" y="2204"/>
      <point x="140" y="1760"/>
      <point x="140" y="1102" type="curve" smooth="yes"/>
    </contour>
    <contour>
      <point x="694" y="1102" type="line"/>
      <point x="694" y="1464"/>
      <point x="818" y="1748"/>
      <point x="1134" y="1748" type="curve" smooth="yes"/>
      <point x="1450" y="1748"/>
      <point x="1580" y="1536"/>
      <point x="1602" y="1202" type="curve"/>
      <point x="1602" y="948" type="line"/>
      <point x="1572" y="642"/>
      <point x="1450" y="416"/>
      <point x="1130" y="416" type="curve" smooth="yes"/>
      <point x="814" y="416"/>
      <point x="694" y="706"/>
      <point x="694" y="1060" type="curve" smooth="yes"/>
    </contour>
    <contour>
      <point x="1092" y="3200" type="move" name="top"/>
    </contour>
    <contour>
      <point x="1090" y="-894" type="move" name="bottom"/>
    </contour>
    <contour>
      <point x="2536" y="3200" type="move" name="top0315"/>
    </contour>
  </outline>
</glyph>
